<?xml version="1.0" encoding="utf-8"?>
<!-- Generator: Adobe Illustrator 21.0.0, SVG Export Plug-In . SVG Version: 6.00 Build 0)  -->
<svg version="1.1" id="Layer_1" xmlns="http://www.w3.org/2000/svg" xmlns:xlink="http://www.w3.org/1999/xlink" x="0px" y="0px" width="32px" height="32px"
	 viewBox="0 0 275.984 275.999" style="enable-background:new 0 0 275.984 275.999;" xml:space="preserve">
<style type="text/css">
	.st0{fill:#174F78;}
	.st1{fill:#FFFFFF;}
	.st2{fill:#CFCFCF;}
	.st3{fill:#3596DA;}
	.st4{fill:#2A7FB5;}
</style>
<g>
	<g id="email">
		<path class="st0" d="M246.217,71.459l29.768,11.571v175.014c0,9.922-8.032,17.955-17.944,17.955H17.944
			C8.032,275.999,0,267.965,0,258.043V83.029l29.767-9.092"/>
		<path class="st1" d="M49.462,193.004c-9.922,0-18.039-8.117-18.039-18.039V18.039C31.423,8.117,39.541,0,49.462,0h177.063
			c9.922,0,18.039,8.117,18.039,18.039v156.926c0,9.922-8.117,18.039-18.039,18.039H49.462z"/>
		<g>
			<rect x="104.69" y="41.731" class="st2" width="71.453" height="6.91"/>
			<rect x="104.69" y="67.977" class="st2" width="110.661" height="6.91"/>
			<rect x="51.575" y="94.226" class="st2" width="163.776" height="6.904"/>
			<rect x="51.575" y="120.467" class="st2" width="163.776" height="6.91"/>
			<rect x="51.575" y="146.713" class="st2" width="163.776" height="6.908"/>
		</g>
		<path class="st3" d="M112.498,171.579L1.218,264.391c2.551,6.764,9.056,11.607,16.726,11.607H258.04
			c7.667,0,14.175-4.844,16.729-11.607l-109.267-92.813H112.498z"/>
		<g>
			<path class="st4" d="M164.913,172.051l109.856,92.34c-0.337,0.896-0.757,1.756-1.225,2.58l0.028,0.035
				c1.527-2.641,2.412-5.691,2.412-8.963V83.053L164.913,172.051z"/>
			<path class="st4" d="M1.218,264.391l110.754-92.34L0,83.053v174.991c0,3.272,0.892,6.322,2.408,8.963l0.04-0.035
				C1.975,266.147,1.556,265.288,1.218,264.391z"/>
		</g>
		<rect x="51.575" y="41.112" class="st2" width="33.005" height="33.005"/>
	</g>
</g>
</svg>
