<?xml version="1.0" encoding="utf-8"?>
<!-- Generator: Adobe Illustrator 21.0.0, SVG Export Plug-In . SVG Version: 6.00 Build 0)  -->
<svg version="1.1" id="Layer_1" xmlns="http://www.w3.org/2000/svg" xmlns:xlink="http://www.w3.org/1999/xlink" x="0px" y="0px" width="32px" height="32px"
	 viewBox="0 0 136.6 136.6" style="enable-background:new 0 0 136.6 136.6;" xml:space="preserve">
<style type="text/css">
	.st0{fill:#395398;}
	.st1{fill:#FFFFFF;}
</style>
<g>
	<path class="st0" d="M136.6,113.2c0,12.9-10.4,23.3-23.3,23.3H23.3C10.4,136.6,0,126.1,0,113.2V23.3C0,10.4,10.4,0,23.3,0h89.9
		c12.9,0,23.3,10.4,23.3,23.3V113.2z"/>
	<path class="st1" d="M93.7,136.6V84.1h17.6l2.6-20.4H93.7v-13c0-5.9,1.6-9.9,10.1-9.9l10.8,0V22.4c-1.9-0.2-8.3-0.8-15.8-0.8
		c-15.6,0-26.3,9.5-26.3,27v15.1H55v20.4h17.6v52.4H93.7L93.7,136.6z"/>
</g>
</svg>
