<?xml version="1.0" encoding="utf-8"?>
<!-- Generator: Adobe Illustrator 21.0.0, SVG Export Plug-In . SVG Version: 6.00 Build 0)  -->
<svg version="1.1" id="Layer_1" xmlns="http://www.w3.org/2000/svg" xmlns:xlink="http://www.w3.org/1999/xlink" x="0px" y="0px"
	 viewBox="0 0 150 150" style="enable-background:new 0 0 150 150;" xml:space="preserve">
<style type="text/css">
	.st0{fill:#0B7A75;}
	.st1{fill:#FBC326;}
	.st2{fill:#FF3B30;}
	.st3{fill:#F0F3F5;}
</style>
<g id="XMLID_9_">
	<g id="XMLID_3_">
		<g id="XMLID_10_">
			<g id="XMLID_25_">
				<g id="XMLID_26_">
					<path id="XMLID_8_" class="st0" d="M122.31,16.245c-4.028-4.028-10.898-4.035-15.983-0.03l-5.19,4.102
						c-1.935-0.93-3.922-1.755-5.947-2.467l-0.773-6.57C93.652,4.852,88.792,0,83.1,0H66.907c-5.692,0-10.56,4.852-11.317,11.28
						l-0.78,6.57c-2.018,0.712-4.013,1.538-5.948,2.467l-5.19-4.102c-5.085-4.005-11.955-3.998-15.982,0.03L16.245,27.69
						c-4.028,4.028-4.035,10.898-0.03,15.983l4.095,5.197c-0.923,1.928-1.748,3.923-2.46,5.94l-6.57,0.78
						C4.852,56.347,0,61.215,0,66.908V83.1c0,5.685,4.852,10.552,11.28,11.31l6.57,0.78c0.712,2.025,1.537,4.012,2.467,5.947
						l-4.102,5.19c-4.005,5.085-3.998,11.955,0.03,15.982l5.722,5.723l4.14-4.14l-5.722-5.723c-1.92-1.927-1.74-5.46,0.435-8.213
						l5.242-6.652c0.713-0.9,0.833-2.137,0.3-3.158c-1.41-2.73-2.602-5.603-3.532-8.535c-0.353-1.095-1.305-1.89-2.453-2.025
						l-8.407-0.99c-1.74-0.203-3.27-0.9-4.365-1.883c-1.088-0.982-1.748-2.25-1.748-3.615V66.908c0-2.723,2.625-5.085,6.113-5.498
						l8.407-0.998c1.14-0.135,2.1-0.922,2.445-2.017c0.938-2.932,2.123-5.805,3.54-8.535c0.533-1.02,0.413-2.257-0.3-3.165
						l-5.242-6.653c-2.175-2.752-2.363-6.285-0.435-8.205L31.83,20.385c1.927-1.92,5.46-1.74,8.212,0.435l6.653,5.243
						c0.9,0.712,2.137,0.833,3.157,0.3c2.738-1.41,5.603-2.602,8.543-3.532c1.095-0.352,1.882-1.313,2.017-2.452l0.998-8.408
						c0.412-3.48,2.775-6.113,5.497-6.113H83.1c2.722,0,5.085,2.632,5.497,6.113l0.99,8.408c0.135,1.147,0.93,2.1,2.025,2.452
						c2.925,0.93,5.798,2.122,8.535,3.532c0.42,0.225,0.885,0.33,1.343,0.33c0.645,0,1.29-0.21,1.815-0.63l6.652-5.243
						c2.753-2.175,6.285-2.362,8.205-0.435l5.73,5.73l4.14-4.147L122.31,16.245z"/>
				</g>
			</g>
			<g id="XMLID_20_">
				<g id="XMLID_22_">
					<path id="XMLID_7_" class="st1" d="M75,45.6c-16.215,0-29.4,13.185-29.4,29.4c0,8.107,3.3,15.457,8.617,20.783l4.14-4.14
						c-4.26-4.268-6.9-10.147-6.9-16.643c0-12.982,10.56-23.542,23.543-23.542c6.495,0,12.375,2.64,16.642,6.9l4.14-4.14
						C90.457,48.9,83.107,45.6,75,45.6z"/>
				</g>
			</g>
			<g id="XMLID_14_">
				<g id="XMLID_15_">
					<path id="XMLID_2_" class="st2" d="M32.696,77.929c1.618,0,2.93-1.312,2.93-2.93c0-17.345,11.117-32.457,27.663-37.603
						c1.545-0.481,2.408-2.123,1.927-3.668c-0.39-1.255-1.547-2.06-2.797-2.06c-0.288,0-0.582,0.043-0.871,0.133
						c-9.016,2.804-17.112,8.534-22.795,16.133c-5.88,7.862-8.987,17.221-8.987,27.065C29.766,76.617,31.078,77.929,32.696,77.929z"
						/>
				</g>
			</g>
			<g id="XMLID_11_">
				<g id="XMLID_12_">
					<circle id="XMLID_1_" class="st0" cx="75.601" cy="33.328" r="2.93"/>
				</g>
			</g>
		</g>
		<path id="XMLID_18_" class="st3" d="M150,66.908V83.1c0,5.685-4.853,10.552-11.28,11.318l-6.57,0.772
			c-0.713,2.025-1.538,4.012-2.467,5.947l4.095,5.19c4.012,5.085,4.005,11.955-0.022,15.982l-11.445,11.452
			c-4.028,4.02-10.898,4.027-15.983,0.023l-5.197-4.095c-1.928,0.923-3.915,1.747-5.94,2.46l-0.773,6.57
			C93.652,145.148,88.785,150,83.1,150H66.907c-5.692,0-10.56-4.852-11.317-11.28l-0.78-6.57c-2.018-0.712-4.005-1.537-5.94-2.46
			l-5.198,4.095c-5.085,4.005-11.955,3.997-15.982-0.03l-5.723-5.723l4.14-4.14l5.73,5.723c1.92,1.927,5.453,1.74,8.205-0.435
			l6.653-5.242c0.907-0.713,2.145-0.832,3.165-0.3c2.73,1.41,5.602,2.603,8.535,3.533c1.095,0.353,1.882,1.313,2.017,2.452
			l0.998,8.408c0.412,3.488,2.775,6.113,5.497,6.113H83.1c2.722,0,5.085-2.633,5.497-6.113l0.99-8.408
			c0.135-1.147,0.93-2.1,2.025-2.452c2.933-0.93,5.798-2.122,8.528-3.533c1.02-0.532,2.257-0.412,3.165,0.3l6.652,5.242
			c2.753,2.175,6.285,2.363,8.205,0.435l11.453-11.453c1.92-1.92,1.74-5.452-0.435-8.205l-5.243-6.652
			c-0.712-0.9-0.832-2.137-0.3-3.158c1.41-2.737,2.603-5.603,3.533-8.535c0.352-1.095,1.305-1.89,2.452-2.025l8.408-0.99
			c3.48-0.413,6.112-2.775,6.112-5.498V66.908c0-2.723-2.625-5.085-6.112-5.498l-8.408-0.998c-1.14-0.135-2.1-0.922-2.452-2.017
			c-0.93-2.932-2.123-5.805-3.533-8.535c-0.532-1.02-0.412-2.257,0.3-3.165l5.243-6.653c2.175-2.752,2.363-6.285,0.435-8.205
			l-5.723-5.722l4.14-4.147l5.73,5.722c4.02,4.028,4.027,10.898,0.023,15.983l-4.095,5.197c0.922,1.928,1.747,3.923,2.46,5.94
			l6.57,0.78C145.147,56.347,150,61.215,150,66.908z"/>
		<path id="XMLID_21_" class="st1" d="M104.4,75c0,16.215-13.185,29.4-29.4,29.4c-8.108,0-15.458-3.3-20.783-8.618l4.14-4.14
			c4.268,4.26,10.148,6.9,16.643,6.9c12.982,0,23.542-10.56,23.542-23.543c0-6.495-2.64-12.375-6.9-16.643l4.14-4.14
			C101.1,59.542,104.4,66.893,104.4,75z"/>
	</g>
</g>
</svg>
