<?xml version="1.0" encoding="utf-8"?>
<!-- Generator: Adobe Illustrator 21.0.0, SVG Export Plug-In . SVG Version: 6.00 Build 0)  -->
<!DOCTYPE svg PUBLIC "-//W3C//DTD SVG 1.1//EN" "http://www.w3.org/Graphics/SVG/1.1/DTD/svg11.dtd" [
	<!ENTITY st0 "clip-path:url(#SVGID_2_);">
	<!ENTITY st1 "fill:#DB4639;">
	<!ENTITY st2 "fill:#FFFFFF;">
]>
<svg version="1.1" id="Layer_1" xmlns="http://www.w3.org/2000/svg" xmlns:xlink="http://www.w3.org/1999/xlink" x="0px" y="0px"
	 viewBox="0 0 126.959 126.951" style="enable-background:new 0 0 126.959 126.951;" xml:space="preserve" width="32px" height="32px">
<g>
	<g>
		<g>
			<defs>
				<ellipse id="SVGID_1_" cx="63.48" cy="63.474" rx="63.479" ry="63.476"/>
			</defs>
			<clipPath id="SVGID_2_">
				<use xlink:href="#SVGID_1_"  style="overflow:visible;"/>
			</clipPath>
			<g style="&st0;">
				<ellipse style="&st1;" cx="63.48" cy="63.474" rx="63.479" ry="63.476"/>
				<path style="&st2;" d="M74.533,58.938h-0.3H63.701H46.172v10.132h16.989c-2.456,7.256-9.228,12.47-17.201,12.47
					c-10.048,0-18.19-8.278-18.19-18.491c0-10.207,8.143-18.485,18.19-18.485c4.402,0,8.426,1.594,11.572,4.236h0.475l7.484-7.606
					c-5.16-4.754-12.008-7.656-19.531-7.656c-16.045,0-29.053,13.22-29.053,29.512c0,16.309,13.008,29.517,29.053,29.517
					c2.101,0,4.204-0.222,6.251-0.686c4.162-0.915,8.09-2.797,11.448-5.417c3.339-2.605,6.09-5.949,8.038-9.702
					c0.989-1.929,1.772-3.953,2.324-6.039c0.684-2.607,0.512-5.229,0.512-7.912C74.533,61.521,74.533,60.231,74.533,58.938z"/>
				<rect x="92.491" y="50.252" style="&st2;" width="8.511" height="25.43"/>
				<rect x="84.035" y="58.716" style="&st2;" width="25.429" height="8.506"/>
			</g>
		</g>
	</g>
</g>
<g>
</g>
<g>
</g>
<g>
</g>
<g>
</g>
<g>
</g>
<g>
</g>
<g>
</g>
<g>
</g>
<g>
</g>
<g>
</g>
<g>
</g>
<g>
</g>
<g>
</g>
<g>
</g>
<g>
</g>
</svg>
