<?xml version="1.0" encoding="utf-8"?>
<!-- Generator: Adobe Illustrator 21.0.0, SVG Export Plug-In . SVG Version: 6.00 Build 0)  -->
<svg version="1.1" id="Layer_1" xmlns="http://www.w3.org/2000/svg" xmlns:xlink="http://www.w3.org/1999/xlink" x="0px" y="0px"
	 viewBox="0 0 1200 400" style="enable-background:new 0 0 1200 400;" xml:space="preserve">
<style type="text/css">
	.st0{fill:#011627;}
	.st1{fill:#282C35;}
	.st2{fill:#3E434F;}
	.st3{fill:#FFFFFF;}
	.st4{fill:#C4C6C8;}
	.st5{fill:#393E49;}
	.st6{fill:#2A2E37;}
	.st7{fill:#323640;}
	.st8{fill:#FF876C;}
	.st9{fill:#2B2F38;}
	.st10{fill:#00B5AC;}
	.st11{fill:#2D313B;}
	.st12{fill:#30343E;}
	.st13{fill:#F1F2F2;}
	.st14{fill:#2E323C;}
	.st15{opacity:0.1;fill:#FFFFFF;enable-background:new    ;}
	.st16{fill:#2C303A;}
	.st17{enable-background:new    ;}
	.st18{fill:#FDFFFC;}
	.st19{fill:#2EC4B6;}
</style>
<rect x="-6" y="-2" class="st0" width="1212" height="404"/>
<g>
	<g>
		<g>
			<g>
				<g>
					<g>
						<path class="st1" d="M977.4,276.1V139.6c0-9.2-7.4-16.6-16.6-16.6h-235c-9.2,0-16.6,7.4-16.6,16.6v136.6c0,0.2,0,29.1,0,29.3
							h268.1C977.3,305.2,977.4,276.3,977.4,276.1z"/>
					</g>
					<rect x="728.2" y="141.4" class="st2" width="228.8" height="147.6"/>
					<g>
						<path class="st3" d="M686.4,309c0,10.7,8.7,19.4,19.4,19.4h274.9c10.7,0,19.4-8.7,19.4-19.4v-3.6H686.4V309z"/>
					</g>
					<path class="st4" d="M863,317.7c0,1.2-1.1,2.1-2.5,2.1h-35.7c-1.4,0-2.5-0.9-2.5-2.1l0,0c0-1.1,1.1-2.1,2.5-2.1h35.7
						C861.9,315.6,863,316.5,863,317.7L863,317.7z"/>
				</g>
			</g>
		</g>
		<g>
			<path class="st5" d="M957.1,141.8v-0.4H728.2v128.3C760.6,206,847.9,156.7,957.1,141.8z"/>
		</g>
	</g>
	<g>
		<g>
			<g>
				<path class="st6" d="M1088.9,58.3c0,0-15.1,1.3-15.1,10.6h29.2C1103,68.9,1103.7,58.3,1088.9,58.3z"/>
				<path class="st7" d="M1088.9,58.3c0,0-146.7,0-163.8,0c-17,0-16.3,10.6-16.3,10.6h164.9C1073.8,59.6,1088.9,58.3,1088.9,58.3z"
					/>
			</g>
			<rect x="908.5" y="68.9" class="st7" width="164.9" height="236.1"/>
			<g>
				<path class="st6" d="M893.4,315.5c0,0,15.1-1.3,15.1-10.6h-29.2C879.3,305,878.6,315.5,893.4,315.5z"/>
				<path class="st7" d="M893.4,315.5c0,0,146.7,0,163.8,0c17,0,16.3-10.6,16.3-10.6h-165C908.5,314.2,893.4,315.5,893.4,315.5z"/>
			</g>
		</g>
		<g>
			<g>
				<path class="st8" d="M1019,272.3h-15.3c-0.8,0-1.5-0.6-1.5-1.2c0-0.7,0.7-1.2,1.5-1.2h15.3c0.8,0,1.5,0.6,1.5,1.2
					C1020.5,271.7,1019.9,272.3,1019,272.3z"/>
			</g>
			<g>
				<path class="st9" d="M1044.7,272.3h-17.2c-0.8,0-1.5-0.6-1.5-1.2c0-0.7,0.7-1.2,1.5-1.2h17.2c0.8,0,1.5,0.6,1.5,1.2
					C1046.2,271.7,1045.5,272.3,1044.7,272.3z"/>
			</g>
			<g>
				<path class="st9" d="M1062.3,282.5h-58.6c-0.8,0-1.5-0.6-1.5-1.2c0-0.7,0.7-1.2,1.5-1.2h58.6c0.8,0,1.5,0.6,1.5,1.2
					S1063.1,282.5,1062.3,282.5z"/>
			</g>
			<g>
				<path class="st10" d="M1033.1,293.3h-29.3c-0.8,0-1.5-0.6-1.5-1.2c0-0.7,0.7-1.2,1.5-1.2h29.3c0.8,0,1.5,0.6,1.5,1.2
					C1034.5,292.8,1033.9,293.3,1033.1,293.3z"/>
			</g>
			<g>
				<path class="st8" d="M1050.7,293.3h-8.8c-0.8,0-1.5-0.6-1.5-1.2c0-0.7,0.7-1.2,1.5-1.2h8.8c0.8,0,1.5,0.6,1.5,1.2
					C1052.2,292.8,1051.5,293.3,1050.7,293.3z"/>
			</g>
			<g>
				<path class="st9" d="M969.6,291.7h15.3c0.8,0,1.5,0.6,1.5,1.2c0,0.7-0.7,1.2-1.5,1.2h-15.3c-0.8,0-1.5-0.6-1.5-1.2
					C968.1,292.3,968.8,291.7,969.6,291.7z"/>
			</g>
			<g>
				<path class="st8" d="M943.9,291.7h17.2c0.8,0,1.5,0.6,1.5,1.2c0,0.7-0.7,1.2-1.5,1.2h-17.2c-0.8,0-1.5-0.6-1.5-1.2
					C942.5,292.3,943.1,291.7,943.9,291.7z"/>
			</g>
			<g>
				<path class="st10" d="M926.3,281.6h58.6c0.8,0,1.5,0.6,1.5,1.2c0,0.7-0.7,1.2-1.5,1.2h-58.6c-0.8,0-1.5-0.6-1.5-1.2
					C924.8,282.1,925.5,281.6,926.3,281.6z"/>
			</g>
			<g>
				<path class="st9" d="M955.6,270.7h29.3c0.8,0,1.5,0.6,1.5,1.2c0,0.7-0.7,1.2-1.5,1.2h-29.3c-0.8,0-1.5-0.6-1.5-1.2
					C954.1,271.3,954.8,270.7,955.6,270.7z"/>
			</g>
			<g>
				<path class="st9" d="M937.9,270.7h8.8c0.8,0,1.5,0.6,1.5,1.2c0,0.7-0.7,1.2-1.5,1.2h-8.8c-0.8,0-1.5-0.6-1.5-1.2
					C936.5,271.3,937.1,270.7,937.9,270.7z"/>
			</g>
			<g>
				<path class="st8" d="M980.2,206.1h-48.3c-0.8,0-1.5-0.6-1.5-1.2c0-0.7,0.7-1.2,1.5-1.2h48.3c0.8,0,1.5,0.6,1.5,1.2
					C981.6,205.6,981,206.1,980.2,206.1z"/>
			</g>
			<g>
				<path class="st9" d="M1051.5,206.1H988c-0.8,0-1.5-0.6-1.5-1.2c0-0.7,0.7-1.2,1.5-1.2h63.5c0.8,0,1.5,0.6,1.5,1.2
					C1053,205.6,1052.3,206.1,1051.5,206.1z"/>
			</g>
			<g>
				<path class="st9" d="M1011.4,220.7h-91.8c-0.8,0-1.5-0.6-1.5-1.2c0-0.7,0.7-1.2,1.5-1.2h91.8c0.8,0,1.5,0.6,1.5,1.2
					C1012.9,220.2,1012.2,220.7,1011.4,220.7z"/>
			</g>
			<g>
				<path class="st10" d="M1062.3,220.7h-42.6c-0.8,0-1.5-0.6-1.5-1.2c0-0.7,0.7-1.2,1.5-1.2h42.6c0.8,0,1.5,0.6,1.5,1.2
					C1063.8,220.2,1063.1,220.7,1062.3,220.7z"/>
			</g>
			<g>
				<path class="st9" d="M954.1,237h-34.5c-0.8,0-1.5-0.6-1.5-1.2c0-0.7,0.7-1.2,1.5-1.2h34.5c0.8,0,1.5,0.6,1.5,1.2
					S954.9,237,954.1,237z"/>
			</g>
			<g>
				<path class="st8" d="M1028.7,237h-64.9c-0.8,0-1.5-0.6-1.5-1.2c0-0.7,0.7-1.2,1.5-1.2h64.9c0.8,0,1.5,0.6,1.5,1.2
					C1030.1,236.4,1029.5,237,1028.7,237z"/>
			</g>
			<g>
				<path class="st9" d="M1049.1,237h-12.4c-0.8,0-1.5-0.6-1.5-1.2c0-0.7,0.7-1.2,1.5-1.2h12.4c0.8,0,1.5,0.6,1.5,1.2
					S1049.9,237,1049.1,237z"/>
			</g>
			<g>
				<path class="st8" d="M980.2,85.7h-48.3c-0.8,0-1.5-0.6-1.5-1.2c0-0.7,0.7-1.2,1.5-1.2h48.3c0.8,0,1.5,0.6,1.5,1.2
					C981.6,85.1,981,85.7,980.2,85.7z"/>
			</g>
			<g>
				<path class="st9" d="M1051.5,85.7H988c-0.8,0-1.5-0.6-1.5-1.2c0-0.7,0.7-1.2,1.5-1.2h63.5c0.8,0,1.5,0.6,1.5,1.2
					S1052.3,85.7,1051.5,85.7z"/>
			</g>
			<g>
				<path class="st9" d="M1011.4,100.3h-91.8c-0.8,0-1.5-0.6-1.5-1.2c0-0.7,0.7-1.2,1.5-1.2h91.8c0.8,0,1.5,0.6,1.5,1.2
					C1012.9,99.7,1012.2,100.3,1011.4,100.3z"/>
			</g>
			<g>
				<path class="st10" d="M1062.3,100.3h-42.6c-0.8,0-1.5-0.6-1.5-1.2c0-0.7,0.7-1.2,1.5-1.2h42.6c0.8,0,1.5,0.6,1.5,1.2
					C1063.8,99.7,1063.1,100.3,1062.3,100.3z"/>
			</g>
			<g>
				<path class="st9" d="M954.1,116.6h-34.5c-0.8,0-1.5-0.6-1.5-1.2c0-0.7,0.7-1.2,1.5-1.2h34.5c0.8,0,1.5,0.6,1.5,1.2
					S954.9,116.6,954.1,116.6z"/>
			</g>
			<g>
				<path class="st8" d="M1028.7,116.6h-64.9c-0.8,0-1.5-0.6-1.5-1.2c0-0.7,0.7-1.2,1.5-1.2h64.9c0.8,0,1.5,0.6,1.5,1.2
					C1030.1,116,1029.5,116.6,1028.7,116.6z"/>
			</g>
			<g>
				<path class="st9" d="M1049.1,116.6h-12.4c-0.8,0-1.5-0.6-1.5-1.2c0-0.7,0.7-1.2,1.5-1.2h12.4c0.8,0,1.5,0.6,1.5,1.2
					S1049.9,116.6,1049.1,116.6z"/>
			</g>
			<g>
				<path class="st10" d="M927.2,253.3h-7.6c-0.8,0-1.5-0.6-1.5-1.2s0.7-1.2,1.5-1.2h7.6c0.8,0,1.5,0.6,1.5,1.2
					S928,253.3,927.2,253.3z"/>
			</g>
			<g>
				<path class="st9" d="M1013,253.3h-76.2c-0.8,0-1.5-0.6-1.5-1.2s0.7-1.2,1.5-1.2h76.2c0.8,0,1.5,0.6,1.5,1.2
					S1013.8,253.3,1013,253.3z"/>
			</g>
			<g>
				<path class="st8" d="M1062.3,253.3h-40.1c-0.8,0-1.5-0.6-1.5-1.2s0.7-1.2,1.5-1.2h40.1c0.8,0,1.5,0.6,1.5,1.2
					S1063.1,253.3,1062.3,253.3z"/>
			</g>
			<g>
				<path class="st9" d="M1030,185h20.1c0.8,0,1.5,0.6,1.5,1.2c0,0.7-0.7,1.2-1.5,1.2H1030c-0.8,0-1.5-0.6-1.5-1.2
					C1028.6,185.5,1029.2,185,1030,185z"/>
			</g>
			<g>
				<path class="st10" d="M930.4,185h91c0.8,0,1.5,0.6,1.5,1.2c0,0.7-0.7,1.2-1.5,1.2h-91c-0.8,0-1.5-0.6-1.5-1.2
					S929.6,185,930.4,185z"/>
			</g>
			<g>
				<path class="st8" d="M935.9,154.9h-14.6c-0.8,0-1.5-0.6-1.5-1.2c0-0.7,0.7-1.2,1.5-1.2h14.6c0.8,0,1.5,0.6,1.5,1.2
					C937.3,154.3,936.7,154.9,935.9,154.9z"/>
			</g>
			<g>
				<path class="st9" d="M1002.2,154.9h-58.7c-0.8,0-1.5-0.6-1.5-1.2c0-0.7,0.7-1.2,1.5-1.2h58.7c0.8,0,1.5,0.6,1.5,1.2
					C1003.7,154.3,1003,154.9,1002.2,154.9z"/>
			</g>
			<g>
				<path class="st10" d="M1062.3,154.9H1013c-0.8,0-1.5-0.6-1.5-1.2c0-0.7,0.7-1.2,1.5-1.2h49.3c0.8,0,1.5,0.6,1.5,1.2
					C1063.8,154.3,1063.1,154.9,1062.3,154.9z"/>
			</g>
			<g>
				<path class="st9" d="M1035.1,172.2H921.2c-0.8,0-1.5-0.6-1.5-1.2c0-0.7,0.7-1.2,1.5-1.2h113.9c0.8,0,1.5,0.6,1.5,1.2
					C1036.5,171.6,1035.9,172.2,1035.1,172.2z"/>
			</g>
			<g>
				<path class="st8" d="M1062.3,172.2h-18.4c-0.8,0-1.5-0.6-1.5-1.2c0-0.7,0.7-1.2,1.5-1.2h18.4c0.8,0,1.5,0.6,1.5,1.2
					C1063.8,171.6,1063.1,172.2,1062.3,172.2z"/>
			</g>
			<g>
				<path class="st8" d="M1036.6,134.4h25.7c0.8,0,1.5,0.6,1.5,1.2c0,0.7-0.7,1.2-1.5,1.2h-25.7c-0.8,0-1.5-0.6-1.5-1.2
					C1035.2,135,1035.8,134.4,1036.6,134.4z"/>
			</g>
			<g>
				<path class="st10" d="M921.2,134.4h106.6c0.8,0,1.5,0.6,1.5,1.2c0,0.7-0.7,1.2-1.5,1.2H921.2c-0.8,0-1.5-0.6-1.5-1.2
					S920.4,134.4,921.2,134.4z"/>
			</g>
		</g>
	</g>
	<g>
		<rect x="1092.5" y="99.2" class="st3" width="30.1" height="194.9"/>
		<g>
			<g>
				<rect x="1092.5" y="284.1" class="st4" width="15.7" height="2.9"/>
			</g>
			<g>
				<rect x="1092.5" y="249.6" class="st4" width="15.7" height="2.9"/>
			</g>
			<g>
				<rect x="1092.5" y="232" class="st4" width="15.7" height="2.9"/>
			</g>
			<g>
				<rect x="1092.5" y="214" class="st4" width="15.7" height="2.9"/>
			</g>
			<g>
				<rect x="1092.5" y="196.6" class="st4" width="16.6" height="2.9"/>
			</g>
			<g>
				<rect x="1092.5" y="180.2" class="st4" width="16.6" height="2.9"/>
			</g>
			<g>
				<rect x="1092.5" y="162" class="st4" width="16.6" height="2.9"/>
			</g>
			<g>
				<rect x="1092.5" y="266.9" class="st4" width="15.7" height="2.9"/>
			</g>
			<g>
				<rect x="1092.5" y="275.3" class="st4" width="7.8" height="2.9"/>
			</g>
			<g>
				<rect x="1092.5" y="258.1" class="st4" width="7.8" height="2.9"/>
			</g>
			<g>
				<rect x="1092.5" y="241.2" class="st4" width="7.8" height="2.9"/>
			</g>
			<g>
				<rect x="1092.5" y="223.3" class="st4" width="7.8" height="2.9"/>
			</g>
			<g>
				<rect x="1092.5" y="206.1" class="st4" width="7.8" height="2.9"/>
			</g>
			<g>
				<rect x="1092.5" y="188.6" class="st4" width="7.8" height="2.9"/>
			</g>
			<g>
				<rect x="1092.5" y="170.7" class="st4" width="7.8" height="2.9"/>
			</g>
		</g>
		<g>
			<g>
				<rect x="1092.5" y="149.5" class="st4" width="15.7" height="2.9"/>
			</g>
			<g>
				<rect x="1092.5" y="115.1" class="st4" width="15.7" height="2.9"/>
			</g>
			<g>
				<rect x="1092.5" y="132.3" class="st4" width="15.7" height="2.9"/>
			</g>
			<g>
				<rect x="1092.5" y="140.7" class="st4" width="7.8" height="2.9"/>
			</g>
			<g>
				<rect x="1092.5" y="123.5" class="st4" width="7.8" height="2.9"/>
			</g>
			<g>
				<rect x="1092.5" y="106.6" class="st4" width="7.8" height="2.9"/>
			</g>
		</g>
		<rect x="1119.7" y="99.2" class="st4" width="2.8" height="194.9"/>
	</g>
	<g>
		<g>
			<g>
				<rect x="1131.7" y="142.3" class="st11" width="3.4" height="135.1"/>
				<rect x="1135.1" y="142.3" class="st12" width="3.5" height="135.1"/>
				<rect x="1138.6" y="142.3" class="st7" width="3.4" height="135.1"/>
			</g>
			<g>
				<path class="st11" d="M1138.8,127.1l-2-9.7l-2,9.7C1136.1,127.8,1137.5,127.8,1138.8,127.1z"/>
				<path class="st3" d="M1134.8,127.1l-3.1,15.1h10.3l-3.1-15.1C1137.5,127.8,1136.1,127.8,1134.8,127.1z"/>
			</g>
			<rect x="1131.7" y="277.4" class="st3" width="10.3" height="3.7"/>
			<rect x="1131.7" y="281.1" class="st7" width="10.3" height="13.7"/>
		</g>
		<rect x="1131.7" y="281.1" class="st11" width="3.2" height="13.7"/>
		<rect x="1131.7" y="277.4" class="st13" width="3.1" height="3.7"/>
	</g>
	<g>
		<g>
			<g>
				<path class="st9" d="M1102.7,329.2l-3.2-6.8c4.8-2.2,17.1-10,17.1-18.9c0-3-1-3.8-1.4-4.1c-2.4-2-8.2-0.8-10.4-0.3
					c-1,0.2-1.6,0.3-2.2,0.3v-7.5c-0.1,0-0.1,0-0.2,0c0.2,0,0.6-0.1,1-0.2c3.7-0.8,11.5-2.3,16.7,1.9c2.7,2.2,4.1,5.6,4.1,9.9
					C1124.1,319,1103.6,328.8,1102.7,329.2z"/>
			</g>
			<g>
				<g>
					<g>
						<path class="st7" d="M1048.1,284.7c-0.1,0.6-0.2,1.1-0.2,1.7v48.7c0,4.3,3.5,7.8,7.8,7.8h41.6c4.3,0,7.8-3.5,7.8-7.8v-48.7
							c0-0.6-0.1-1.2-0.2-1.7H1048.1z"/>
					</g>
					<g>
						<path class="st14" d="M1048.1,284.7c-0.1,0.6-0.2,1.1-0.2,1.7v48.7c0,4.3,3.5,7.8,7.8,7.8h1.9v-58.2H1048.1L1048.1,284.7z"/>
					</g>
				</g>
				<path class="st1" d="M1109,283.9c0,2.2-1.7,3.9-3.9,3.9h-57.2c-2.2,0-3.9-1.7-3.9-3.9l0,0c0-2.1,1.7-3.9,3.9-3.9h57.2
					C1107.2,280,1109,281.7,1109,283.9L1109,283.9z"/>
				<rect x="1047.9" y="287.8" class="st1" width="57.2" height="3"/>
			</g>
		</g>
		<path class="st15" d="M1130.7,203.4h-73.1c-3.4,0-6.2,3.6-6.2,8.1c0,1.2,0.2,2.4,0.6,3.4h-11.3c-3.7,0-6.7,4-6.7,8.9
			s3,8.9,6.7,8.9h33.8c0,0.1,0,0.2,0,0.3c0,1.7,0.5,3.2,1.2,4.4H1063c-3,0-5.4,3.2-5.4,7c0,3.9,2.4,7,5.4,7h6.9
			c-0.3,0.7-0.5,1.5-0.5,2.4c0,1.2,0.4,2.3,0.9,3.2h-6.1c-2.2,0-4.1,2.4-4.1,5.3c0,2.2,1,4,2.4,4.9c-0.6,0.8-1,2.2-1,3.8
			c0,2.6,1.1,4.7,2.4,4.7h8.1c1.3,0,2.4-2.1,2.4-4.7c0-1.3-0.3-2.5-0.7-3.3h11c2.2,0,4.1-2.4,4.1-5.3c0-1.4-0.4-2.7-1.1-3.6
			c2-0.1,3.6-2.2,3.6-4.9c0-0.9-0.2-1.7-0.5-2.4h6.9c3,0,5.4-3.1,5.4-7c0-1.8-0.5-3.4-1.3-4.6h7.9c2.9,0,5.2-3.1,5.2-6.9
			c0-3.8-2.3-6.9-5.2-6.9h-9.6c0.2-0.7,0.2-1.5,0.2-2.3c0-1.5-0.3-2.9-0.8-4.1h31.1c3.4,0,6.2-3.6,6.2-8.1
			C1136.8,207,1134.1,203.4,1130.7,203.4z"/>
	</g>
	<g>
		<g>
			<rect x="579.7" y="282.7" class="st7" width="203.2" height="66.4"/>
			<g>
				<path class="st16" d="M782.8,279.5c0-1.9-1.6-3.5-3.5-3.5H583.2c-1.9,0-3.5,1.6-3.5,3.5v3.3h203.2L782.8,279.5L782.8,279.5z"/>
			</g>
			<rect x="579.7" y="349.1" class="st1" width="203.2" height="3.1"/>
			<g>
				<path class="st16" d="M606.1,311L606.1,311h-2.2v8.8h2.2h10.6h2.2V311h-2.2l0,0H606.1z"/>
				<polygon class="st16" points="601.6,296.4 603.8,296.4 603.8,294.1 603.8,292.1 603.8,289.8 601.6,289.8 589.2,289.8 587,289.8 
					587,292.1 587,294.1 587,296.4 589.2,296.4 				"/>
				<polygon class="st16" points="621.9,296.4 624.1,296.4 624.1,294.1 624.1,292.1 624.1,289.8 621.9,289.8 609.5,289.8 
					607.3,289.8 607.3,292.1 607.3,294.1 607.3,296.4 609.5,296.4 				"/>
				<polygon class="st16" points="642.8,296.4 645,296.4 645,294.1 645,292.1 645,289 628.2,289 628.2,292.1 628.2,294.1 
					628.2,296.4 630.4,296.4 				"/>
				<polygon class="st16" points="663.1,296.4 665.3,296.4 665.3,294.1 665.3,292.1 665.3,289 648.5,289 648.5,292.1 648.5,294.1 
					648.5,296.4 650.7,296.4 				"/>
				<polygon class="st16" points="684,296.4 686.2,296.4 686.2,294.1 686.2,292.1 686.2,289 669.4,289 669.4,292.1 669.4,294.1 
					669.4,296.4 671.6,296.4 				"/>
				<polygon class="st16" points="704.3,296.4 706.5,296.4 706.5,294.1 706.5,292.1 706.5,289 689.7,289 689.7,292.1 689.7,294.1 
					689.7,296.4 691.9,296.4 				"/>
				<polygon class="st16" points="725.2,296.4 727.4,296.4 727.4,294.1 727.4,292.1 727.4,289 710.6,289 710.6,292.1 710.6,294.1 
					710.6,296.4 712.8,296.4 				"/>
				<polygon class="st16" points="745.5,296.4 747.7,296.4 747.7,289 730.9,289 730.9,296.4 733.1,296.4 				"/>
				<polygon class="st16" points="759.8,296.4 762.1,296.4 762.1,294.1 762.1,292.1 762.1,289 751.7,289 751.7,292.1 751.7,294.1 
					751.7,296.4 753.9,296.4 				"/>
				<polygon class="st16" points="765.1,289 765.1,292.1 765.1,294.1 765.1,296.4 767.4,296.4 773.3,296.4 775.5,296.4 775.5,294.1 
					775.5,292.1 775.5,289 				"/>
				<polygon class="st16" points="755.3,308.4 755.3,306.2 755.3,301.9 755.3,299.6 753,299.6 742.4,299.6 740.1,299.6 740.1,301.9 
					740.1,306.2 740.1,308.4 742.4,308.4 753,308.4 				"/>
				<polygon class="st16" points="735.7,308.4 735.7,299.6 733.4,299.6 722.8,299.6 720.6,299.6 720.6,301.9 720.6,306.2 
					720.6,308.4 722.8,308.4 733.4,308.4 				"/>
				<polygon class="st16" points="713.5,308.4 715.8,308.4 715.8,306.2 715.8,301.9 715.8,299.6 713.5,299.6 702.9,299.6 
					700.6,299.6 700.6,301.9 700.6,306.2 700.6,308.4 702.9,308.4 				"/>
				<path class="st16" d="M692.8,308.4h2.2v-2.2l0,0v-4.3l0,0v-2.2h-2.2h-10.6H680v2.2v4.3v2.2h2.2H692.8z"/>
				<polygon class="st16" points="672.9,308.4 675.1,308.4 675.1,299.6 672.9,299.6 662.2,299.6 660,299.6 660,301.9 660,306.2 
					660,308.4 662.2,308.4 				"/>
				<polygon class="st16" points="652.5,308.4 654.7,308.4 654.7,306.2 654.7,301.9 654.7,299.6 652.5,299.6 641.8,299.6 
					639.6,299.6 639.6,308.4 641.8,308.4 				"/>
				<path class="st16" d="M621.9,308.4h10.6h2.2v-2.2v-4.3v-2.2h-2.2h-10.6h-2.2v2.2l0,0v4.3l0,0v2.2H621.9z"/>
				<polygon class="st16" points="621.1,331.5 621.1,322.7 618.9,322.7 608.2,322.7 606,322.7 606,331.5 608.2,331.5 618.9,331.5 
									"/>
				<path class="st16" d="M628.2,331.5h10.6h2.4v-8.8h-2.4h-10.6h-2.1v1.6c-0.1,0.2-0.1,0.4-0.1,0.7v4.3c0,0.2,0.1,0.4,0.1,0.7v1.6
					L628.2,331.5L628.2,331.5z"/>
				<path class="st16" d="M636.7,319.8h2.2V311h-2.2l0,0H626l0,0h-2.2v8.8h2.2H636.7z"/>
				<path class="st16" d="M657.1,319.8h2.2V311h-2.2l0,0h-10.6l0,0h-2.2v8.8h2.2H657.1z"/>
				<polygon class="st16" points="659.2,331.5 661.5,331.5 661.5,329.2 661.5,324.9 661.5,322.7 659.2,322.7 648.6,322.7 
					646.3,322.7 646.3,324.9 646.3,329.2 646.3,331.5 648.6,331.5 				"/>
				<path class="st16" d="M677,319.8h2.2v-2.2v-4.3V311H677l0,0h-10.6l0,0h-2.2v2.2v4.3v2.2h2.2L677,319.8L677,319.8z"/>
				<path class="st16" d="M679.2,331.5h2.2v-2.2l0,0V325l0,0v-2.2h-2.2h-10.6h-2.2v2.2v4.3v2.2h2.2H679.2z"/>
				<path class="st16" d="M697.7,319.8h2.2V311h-2.2l0,0H687l0,0h-2.2v8.8h2.2H697.7z"/>
				<polygon class="st16" points="699.8,331.5 702.1,331.5 702.1,329.2 702.1,324.9 702.1,322.7 699.8,322.7 689.2,322.7 687,322.7 
					687,324.9 687,329.2 687,331.5 689.2,331.5 				"/>
				<path class="st16" d="M717.6,319.8h2.2V311h-2.2l0,0H707l0,0h-2.2v2.2v4.3v2.2h2.2L717.6,319.8L717.6,319.8z"/>
				<path class="st16" d="M722,322.7h-2.2h-10.6H707v2.2v4.3v2.2h2.2h10.6h2.2v-2.2l0,0v-4.3l0,0V322.7z"/>
				<path class="st16" d="M737.2,319.8h2.2V311h-2.2l0,0h-10.6l0,0h-2.2v2.2v4.3v2.2h2.2L737.2,319.8L737.2,319.8z"/>
				<polygon class="st16" points="728.7,322.7 726.5,322.7 726.5,331.5 728.7,331.5 739.3,331.5 741.6,331.5 741.6,322.7 
					739.3,322.7 				"/>
				<polygon class="st16" points="729.2,334.2 726.9,334.2 726.9,336.4 726.9,340.6 726.9,342.9 729.2,342.9 737.1,342.9 
					739.4,342.9 739.4,340.6 739.4,336.4 739.4,334.2 737.1,334.2 				"/>
				<polygon class="st16" points="746.5,334.2 744.3,334.2 744.3,336.4 744.3,340.6 744.3,342.9 746.5,342.9 754.5,342.9 
					756.8,342.9 756.8,340.6 756.8,336.4 756.8,334.2 754.5,334.2 				"/>
				<polygon class="st16" points="765.3,334.2 763,334.2 763,336.4 763,340.6 763,342.9 765.3,342.9 773.3,342.9 775.5,342.9 
					775.5,340.6 775.5,336.4 775.5,334.2 773.3,334.2 				"/>
				<path class="st16" d="M762.3,303.1h-2.2v2.1c0,0.1,0,0.1,0,0.2v8.1H747v2.4v7.2v0.7v3.7v2.2h2.2h10.9h5h8.1h2.2v-2.2V323v-1.1
					v-16.6v-2.2h-2.2L762.3,303.1L762.3,303.1z"/>
				<polygon class="st16" points="613.5,308.8 615.7,308.8 615.7,306.6 615.7,301.9 615.7,299.6 613.5,299.6 589.2,299.6 587,299.6 
					587,301.9 587,306.6 587,308.8 589.2,308.8 				"/>
				<polygon class="st16" points="596.5,319.8 598.8,319.8 598.8,317.6 598.8,317.6 598.8,314.2 598.8,314.2 598.8,312 596.5,312 
					589.2,312 587,312 587,314.2 587,317.6 587,319.8 589.2,319.8 				"/>
				<polygon class="st16" points="600.3,331.5 602.5,331.5 602.5,329.2 602.5,325.8 602.5,323.6 600.3,323.6 589.2,323.6 587,323.6 
					587,325.8 587,329.2 587,331.5 589.2,331.5 				"/>
				<polygon class="st16" points="606,334.2 603.8,334.2 589.2,334.2 587,334.2 587,336.4 587,340.6 587,342.9 589.2,342.9 
					603.8,342.9 606,342.9 606,340.6 606,340.6 606,336.4 606,336.4 				"/>
				<polygon class="st16" points="612.4,334.2 610.2,334.2 610.2,336.4 610.2,340.6 610.2,342.9 612.4,342.9 626.9,342.9 
					629.2,342.9 629.2,340.6 629.2,336.4 629.2,334.2 626.9,334.2 				"/>
				<polygon class="st16" points="635.9,334.2 633.6,334.2 633.6,336.4 633.6,340.6 633.6,342.9 635.9,342.9 719.6,342.9 
					721.8,342.9 721.8,340.6 721.8,336.4 721.8,334.2 719.6,334.2 				"/>
			</g>
		</g>
		<g>
			<path class="st16" d="M671.8,276h-3.4v-17.3c0-0.1-0.3-4.4,2.6-7.5c1.9-2,4.5-3,7.9-3h30.2v3.4H679c-2.4,0-4.2,0.6-5.4,1.9
				c-1.9,2-1.7,5-1.7,5.1L671.8,276z"/>
		</g>
	</g>
</g>
<g class="st17">
</g>
<g class="st17">
	<path class="st18" d="M81.7,191.3v6.9H69.3l-9.2-17.8h-4.7v11h5.1v6.9H39.2v-6.9h5.6v-27h-5.6v-6.9h24.6c4.6,0,8,1.2,10,3.5
		c2,2.3,3.1,5,3.1,7.9c0,4.6-2.4,8-7.1,10.1l6.6,12.3H81.7z M55.4,173.9h3.6c4.5,0,6.7-1.6,6.7-4.8c0-1.6-0.5-2.8-1.5-3.5
		s-2.4-1.2-4.2-1.2h-4.6V173.9z"/>
	<path class="st18" d="M106.6,189.7l7,2.3c-2.9,4.6-7.6,6.9-13.8,6.9c-5,0-8.9-1.3-11.7-4c-2.8-2.6-4.2-6.1-4.2-10.4
		c0-4.4,1.4-8,4.3-11c2.9-2.9,6.6-4.4,11-4.4c3.2,0,6,0.8,8.4,2.5c2.4,1.6,4,3.7,4.9,6.1c0.9,2.4,1.4,5.2,1.4,8.2H92.9
		c0.1,2.6,1,4.4,2.4,5.5s3.1,1.6,4.7,1.6C102.2,193,104.4,191.9,106.6,189.7z M104.9,180.9c-0.2-1.6-0.8-2.9-1.9-4
		c-1-1.1-2.4-1.7-4.2-1.7c-3.3,0-5.3,1.9-5.8,5.7H104.9z"/>
	<path class="st18" d="M119.5,198.2v-9.8h6.6c0.1,1.3,0.7,2.4,1.8,3.2s2.6,1.2,4.3,1.2c1.5,0,2.6-0.3,3.5-0.8c0.8-0.5,1.2-1.2,1.2-2
		c0-0.7-0.4-1.3-1.1-1.7s-2.3-0.8-4.5-1.2c-4.6-0.7-7.9-1.9-9.9-3.4s-3-3.5-3-6c0-2.3,1-4.3,2.9-5.9c1.9-1.6,4.5-2.4,7.6-2.4
		c2.6,0,5,0.5,7.2,1.4v-1h6.5v8.2h-6.5c-0.6-2-2.7-3-6.2-3c-2.6,0-3.9,0.7-3.9,2.2c0,0.5,0.3,1,0.8,1.2c0.5,0.3,1.9,0.6,4.1,1
		c3.5,0.6,6.1,1.2,7.9,1.8c1.7,0.6,3.1,1.6,4.2,3c1,1.4,1.6,3.1,1.6,5c0,2.8-1,5-3,6.8c-2,1.8-4.8,2.7-8.4,2.7
		c-3.4,0-5.7-0.7-6.9-2.1v1.4H119.5z"/>
	<path class="st18" d="M182.6,191.7v6.5H169v-2.4c-2.7,1.9-5.5,2.8-8.3,2.8c-2.7,0-4.9-0.8-6.4-2.3s-2.3-3.7-2.3-6.5v-13.4h-4.2
		v-6.5H161v17.7c0,1.4,0.2,2.4,0.6,2.9c0.4,0.5,1.2,0.8,2.3,0.8c1.5,0,3.2-0.7,5-2v-12.8h-4.4v-6.5h13.4v21.8H182.6z"/>
	<path class="st18" d="M185.8,176.4v-6.5h13.7v2.3c3.1-1.8,6.2-2.8,9.2-2.8c3.7,0,6.5,1.3,8.5,3.9c3.7-2.6,7.5-3.9,11.5-3.9
		c2.4,0,4.3,0.4,5.8,1.3c1.5,0.9,2.5,2,3,3.5c0.5,1.5,0.8,3.7,0.8,6.7v10.8h4.7v6.5h-13.7v-16.6c0-3-1.3-4.5-3.8-4.5
		c-2,0-4.2,0.6-6.5,1.9v12.6h4.7v6.5h-13.7v-16.3c0-3.1-1.2-4.7-3.7-4.7c-1.9,0-4.1,0.6-6.6,1.9v12.6h4.7v6.5h-18.4v-6.5h4.7v-15.3
		H185.8z"/>
	<path class="st18" d="M268.5,189.7l7,2.3c-2.9,4.6-7.6,6.9-13.8,6.9c-5,0-8.9-1.3-11.7-4c-2.8-2.6-4.2-6.1-4.2-10.4
		c0-4.4,1.4-8,4.3-11c2.9-2.9,6.6-4.4,11-4.4c3.2,0,6,0.8,8.4,2.5c2.4,1.6,4,3.7,4.9,6.1c0.9,2.4,1.4,5.2,1.4,8.2h-21.1
		c0.1,2.6,1,4.4,2.4,5.5s3.1,1.6,4.7,1.6C264.1,193,266.3,191.9,268.5,189.7z M266.8,180.9c-0.2-1.6-0.8-2.9-1.9-4
		c-1-1.1-2.4-1.7-4.2-1.7c-3.3,0-5.3,1.9-5.8,5.7H266.8z"/>
</g>
<g class="st17">
</g>
<path class="st7" d="M689,131h-40c-6.6,0-12,5.4-12,12v40c0,6.6,5.4,12,12,12h40c6.6,0,12-5.4,12-12v-40
	C701,136.4,695.6,131,689,131z"/>
<g class="st17">
	<path class="st19" d="M658.2,173.8c-2.6,0-4.8-0.9-6.4-2.6s-2.4-4.1-2.4-7.2c0-3.1,0.8-5.5,2.4-7.2s3.7-2.5,6.4-2.5
		c2,0,3.7,0.5,5.1,1.5s2.2,2.5,2.4,4.5h-3.4c0-1.1-0.5-2-1.3-2.5s-1.7-0.9-2.9-0.9c-1.6,0-2.9,0.6-3.8,1.8s-1.5,3-1.5,5.4
		c0,2.4,0.5,4.2,1.5,5.4s2.3,1.8,3.8,1.8c1.1,0,2.1-0.3,2.9-0.9s1.2-1.4,1.3-2.5h3.4c-0.2,1.9-1.1,3.4-2.4,4.5
		S660.2,173.8,658.2,173.8z"/>
	<path class="st19" d="M685.8,157.3h-3.5l-1.3,6.4h3.3v2.6h-3.9l-1.4,7h-2.7l1.4-7h-5.6l-1.4,7h-2.7l1.4-7h-2.9v-2.6h3.5l1.3-6.4
		H668v-2.6h3.9l1.4-7.1h2.7l-1.4,7.1h5.6l1.4-7.1h2.7l-1.4,7.1h3V157.3z M679.7,157.3H674l-1.3,6.4h5.6L679.7,157.3z"/>
</g>
<path class="st7" d="M723,12h-61c-6.6,0-12,5.4-12,12v17c0,6.6,5.4,12,12,12h61c6.6,0,12-5.4,12-12V24C735,17.4,729.6,12,723,12z"/>
<g class="st17">
	<path class="st19" d="M670.3,42.8c-5.1,0-7.8-2-8-6h3.3c0,2.3,1.6,3.4,4.6,3.4c1.4,0,2.4-0.3,3.1-0.9s1.1-1.3,1.1-2.1
		c0-0.8-0.4-1.4-1.1-1.8s-2.2-0.8-4.4-1.3s-3.8-1.2-4.8-1.8s-1.5-1.9-1.5-3.6c0-1.5,0.6-2.8,1.9-3.8s2.9-1.5,5.1-1.5
		c4.9,0,7.4,1.7,7.5,5.2h-3.3c-0.1-1.8-1.4-2.6-4-2.6c-1.1,0-2,0.2-2.8,0.6s-1.1,1-1.1,1.8c0,0.7,0.3,1.3,0.8,1.6s2,0.8,4.2,1.3
		s3.9,1.2,5,1.9s1.6,2,1.6,3.8c0,1.7-0.7,3.1-2,4.2S672.6,42.8,670.3,42.8z"/>
	<path class="st19" d="M689.6,42.8c-2.7,0-4.9-0.9-6.6-2.6s-2.5-4.1-2.5-7.2c0-3,0.8-5.4,2.4-7.2s3.7-2.6,6.3-2.6
		c2.7,0,4.8,0.8,6.4,2.5s2.4,4.1,2.4,7.2v0.8h-14c0.1,2.2,0.7,3.8,1.8,4.8s2.3,1.6,3.9,1.6c1.2,0,2.2-0.3,3.1-0.9s1.4-1.4,1.5-2.5
		h3.4c-0.3,1.9-1.1,3.4-2.6,4.4S691.7,42.8,689.6,42.8z M694.5,31.2c-0.3-1.8-0.9-3.1-1.8-4s-2.1-1.3-3.4-1.3
		c-1.3,0-2.5,0.4-3.4,1.3s-1.6,2.2-1.8,4H694.5z"/>
	<path class="st19" d="M709.2,23.3c2.7,0,4.8,0.8,6.4,2.5s2.4,4.1,2.4,7.2c0,3.1-0.8,5.5-2.4,7.2s-3.7,2.6-6.4,2.6
		c-2.6,0-4.8-0.9-6.4-2.6s-2.4-4.1-2.4-7.2c0-3.1,0.8-5.5,2.4-7.2S706.6,23.3,709.2,23.3z M709.2,40.2c1.6,0,2.9-0.6,3.8-1.8
		s1.5-3,1.5-5.4c0-2.4-0.5-4.2-1.5-5.4s-2.3-1.8-3.8-1.8s-2.9,0.6-3.8,1.8s-1.5,3-1.5,5.4c0,2.4,0.5,4.2,1.5,5.4
		S707.6,40.2,709.2,40.2z"/>
</g>
<path class="st7" d="M1034,349H891c-6.6,0-12,5.4-12,12v14c0,6.6,5.4,12,12,12h143c6.6,0,12-5.4,12-12v-14
	C1046,354.4,1040.6,349,1034,349z"/>
<g class="st17">
	<path class="st19" d="M938.2,379.3h-3.8l-3-7.8h-10.8l-2.8,7.8h-3.6l9.9-25.8h3.7L938.2,379.3z M930.4,368.8l-4.5-12l-4.3,12H930.4
		z"/>
	<path class="st19" d="M944,363.1c1.7-1.9,3.5-2.8,5.6-2.8c4.2,0,6.3,2.3,6.3,6.9v12.2h-3.3v-12.1c0-1.5-0.3-2.6-0.8-3.3
		s-1.4-1-2.7-1c-1.7,0-3.4,1-5.1,3v13.4h-3.3v-18.7h3.3V363.1z"/>
	<path class="st19" d="M972.5,377.1c-1.5,1.8-3.3,2.7-5.3,2.7c-2.4,0-4.3-0.9-5.7-2.6s-2-4.1-2-7c0-3,0.7-5.5,2.2-7.2
		s3.4-2.7,5.6-2.7c2,0,3.7,0.6,5.1,1.9v-8.6h3.3v25.8h-3.3V377.1z M972.5,374v-8.9c-1.4-1.5-3.1-2.3-4.9-2.3c-1.4,0-2.6,0.6-3.4,1.8
		s-1.3,3-1.3,5.5c0,2.3,0.4,4,1.2,5.2s1.9,1.8,3.3,1.8C969.3,377.2,971,376.1,972.5,374z"/>
	<path class="st19" d="M990.4,363.7c-0.5-0.1-1.1-0.2-2-0.2c-1.7,0-3.1,0.9-4.3,2.7v13.2h-3.3v-18.7h3.3v2.6c1.4-2,3-3,4.9-3
		c0.5,0,1,0,1.5,0.1V363.7z"/>
	<path class="st19" d="M1000.2,360.3c2.7,0,4.8,0.8,6.4,2.5s2.4,4.1,2.4,7.2c0,3.1-0.8,5.5-2.4,7.2s-3.7,2.6-6.4,2.6
		c-2.6,0-4.8-0.9-6.4-2.6s-2.4-4.1-2.4-7.2c0-3.1,0.8-5.5,2.4-7.2S997.6,360.3,1000.2,360.3z M1000.2,377.2c1.6,0,2.9-0.6,3.8-1.8
		s1.5-3,1.5-5.4c0-2.4-0.5-4.2-1.5-5.4s-2.3-1.8-3.8-1.8s-2.9,0.6-3.8,1.8s-1.5,3-1.5,5.4c0,2.4,0.5,4.2,1.5,5.4
		S998.7,377.2,1000.2,377.2z"/>
	<path class="st19" d="M1016,357.1h-3.3v-3.6h3.3V357.1z M1016,379.3h-3.3v-18.7h3.3V379.3z"/>
	<path class="st19" d="M1032.7,377.1c-1.5,1.8-3.3,2.7-5.3,2.7c-2.4,0-4.3-0.9-5.7-2.6s-2-4.1-2-7c0-3,0.7-5.5,2.2-7.2
		s3.4-2.7,5.6-2.7c2,0,3.7,0.6,5.1,1.9v-8.6h3.3v25.8h-3.3V377.1z M1032.7,374v-8.9c-1.4-1.5-3.1-2.3-4.9-2.3
		c-1.4,0-2.6,0.6-3.4,1.8s-1.3,3-1.3,5.5c0,2.3,0.4,4,1.2,5.2s1.9,1.8,3.3,1.8C1029.5,377.2,1031.2,376.1,1032.7,374z"/>
</g>
<g id="Android">
	<g>
		<g>
			<path class="st18" d="M883.9,361.7L883.9,361.7c-1.3,0-2.2,1-2.2,2.1v9.3c0,1.2,1,2.1,2.1,2.1h0.1c1.2,0,2.1-1,2.1-2.1v-9.3
				C886,362.7,885.1,361.7,883.9,361.7z"/>
			<path class="st18" d="M887.1,376.8c0,1.1,0.9,2,2,2h2.1v5c0,1.2,1,2.1,2.1,2.1h0.1c1.2,0,2.1-1,2.1-2.1v-5h2.9v5
				c0,1.2,1,2.1,2.1,2.1h0.1c1.2,0,2.1-1,2.1-2.1v-5h2.1c1.1,0,2-0.9,2-2V362h-19.9L887.1,376.8L887.1,376.8z"/>
			<path class="st18" d="M902,353.1l1.7-2.6c0.1-0.2,0.1-0.4-0.1-0.5c-0.2-0.1-0.4-0.1-0.5,0.1l-1.7,2.7c-1.3-0.5-2.8-0.8-4.3-0.8
				s-3,0.3-4.3,0.8l-1.7-2.7c-0.1-0.2-0.3-0.2-0.5-0.1s-0.2,0.3-0.1,0.5l1.7,2.6c-3,1.5-5.1,4.3-5.1,7.5c0,0.2,0,0.4,0,0.6h20
				c0-0.2,0-0.4,0-0.6C907,357.4,905,354.6,902,353.1z M892.4,357.8c-0.5,0-1-0.4-1-1s0.4-1,1-1c0.5,0,1,0.4,1,1
				S892.9,357.8,892.4,357.8z M901.6,357.8c-0.5,0-1-0.4-1-1s0.4-1,1-1c0.5,0,1,0.4,1,1C902.6,357.3,902.2,357.8,901.6,357.8z"/>
			<path class="st18" d="M910.2,361.7L910.2,361.7c-1.3,0-2.2,1-2.2,2.1v9.3c0,1.2,1,2.1,2.1,2.1h0.1c1.2,0,2.1-1,2.1-2.1v-9.3
				C912.4,362.7,911.4,361.7,910.2,361.7z"/>
		</g>
	</g>
</g>
<path id="cloud" class="st18" d="M878.8,26.4c-1.1,0-2.3,0.2-3.3,0.5c-1-6.3-6.4-11.1-12.9-11.1s-12,4.8-12.9,11.1
	c-1-0.3-2.1-0.5-3.3-0.5c-6.2,0-11.3,5.1-11.3,11.3s5,11.3,11.2,11.3h32.5c6.2,0,11.3-5.1,11.3-11.3C890.1,31.4,885,26.4,878.8,26.4
	z"/>
<g id="wifi">
	<path class="st18" d="M1164.1,44c-1.6,0-2.8,1.3-2.8,2.8c0,1.6,1.3,2.8,2.8,2.8s2.8-1.3,2.8-2.8S1165.6,44,1164.1,44z M1185.8,22.9
		c-5.8-5.4-13.5-8.4-21.8-8.4s-16,3-21.8,8.5c-1,1-1,2.5,0,3.5c0.5,0.5,1.2,0.7,1.9,0.7s1.3-0.2,1.9-0.7c4.8-4.5,11.2-6.7,18.1-6.7
		c6.8,0,13.2,2.2,18.1,6.7c1,1,2.7,1,3.7,0C1186.8,25.4,1186.8,23.8,1185.8,22.9z M1164,24.3c-6.1,0-11.8,2.3-16.1,6.6
		c-1.1,1.1-1.1,2.8,0,3.9c0.5,0.5,1.2,0.8,1.9,0.8s1.4-0.3,1.9-0.8c3.3-3.2,7.6-5.2,12.2-5.2s8.9,2,12.2,5.2c1.1,1.1,2.8,1.1,3.9,0
		s1.1-2.8,0-3.9C1175.8,26.6,1170.1,24.3,1164,24.3z M1164,34.1c-3.4,0-6.7,1.4-9.1,3.9c-1,1-1,2.7,0,3.8c0.5,0.5,1.2,0.8,1.8,0.8
		c0.7,0,1.3-0.3,1.8-0.8c1.5-1.5,3.4-2.4,5.5-2.4s4,0.9,5.5,2.4c1,1,2.6,1,3.6,0s1-2.7,0-3.8C1170.7,35.5,1167.5,34.1,1164,34.1z"/>
</g>
<g id="git">
	<path class="st8" d="M821.5,354.3l-15.9-15.9c-0.9-0.9-2.4-0.9-3.3,0l-3.3,3.3l4.2,4.2c1-0.3,2.1-0.1,2.9,0.7
		c0.8,0.8,1,1.9,0.7,2.9l4,4c1-0.3,2.1-0.1,2.9,0.7c1.1,1.1,1.1,2.9,0,4s-2.9,1.1-4,0c-0.8-0.8-1-2-0.6-3l-3.8-3.8v9.9
		c0.3,0.1,0.5,0.3,0.7,0.5c1.1,1.1,1.1,2.9,0,4s-2.9,1.1-4,0s-1.1-2.9,0-4c0.3-0.3,0.6-0.5,0.9-0.6v-10c-0.3-0.1-0.6-0.3-0.9-0.6
		c-0.8-0.8-1-2-0.6-3.1l-4.1-4.1l-10.9,10.9c-0.9,0.9-0.9,2.4,0,3.3l15.9,15.9c0.9,0.9,2.4,0.9,3.3,0l15.9-15.9
		C822.4,356.7,822.4,355.2,821.5,354.3z"/>
</g>
<path class="st7" d="M1050,14H913c-6.6,0-12,5.4-12,12v12c0,6.6,5.4,12,12,12h137c6.6,0,12-5.4,12-12V26
	C1062,19.4,1056.6,14,1050,14z"/>
<g class="st17">
	<path class="st19" d="M923.5,40.1c-1.5,1.8-3.3,2.7-5.3,2.7c-2.4,0-4.3-0.9-5.7-2.6s-2-4.1-2-7c0-3,0.7-5.5,2.2-7.2
		s3.4-2.7,5.6-2.7c2,0,3.7,0.6,5.1,1.9v-8.6h3.3v25.8h-3.3V40.1z M923.5,37v-8.9c-1.4-1.5-3.1-2.3-4.9-2.3c-1.4,0-2.6,0.6-3.4,1.8
		s-1.3,3-1.3,5.5c0,2.3,0.4,4,1.2,5.2s1.9,1.8,3.3,1.8C920.3,40.2,921.9,39.1,923.5,37z"/>
	<path class="st19" d="M943.5,40.4c-1.7,1.6-3.9,2.4-6.5,2.4c-1.9,0-3.4-0.5-4.6-1.5s-1.8-2.3-1.8-3.9c0-4.4,3.8-6.5,11.3-6.5h1.6
		c0-1.3-0.1-2.3-0.2-2.9s-0.5-1.1-1.2-1.5s-1.7-0.6-3.1-0.6c-3,0-4.5,1.1-4.6,3.2h-3.3c0.2-3.8,2.9-5.7,8.1-5.7
		c2.4,0,4.3,0.5,5.6,1.4s2,2.8,2,5.6v12.1h-3.3V40.4z M943.5,37.4v-4.1h-2.3c-4.8,0-7.2,1.3-7.2,3.9c0,0.9,0.4,1.7,1.1,2.2
		s1.7,0.8,2.8,0.8c1.1,0,2.1-0.2,3.2-0.7S942.9,38.3,943.5,37.4z"/>
	<path class="st19" d="M958.9,42.4c-0.7,0.1-1.5,0.2-2.4,0.2c-1.4,0-2.4-0.2-3-0.7s-1-1.1-1.2-1.9s-0.2-1.8-0.2-3.1V26.3h-2.3v-2.6
		h2.3V19h3.3v4.6h3v2.6h-3V37c0,1.3,0.2,2.1,0.5,2.4s0.8,0.5,1.3,0.5c0.6,0,1.1,0,1.7-0.1V42.4z"/>
	<path class="st19" d="M973.5,40.4c-1.7,1.6-3.9,2.4-6.5,2.4c-1.9,0-3.4-0.5-4.6-1.5s-1.8-2.3-1.8-3.9c0-4.4,3.8-6.5,11.3-6.5h1.6
		c0-1.3-0.1-2.3-0.2-2.9s-0.5-1.1-1.2-1.5s-1.7-0.6-3.1-0.6c-3,0-4.5,1.1-4.6,3.2h-3.3c0.2-3.8,2.9-5.7,8.1-5.7
		c2.4,0,4.3,0.5,5.6,1.4s2,2.8,2,5.6v12.1h-3.3V40.4z M973.5,37.4v-4.1h-2.3c-4.8,0-7.2,1.3-7.2,3.9c0,0.9,0.4,1.7,1.1,2.2
		s1.7,0.8,2.8,0.8c1.1,0,2.1-0.2,3.2-0.7S972.9,38.3,973.5,37.4z"/>
	<path class="st19" d="M985,25.9c1.5-1.8,3.3-2.7,5.3-2.7c2.4,0,4.3,0.9,5.7,2.6s2,4.1,2,7c0,3.1-0.7,5.5-2.2,7.3s-3.4,2.7-5.7,2.7
		c-2,0-3.7-0.6-5.1-1.9v1.4h-3.3V16.6h3.3V25.9z M985,37.9c1.4,1.5,3,2.3,4.9,2.3c1.4,0,2.6-0.6,3.4-1.8s1.3-3,1.3-5.5
		c0-2.3-0.4-4-1.2-5.2s-1.9-1.8-3.3-1.8c-1.8,0-3.5,1.1-5,3.2V37.9z"/>
	<path class="st19" d="M1013.5,40.4c-1.7,1.6-3.9,2.4-6.5,2.4c-1.9,0-3.4-0.5-4.6-1.5s-1.8-2.3-1.8-3.9c0-4.4,3.8-6.5,11.3-6.5h1.6
		c0-1.3-0.1-2.3-0.2-2.9s-0.5-1.1-1.2-1.5s-1.7-0.6-3.1-0.6c-3,0-4.5,1.1-4.6,3.2h-3.3c0.2-3.8,2.9-5.7,8.1-5.7
		c2.4,0,4.3,0.5,5.6,1.4s2,2.8,2,5.6v12.1h-3.3V40.4z M1013.5,37.4v-4.1h-2.3c-4.8,0-7.2,1.3-7.2,3.9c0,0.9,0.4,1.7,1.1,2.2
		s1.7,0.8,2.8,0.8c1.1,0,2.1-0.2,3.2-0.7S1013,38.3,1013.5,37.4z"/>
	<path class="st19" d="M1028.4,42.8c-5.1,0-7.8-2-8-6h3.3c0,2.3,1.6,3.4,4.6,3.4c1.4,0,2.4-0.3,3.1-0.9s1.1-1.3,1.1-2.1
		c0-0.8-0.4-1.4-1.1-1.8s-2.2-0.8-4.4-1.3s-3.8-1.2-4.8-1.8s-1.5-1.9-1.5-3.6c0-1.5,0.6-2.8,1.9-3.8s2.9-1.5,5.1-1.5
		c4.9,0,7.4,1.7,7.5,5.2h-3.3c-0.1-1.8-1.4-2.6-4-2.6c-1.1,0-2,0.2-2.8,0.6s-1.1,1-1.1,1.8c0,0.7,0.3,1.3,0.8,1.6s2,0.8,4.2,1.3
		s3.9,1.2,5,1.9s1.6,2,1.6,3.8c0,1.7-0.7,3.1-2,4.2S1030.7,42.8,1028.4,42.8z"/>
	<path class="st19" d="M1047.7,42.8c-2.7,0-4.9-0.9-6.6-2.6s-2.5-4.1-2.5-7.2c0-3,0.8-5.4,2.4-7.2s3.7-2.6,6.3-2.6
		c2.7,0,4.8,0.8,6.4,2.5s2.4,4.1,2.4,7.2v0.8h-14c0.1,2.2,0.7,3.8,1.8,4.8s2.3,1.6,3.9,1.6c1.2,0,2.2-0.3,3.1-0.9s1.4-1.4,1.5-2.5
		h3.4c-0.3,1.9-1.1,3.4-2.6,4.4S1049.8,42.8,1047.7,42.8z M1052.6,31.2c-0.3-1.8-0.9-3.1-1.8-4s-2.1-1.3-3.4-1.3
		c-1.3,0-2.5,0.4-3.4,1.3s-1.6,2.2-1.8,4H1052.6z"/>
</g>
<path class="st7" d="M803,54h-40c-6.6,0-12,5.4-12,12v40c0,6.6,5.4,12,12,12h40c6.6,0,12-5.4,12-12V66C815,59.4,809.6,54,803,54z"/>
<g class="st17">
	<path class="st8" d="M763.2,97.8c-2.6,0-4.8-0.9-6.4-2.6s-2.4-4.1-2.4-7.2c0-3.1,0.8-5.5,2.4-7.2s3.7-2.5,6.4-2.5
		c2,0,3.7,0.5,5.1,1.5s2.2,2.5,2.4,4.5h-3.4c0-1.1-0.5-2-1.3-2.5s-1.7-0.9-2.9-0.9c-1.6,0-2.9,0.6-3.8,1.8s-1.5,3-1.5,5.4
		c0,2.4,0.5,4.2,1.5,5.4s2.3,1.8,3.8,1.8c1.1,0,2.1-0.3,2.9-0.9s1.2-1.4,1.3-2.5h3.4c-0.2,1.9-1.1,3.4-2.4,4.5
		S765.2,97.8,763.2,97.8z"/>
	<path class="st8" d="M790.2,86.1h-7v7h-3v-7h-7v-3h7v-7h3v7h7V86.1z"/>
	<path class="st8" d="M811.3,86.1h-7v7h-3v-7h-7v-3h7v-7h3v7h7V86.1z"/>
</g>
<path class="st8" d="M871,65.5c-0.4-0.5-1.1-0.6-1.5-0.2c-0.2,0.2-1,0.9-1.8,1.8v-8.9c0-0.6-0.5-1.1-1.1-1.1s-1.1,0.5-1.1,1.1v9.1
	l-1.7-1.7c-0.4-0.4-1.1-0.4-1.6,0c-0.4,0.4-0.4,1.1,0,1.6l3.5,3.5c0.2,0.2,0.5,0.3,0.8,0.3l0,0l0,0l0,0c0.4,0,0.8-0.3,1-0.6
	c1.5-1.5,3-3.1,3.3-3.3C871.2,66.7,871.3,66,871,65.5z"/>
<path class="st10" d="M863.2,60.9l-3.5-3.5c-0.2-0.2-0.5-0.3-0.8-0.3l0,0l0,0c-0.4,0-0.8,0.3-1,0.6c-1.5,1.5-3,3-3.3,3.3
	c-0.5,0.4-0.6,1-0.2,1.5c0.2,0.3,0.5,0.4,0.9,0.4c0.2,0,0.5-0.1,0.7-0.2c0.2-0.2,1-0.9,1.8-1.8v8.9c0,0.6,0.5,1.1,1.1,1.1
	s1.1-0.5,1.1-1.1v-9.1l1.7,1.7c0.4,0.4,1.1,0.4,1.6,0C863.6,62,863.6,61.3,863.2,60.9z"/>
<g>
	<path class="st18" d="M1137.6,368.1c0,2.2-0.6,5.2-1,6.3c-0.2,0.5-0.9,2.2-1.8,3.8c-1,1.7-2.1,3.3-2.1,3.3l-3,4.1
		c0,0-2,2.6-4.3,3.7c-0.7,0.3-1.4,0.5-2.2,0.5c-0.8,0-1.5-0.2-2.2-0.5c-2.3-1.1-4.3-3.7-4.3-3.7l-3-4.1c0,0-1.1-1.5-2.1-3.3
		c-0.9-1.5-1.6-3.2-1.8-3.8c-0.3-1.1-0.9-4.1-1-6.3c0-1.4,0.2-3.6,0.5-5.6c0.2-1,0.4-1.9,0.5-2.6c0.3-1.3,1.1-3.4,2.1-5.1
		c0.7-1.2,1.5-2.1,2.4-2.7c1-0.8,2.4-1.6,3.9-2.2c0.7-0.3,1.4-0.5,2.1-0.6c1.8-0.4,3.8-0.4,5.5,0c0.6,0.1,1.4,0.3,2.1,0.6
		c1.4,0.5,2.8,1.3,3.9,2.2c0.9,0.7,1.7,1.6,2.4,2.7c1,1.7,1.8,3.8,2.1,5.1c0.2,0.7,0.4,1.6,0.5,2.6
		C1137.3,364.4,1137.6,366.6,1137.6,368.1z M1119.5,375.1c-0.6-0.9-1.2-1.8-2.1-2.5c-0.7-0.6-2.1-1.4-3.1-1.8
		c-1.8-0.6-2.9-0.5-3.5-0.8c0,0.5,0,2.2,0.4,3.8c0.5,1.6,1.4,3.1,2.5,4.2c1.3,1.2,3,2.2,4.5,2.7c1.8,0.5,3.4,0.4,3.7,0.4
		C1121.8,380.7,1121.2,377.8,1119.5,375.1z M1135.8,370c-0.6,0.3-1.7,0.1-3.5,0.8c-1,0.4-2.4,1.2-3.1,1.8c-0.8,0.7-1.5,1.6-2.1,2.5
		c-1.7,2.7-2.3,5.7-2.4,6c0.3,0,1.9,0.2,3.7-0.4c1.5-0.4,3.2-1.4,4.5-2.7c1.2-1.1,2.1-2.6,2.5-4.2
		C1135.8,372.2,1135.8,370.6,1135.8,370z"/>
</g>
</svg>
