<?xml version="1.0" encoding="utf-8"?>
<!-- Generator: Adobe Illustrator 21.0.0, SVG Export Plug-In . SVG Version: 6.00 Build 0)  -->
<svg version="1.1" id="Layer_1" xmlns="http://www.w3.org/2000/svg" xmlns:xlink="http://www.w3.org/1999/xlink" x="0px" y="0px" width="32px" height="32px"
	 viewBox="0 0 175.9 175.9" style="enable-background:new 0 0 175.9 175.9;" xml:space="preserve">
<style type="text/css">
	.st0{fill:#007BB5;}
	.st1{fill:#FFFFFF;}
</style>
<g>
	<g>
		<path class="st0" d="M175.9,139.8c0,20-16.2,36.1-36.1,36.1H36.1c-20,0-36.1-16.2-36.1-36.1V36.1C0,16.2,16.2,0,36.1,0h103.6
			c20,0,36.1,16.2,36.1,36.1V139.8z"/>
		<g>
			<path class="st1" d="M26.4,66.6h26.4v84.9H26.4V66.6z M39.6,24.4c8.4,0,15.3,6.9,15.3,15.3C54.9,48.1,48,55,39.6,55
				c-8.5,0-15.3-6.8-15.3-15.3C24.3,31.2,31.1,24.4,39.6,24.4"/>
			<path class="st1" d="M69.3,66.6h25.3v11.6H95c3.5-6.7,12.1-13.7,25-13.7c26.7,0,31.7,17.6,31.7,40.5v46.6h-26.4v-41.3
				c0-9.8-0.2-22.5-13.7-22.5c-13.7,0-15.8,10.7-15.8,21.8v42H69.3V66.6z"/>
		</g>
	</g>
</g>
</svg>
