<svg xmlns="http://www.w3.org/2000/svg" viewBox="0 0 64 64"><title>monitor-article</title><g id="monitor-article"><rect x="2" y="12"  fill="#58dcf3"/><rect x="5" y="15" width="28px" height="28px" fill="#00c9e0"/><polyline points="37 54.86 37 62 27 62 27 54.86" fill="none" stroke="#3e3948" stroke-miterlimit="10" stroke-width="2"/><line x1="23" y1="62" x2="27" y2="62" fill="none" stroke="#3e3948" stroke-miterlimit="10" stroke-width="2"/><line x1="37" y1="62" x2="41" y2="62" fill="none" stroke="#3e3948" stroke-miterlimit="10" stroke-width="2"/><line x1="31" y1="52" x2="33" y2="52" fill="none" stroke="#3e3948" stroke-linejoin="round" stroke-width="2"/><polyline points="10 49 10 2 54 2 54 49" fill="#fff"/><polyline points="10 48 10 2 54 2 54 48" fill="none" stroke="#3e3948" stroke-miterlimit="10" stroke-width="2"/><rect x="16" y="8" width="32" height="10" fill="#ffcb47"/><rect x="14" y="6" width="36" height="14" fill="none" stroke="#3e3948" stroke-miterlimit="10" stroke-width="2"/><line x1="31" y1="13" x2="33" y2="13" fill="none" stroke="#3e3948" stroke-miterlimit="10" stroke-width="2"/><line x1="35" y1="13" x2="37" y2="13" fill="none" stroke="#3e3948" stroke-miterlimit="10" stroke-width="2"/><line x1="27" y1="13" x2="29" y2="13" fill="none" stroke="#3e3948" stroke-miterlimit="10" stroke-width="2"/><line x1="13" y1="25" x2="31" y2="25" fill="none" stroke="#3e3948" stroke-miterlimit="10" stroke-width="2"/><line x1="33" y1="25" x2="51" y2="25" fill="none" stroke="#3e3948" stroke-miterlimit="10" stroke-width="2"/><line x1="13" y1="29" x2="31" y2="29" fill="none" stroke="#3e3948" stroke-miterlimit="10" stroke-width="2"/><line x1="33" y1="29" x2="51" y2="29" fill="none" stroke="#3e3948" stroke-miterlimit="10" stroke-width="2"/><line x1="13" y1="33" x2="31" y2="33" fill="none" stroke="#3e3948" stroke-miterlimit="10" stroke-width="2"/><line x1="33" y1="33" x2="51" y2="33" fill="none" stroke="#3e3948" stroke-miterlimit="10" stroke-width="2"/><rect x="34" y="37" width="10" height="8" fill="#ccc"/><rect x="14" y="37" width="10" height="8" fill="#ff504d"/><rect x="14" y="37" width="10" height="8" fill="none" stroke="#3e3948" stroke-miterlimit="10" stroke-width="2"/><rect x="34" y="37" width="10" height="8" fill="none" stroke="#3e3948" stroke-miterlimit="10" stroke-width="2"/><line x1="27" y1="37" x2="31" y2="37" fill="none" stroke="#3e3948" stroke-miterlimit="10" stroke-width="2"/><line x1="27" y1="41" x2="31" y2="41" fill="none" stroke="#3e3948" stroke-miterlimit="10" stroke-width="2"/><line x1="27" y1="45" x2="31" y2="45" fill="none" stroke="#3e3948" stroke-miterlimit="10" stroke-width="2"/><line x1="47" y1="37" x2="51" y2="37" fill="none" stroke="#3e3948" stroke-miterlimit="10" stroke-width="2"/><line x1="47" y1="41" x2="51" y2="41" fill="none" stroke="#3e3948" stroke-miterlimit="10" stroke-width="2"/><line x1="47" y1="45" x2="51" y2="45" fill="none" stroke="#3e3948" stroke-miterlimit="10" stroke-width="2"/><line x1="2" y1="49" x2="62" y2="49" fill="none" stroke="#3e3948" stroke-linejoin="round" stroke-width="2"/><polyline points="8 12 2 12 2 54.86 62 54.86 62 12 56 12" fill="none" stroke="#3e3948" stroke-linejoin="round" stroke-width="2"/></g></svg>