<?xml version="1.0" encoding="utf-8"?>
<!-- Generator: Adobe Illustrator 21.0.0, SVG Export Plug-In . SVG Version: 6.00 Build 0)  -->
<svg version="1.1" id="Layer_1" xmlns="http://www.w3.org/2000/svg" xmlns:xlink="http://www.w3.org/1999/xlink" x="0px" y="0px" width="80px" height="80px"
	 viewBox="0 0 1600 1600" style="enable-background:new 0 0 1600 1600;" xml:space="preserve">
<style type="text/css">
	.st0{fill:#3D80A5;}
	.st1{fill:#EFEFEF;}
	.st2{fill-rule:evenodd;clip-rule:evenodd;fill:#154F77;}
	.st3{fill-rule:evenodd;clip-rule:evenodd;fill:#0D3858;}
	.st4{fill-rule:evenodd;clip-rule:evenodd;fill:#FFFEFE;}
	.st5{opacity:0.1;}
	.st6{fill:#AEC647;}
	.st7{fill:#F3AE1B;}
	.st8{fill:#DF3F11;}
	.st9{fill:#BCDEDE;}
	.st10{fill:#C84119;}
	.st11{fill:#6BB5CE;}
	.st12{fill:#00D0E5;}
	.st13{fill:#FF81ED;}
	.st14{fill:#00C982;}
	.st15{opacity:0.7;}
	.st16{opacity:0.4;}
	.st17{fill-rule:evenodd;clip-rule:evenodd;fill:#0B2E44;}
	.st18{opacity:0.8;fill-rule:evenodd;clip-rule:evenodd;fill:#FFFFFF;}
	.st19{fill:#424242;}
	.st20{opacity:0.2;fill-rule:evenodd;clip-rule:evenodd;fill:#FFFFFF;}
	.st21{opacity:0.1;fill:#FFFFFF;}
	.st22{fill:#D0EDFA;}
	.st23{fill:#FF651F;}
	.st24{fill:#0051C4;}
	.st25{fill:#E46400;}
	.st26{fill:#C0003B;}
	.st27{fill:#FFEA50;}
	.st28{fill:#FF2C0D;}
	.st29{fill:#FF1A2C;}
	.st30{fill:#FF2C4D;}
	.st31{fill:#FFD74C;}
	.st32{opacity:0.2;}
	.st33{fill:#4C4C4B;}
	.st34{fill:#6CD2EA;}
	.st35{fill:#F7674F;}
	.st36{fill:#FFF064;}
	.st37{fill:#4F4E4F;}
	.st38{fill:#1E2F47;}
	.st39{opacity:0.4;fill:#FFFFFF;}
	.st40{opacity:0.1;fill-rule:evenodd;clip-rule:evenodd;}
	.st41{fill:#0B2E44;}
	.st42{fill:#BABABA;}
	.st43{fill:#F9B946;}
	.st44{opacity:0.5;fill:#FFFFFF;}
</style>
<g id="Application_Development">
	<g id="Background_18_">
		<circle id="Background_2_17_" class="st0" cx="800" cy="800" r="532"/>
	</g>
	<g id="Application_Development_1_">
		<g id="Line_5_">
			<g>
				<polygon class="st1" points="722.4,930.5 547.5,930.5 547.5,830.4 348.1,830.4 348.1,822.4 555.5,822.4 555.5,922.5 
					722.4,922.5 				"/>
			</g>
			<g>
				<polygon class="st1" points="781,889.8 773,889.8 773,784.5 695.9,784.5 695.9,596 703.9,596 703.9,776.5 781,776.5 				"/>
			</g>
			<g>
				<polygon class="st1" points="911.7,916 911.7,754.7 1289.6,754.7 1289.6,762.7 919.7,762.7 919.8,909.6 1005.7,909.6 
					1005.7,916 				"/>
			</g>
			<g>
				<polygon class="st1" points="1224.8,1100.8 1052,1100.8 1052,1041.7 989.1,995.2 911.7,995.2 911.7,912.8 919.7,912.8 
					919.7,987.2 991.7,987.2 1060,1037.6 1060,1092.8 1224.8,1092.8 				"/>
			</g>
			<g>
				<rect x="789.6" y="909.6" class="st1" width="122.1" height="6.4"/>
			</g>
		</g>
		<g id="Coding_1_">
			<path class="st2" d="M1044.6,610.5c0,12.7-10.3,23.1-23.1,23.1H559.9c-12.8,0-23.1-10.3-23.1-23.1V324.9
				c0-12.7,10.3-23.1,23.1-23.1h461.6c12.7,0,23.1,10.3,23.1,23.1V610.5z"/>
			<rect x="559.5" y="323.7" class="st3" width="464.4" height="286.7"/>
			<path class="st4" d="M437.5,631.9c-0.3,2-0.5,4.2-0.5,6.3c0,18.2,11.1,33,24.7,33h659.9c13.6,0,24.7-14.8,24.7-33
				c0-2.2-0.2-4.3-0.5-6.3H437.5z"/>
			<path class="st5" d="M439.2,651.6c3.8,11.6,12.5,19.7,22.6,19.7h659.9c10.1,0,18.8-8.1,22.6-19.7H439.2z"/>
			<g>
				<rect x="583.6" y="350.5" class="st6" width="116.3" height="5.8"/>
				<rect x="583.6" y="367.9" class="st7" width="116.3" height="5.8"/>
				<rect x="583.6" y="383.9" class="st8" width="116.3" height="5.8"/>
				<rect x="583.6" y="533.2" class="st6" width="116.3" height="5.8"/>
				<rect x="583.6" y="514.1" class="st6" width="116.3" height="5.8"/>
				<rect x="583.6" y="552.9" class="st6" width="116.3" height="5.8"/>
				<rect x="722.4" y="420.5" class="st7" width="116.3" height="5.8"/>
				<rect x="599.7" y="420.5" class="st6" width="116.3" height="5.8"/>
				<rect x="599.7" y="436.6" class="st7" width="116.3" height="5.8"/>
				<rect x="722.4" y="436.6" class="st6" width="54.6" height="5.8"/>
				<rect x="599.7" y="467.7" class="st6" width="116.3" height="5.8"/>
				<rect x="722.4" y="467.7" class="st7" width="54.6" height="5.8"/>
				<rect x="861.1" y="452" class="st7" width="54.6" height="5.8"/>
				<rect x="599.7" y="401.9" class="st9" width="251.2" height="5.8"/>
				<rect x="599.7" y="452" class="st9" width="251.2" height="5.8"/>
				<rect x="861.1" y="486.1" class="st6" width="54.6" height="5.8"/>
				<rect x="599.7" y="486.1" class="st6" width="251.2" height="5.8"/>
				<rect x="845" y="568.9" class="st10" width="54.6" height="5.8"/>
				<rect x="583.6" y="568.9" class="st11" width="251.2" height="5.8"/>
			</g>
			<g>
				<circle class="st12" cx="585.2" cy="641.7" r="4.6"/>
				<circle class="st13" cx="556.1" cy="641.7" r="4.6"/>
				<circle class="st14" cx="570.4" cy="641.7" r="4.6"/>
				<path class="st15" d="M544.8,641.7c0,2.3-1.9,4.2-4.2,4.2H505c-2.3,0-4.2-1.9-4.2-4.2l0,0c0-2.3,1.9-4.2,4.2-4.2h35.7
					C542.9,637.6,544.8,639.4,544.8,641.7L544.8,641.7z"/>
			</g>
			<circle class="st16" cx="791.7" cy="312.6" r="6.8"/>
		</g>
		<g id="Phone_1_">
			<path class="st17" d="M443.6,1147.5c0,7.2-5.8,13-13,13H236.8c-7.2,0-13-5.8-13-13V791c0-7.2,5.8-13,13-13h193.9
				c7.2,0,13,5.8,13,13V1147.5z"/>
			<rect x="244.1" y="823.4" class="st18" width="179.2" height="261.4"/>
			<g>
				<g id="Setting_1_">
					<ellipse class="st19" cx="288.6" cy="952.6" rx="30.1" ry="30.1"/>
					<path class="st7" d="M316.5,950.8c0,16.6-13.5,30.1-30.1,30.1c-16.6,0-30.1-13.5-30.1-30.1c0-16.6,13.5-30.1,30.1-30.1
						C303,920.7,316.5,934.2,316.5,950.8z"/>
					<g>
						<path class="st17" d="M288.6,930.9h-4.1c-0.2,0-0.4,0.2-0.4,0.4v2.1c-2.6,0.4-5,1.4-7.1,2.8l-2-2c-0.2-0.2-0.4-0.2-0.6,0
							l-2.9,2.9c-0.2,0.2-0.2,0.4,0,0.6l1.9,1.9c-1.3,1.7-2.4,3.7-3.1,5.8l-2.7-0.5c-0.2,0-0.4,0.1-0.5,0.3l-0.7,4
							c0,0.2,0.1,0.4,0.3,0.5l2.8,0.5c0,0.2,0,0.4,0,0.6c0,1.6,0.2,3.2,0.6,4.7l-2.5,1.2c-0.2,0.1-0.3,0.3-0.2,0.5l1.7,3.7
							c0.1,0.2,0.3,0.3,0.5,0.2l2.3-1.1c1,1.6,2.2,3.1,3.6,4.3l-1.2,2c-0.1,0.2,0,0.4,0.1,0.5l3.5,2c0.2,0.1,0.4,0,0.5-0.1l1-1.8
							c1.8,0.8,3.7,1.3,5.7,1.4l0.2,2c0,0.2,0.2,0.4,0.4,0.4l4.1-0.4c0.2,0,0.4-0.2,0.4-0.4l-0.2-2.1c1.9-0.5,3.7-1.3,5.2-2.4
							l1.5,1.8c0.1,0.2,0.4,0.2,0.6,0.1l3.1-2.6c0.2-0.1,0.2-0.4,0.1-0.6l-1.7-2c1.1-1.4,2.1-3,2.7-4.7l2.8,0.7
							c0.2,0.1,0.4-0.1,0.5-0.3l1.1-3.9c0.1-0.2-0.1-0.4-0.3-0.5l-2.9-0.8c0.1-0.6,0.1-1.3,0.1-1.9c0-1.1-0.1-2.3-0.3-3.3l2.8-1
							c0.2-0.1,0.3-0.3,0.2-0.5l-1.4-3.8c-0.1-0.2-0.3-0.3-0.5-0.2l-2.7,1c-0.8-1.7-1.9-3.2-3.1-4.5l1.5-2.1
							c0.1-0.2,0.1-0.4-0.1-0.5l-3.3-2.3c-0.2-0.1-0.4-0.1-0.5,0.1l-1.3,1.9c-1.6-0.9-3.5-1.6-5.4-1.9v-2.2
							C289,931.1,288.8,930.9,288.6,930.9L288.6,930.9z M286.4,942.3c4.7,0,8.5,3.8,8.5,8.5c0,4.7-3.8,8.5-8.5,8.5
							c-4.7,0-8.5-3.8-8.5-8.5C277.8,946.1,281.7,942.3,286.4,942.3L286.4,942.3z"/>
						<path class="st20" d="M286.4,939c6.5,0,11.8,5.3,11.8,11.8c0,6.5-5.3,11.8-11.8,11.8c-6.5,0-11.8-5.3-11.8-11.8
							C274.6,944.3,279.8,939,286.4,939L286.4,939z M286.4,942.3c4.7,0,8.5,3.8,8.5,8.5c0,4.7-3.8,8.5-8.5,8.5
							c-4.7,0-8.5-3.8-8.5-8.5C277.8,946.1,281.7,942.3,286.4,942.3L286.4,942.3z"/>
						<path class="st21" d="M305.9,953.5l-2.9-0.8c0.1-0.6,0.1-1.3,0.1-1.9c0-1.1-0.1-2.3-0.3-3.3l2.8-1c0.2-0.1,0.3-0.3,0.2-0.5
							l-1.4-3.8c-0.1-0.2-0.3-0.3-0.5-0.2l-2.7,1c-0.8-1.7-1.9-3.2-3.1-4.5l1.5-2.1c0.1-0.2,0.1-0.4-0.1-0.5l-3.3-2.3
							c-0.2-0.1-0.4-0.1-0.5,0.1l-1.3,1.9c-1.6-0.9-3.5-1.6-5.4-1.9v-2.2c0-0.2-0.2-0.4-0.4-0.4h-2.2v11.4c4.7,0,8.5,3.8,8.5,8.5
							c0,4.7-3.8,8.5-8.5,8.5v11.4l3.8-0.3c0.2,0,0.4-0.2,0.4-0.4l-0.2-2.1c1.9-0.5,3.7-1.3,5.2-2.4l1.5,1.8
							c0.1,0.2,0.4,0.2,0.6,0.1l3.1-2.6c0.2-0.1,0.2-0.4,0.1-0.6l-1.7-2c1.1-1.4,2.1-3,2.7-4.7l2.8,0.7c0.2,0.1,0.4-0.1,0.5-0.3
							l1.1-3.9C306.2,953.8,306.1,953.6,305.9,953.5z"/>
					</g>
				</g>
				<g id="Game_1_">
					<circle class="st19" cx="352.5" cy="919.9" r="30.1"/>
					<circle class="st22" cx="350.2" cy="917.8" r="30.1"/>
					<g id="Rocket_1_">
						<path class="st23" d="M362.6,904.9c0,0-17.6-4.6-27.6,11.6l3.5,5l3.5,5C360.6,923,362.6,904.9,362.6,904.9z"/>
						<path class="st24" d="M338.7,921.9l-0.1-0.1l-3.6-5.3c0,0-0.8,2.5-0.4,3.9l1.9,2.8l0.1,0.1l1.7,2.5c1,0.7,3.5,0.7,3.5,0.7
							L338.7,921.9z"/>
						
							<rect x="334.7" y="920.3" transform="matrix(0.8234 -0.5674 0.5674 0.8234 -464.7405 353.5346)" class="st25" width="1.8" height="6.3"/>
						<polygon class="st26" points="335.6,926.5 332.8,922.4 333.5,921.9 336.3,926.1 						"/>
						<polygon class="st27" points="342.4,910.3 331.6,910.1 336.7,917.1 						"/>
						<polygon class="st27" points="350.6,921 346.9,931.3 342.2,923.9 						"/>
						<path class="st28" d="M361.1,910.7c1.3-3.3,1.6-5.8,1.6-5.8s-2.4-0.6-6-0.6L361.1,910.7z"/>
						<polygon class="st29" points="328.2,928.6 332.4,928.3 336.6,927.9 334.2,924.5 331.8,921 330,924.8 						"/>
						<polygon class="st30" points="329.9,927.3 332.9,927.1 335.9,927 334.1,924.4 332.4,921.8 331.2,924.6 						"/>
						<polygon class="st31" points="332.1,925.8 333.7,925.9 335.3,926.1 334.1,924.4 332.9,922.6 332.5,924.2 						"/>
						<path class="st32" d="M361.1,910.7L361.1,910.7c1.1-2.7,1.4-4.8,1.5-5.5c0,0,0,0,0,0c0-0.1,0-0.2,0-0.2l0,0c0,0,0,0,0,0
							s0,0,0,0c0,0,0,0,0,0c0,0-0.1,0-0.1,0l-34.2,23.6l-0.1,0.2l4.2-0.3l4.2-0.3l-0.7-1l-0.3-0.4l0.7-0.5l0.4,0.5l1.5-1l0.2,0.2
							c1,0.7,3.5,0.7,3.5,0.7l0,0c0.6-0.1,1.1-0.2,1.7-0.4l3.2,5.1l2.6-7.3C356.1,920.5,359.4,914.9,361.1,910.7z"/>
					</g>
					<g>
						<path class="st33" d="M347.4,933.4c-0.2,0-0.3,0-0.5,0.1c-0.5-2.2-2.2-3.8-4.3-3.8c-1.5,0-2.8,0.9-3.6,2.2
							c-0.5-0.2-1.1-0.4-1.7-0.4c-2.1,0-3.8,1.7-3.8,3.8c0,0.3,0,0.6,0.1,0.9h4.7h2.7h4.2h1.7h2.6c0-0.2,0.1-0.3,0.1-0.5
							C349.6,934.4,348.6,933.4,347.4,933.4z"/>
						<path class="st34" d="M346.4,933.4c-0.2,0-0.3,0-0.5,0.1c-0.5-2.2-2.2-3.8-4.3-3.8c-1.5,0-2.8,0.9-3.6,2.2
							c-0.5-0.2-1.1-0.4-1.7-0.4c-2.1,0-3.8,1.7-3.8,3.8c0,0.3,0,0.6,0.1,0.9h4.7h2.7h4.2h1.7h2.6c0-0.2,0.1-0.3,0.1-0.5
							C348.6,934.4,347.6,933.4,346.4,933.4z"/>
						<path class="st32" d="M346.4,933.4c-0.2,0-0.3,0-0.5,0.1c-0.5-2.2-2.2-3.8-4.3-3.8c-0.1,0-0.1,0-0.2,0v6.5h2.8h1.7h2.6
							c0-0.2,0.1-0.3,0.1-0.5C348.6,934.4,347.6,933.4,346.4,933.4z"/>
					</g>
					<g>
						<path class="st33" d="M353.3,898.3c-0.3,0-0.5,0-0.8,0.1c-0.8-3.3-3.4-5.8-6.4-5.8c-2.3,0-4.2,1.3-5.5,3.4
							c-0.8-0.4-1.6-0.6-2.5-0.6c-3.2,0-5.7,2.5-5.7,5.7c0,0.4,0.1,0.9,0.1,1.3h7.1h4.1h6.4h2.5h3.9c0.1-0.2,0.1-0.5,0.1-0.8
							C356.7,899.8,355.2,898.3,353.3,898.3z"/>
						<path class="st34" d="M351.7,898.3c-0.3,0-0.5,0-0.8,0.1c-0.8-3.3-3.4-5.8-6.4-5.8c-2.3,0-4.2,1.3-5.5,3.4
							c-0.8-0.4-1.6-0.6-2.5-0.6c-3.2,0-5.7,2.5-5.7,5.7c0,0.4,0.1,0.9,0.1,1.3h7.1h4.1h6.4h2.5h3.9c0.1-0.2,0.1-0.5,0.1-0.8
							C355.1,899.8,353.6,898.3,351.7,898.3z"/>
						<path class="st32" d="M351.7,898.3c-0.3,0-0.5,0-0.8,0.1c-0.8-3.3-3.4-5.8-6.4-5.8c-0.1,0-0.2,0-0.3,0v9.8h4.2h2.5h3.9
							c0.1-0.2,0.1-0.5,0.1-0.8C355.1,899.8,353.6,898.3,351.7,898.3z"/>
					</g>
					<g>
						<path class="st33" d="M376,922.3c-0.2,0-0.4,0-0.7,0.1c-0.7-2.9-2.9-5-5.5-5c-1.9,0-3.6,1.1-4.7,2.9c-0.7-0.3-1.4-0.5-2.2-0.5
							c-2.7,0-4.9,2.2-4.9,4.9c0,0.4,0,0.8,0.1,1.1h6.1h3.5h5.5h2.2h3.4c0-0.2,0.1-0.4,0.1-0.7C378.9,923.5,377.6,922.3,376,922.3z"
							/>
						<path class="st34" d="M374.6,922.3c-0.2,0-0.4,0-0.7,0.1c-0.7-2.9-2.9-5-5.5-5c-1.9,0-3.6,1.1-4.7,2.9
							c-0.7-0.3-1.4-0.5-2.2-0.5c-2.7,0-4.9,2.2-4.9,4.9c0,0.4,0,0.8,0.1,1.1h6.1h3.5h5.5h2.2h3.4c0-0.2,0.1-0.4,0.1-0.7
							C377.5,923.5,376.2,922.3,374.6,922.3z"/>
						<path class="st32" d="M374.6,922.3c-0.2,0-0.4,0-0.7,0.1c-0.7-2.9-2.9-5-5.5-5c-0.1,0-0.2,0-0.2,0v8.4h3.6h2.2h3.4
							c0-0.2,0.1-0.4,0.1-0.7C377.5,923.5,376.2,922.3,374.6,922.3z"/>
					</g>
				</g>
				<g id="Idea_3_">
					<circle class="st19" cx="343.8" cy="992" r="30.1"/>
					<circle class="st35" cx="341.2" cy="990.3" r="30.1"/>
					<g id="Lamp_1_">
						<path class="st36" d="M341.3,983.4c-1,0-9.7,0-9.7,9.8c0,3.8,5.3,11.8,5.3,11.8h4.3h0.2h4.3c0,0,5.3-8,5.3-11.8
							C351,983.4,342.3,983.4,341.3,983.4z"/>
						<g>
							<path class="st37" d="M342.5,1005.3c0,0-0.4-1.8-0.4-5.2c0-1,0.1-1.7,0.2-2.2c-0.2,0-0.5,0-0.7,0c-0.2,0-0.3-0.1-0.4-0.2
								c-0.2,0.2-0.5,0.3-0.8,0.3c0,0,0.1,0.1,0.1,0.1c0.7,1.1,0.3,6.9,0.2,7.1l-0.3,0c0.1-1.7,0.3-6.1-0.2-7
								c-0.1-0.1-0.1-0.2-0.2-0.3c-0.1,0-0.1,0-0.2,0c-0.6,0-0.6-0.2-0.6-0.2c0-0.1,0.1-0.3,0.2-0.4c0.2-0.1,0.4,0,0.7,0.3
								c0.2,0,0.4-0.1,0.6-0.1c0.1-0.1,0.2-0.1,0.3-0.2c0,0,0,0,0,0c-0.1-0.3,0.1-0.6,0.2-0.7c0.1,0,0.1,0,0.2,0
								c0.1,0.1,0.1,0.2,0,0.5c0,0.1-0.1,0.2-0.2,0.3c0.1,0.1,0.1,0.1,0.3,0.1c0.3,0.1,0.6,0,0.8,0c0.1-0.2,0.2-0.3,0.3-0.4
								c0.2-0.1,0.4-0.1,0.5,0l0.2,0.1l-0.1,0.1c0,0-0.3,0.3-0.7,0.4c-0.2,0.4-0.3,1-0.3,2.3c0,3.3,0.4,5.1,0.4,5.1L342.5,1005.3z
								 M339.5,997.7c0,0,0.1,0,0.2,0C339.6,997.6,339.5,997.6,339.5,997.7C339.5,997.6,339.5,997.7,339.5,997.7z"/>
						</g>
						<path class="st38" d="M336.9,1005v4.6c0,0.6,0.5,1.1,1,1.1h6.7c0.6,0,1-0.5,1-1.1v-4.6H336.9z"/>
						<g>
							<path class="st21" d="M345.7,1005.7c0,0.2-0.1,0.3-0.3,0.3h-8.1c-0.2,0-0.3-0.1-0.3-0.3l0,0c0-0.2,0.1-0.3,0.3-0.3h8.1
								C345.5,1005.4,345.7,1005.5,345.7,1005.7L345.7,1005.7z"/>
							<path class="st21" d="M345.7,1006.9c0,0.2-0.1,0.3-0.3,0.3h-8.1c-0.2,0-0.3-0.1-0.3-0.3l0,0c0-0.2,0.1-0.3,0.3-0.3h8.1
								C345.5,1006.6,345.7,1006.7,345.7,1006.9L345.7,1006.9z"/>
							<path class="st21" d="M345.7,1008.1c0,0.2-0.1,0.3-0.3,0.3h-8.1c-0.2,0-0.3-0.1-0.3-0.3l0,0c0-0.2,0.1-0.3,0.3-0.3h8.1
								C345.5,1007.8,345.7,1007.9,345.7,1008.1L345.7,1008.1z"/>
							<path class="st21" d="M345.7,1009.3c0,0.2-0.1,0.3-0.3,0.3h-8.1c-0.2,0-0.3-0.1-0.3-0.3l0,0c0-0.2,0.1-0.3,0.3-0.3h8.1
								C345.5,1009,345.7,1009.1,345.7,1009.3L345.7,1009.3z"/>
							<path class="st5" d="M345.7,1006.3c0,0.2-0.1,0.3-0.3,0.3h-8.1c-0.2,0-0.3-0.1-0.3-0.3l0,0c0-0.2,0.1-0.3,0.3-0.3h8.1
								C345.5,1006,345.7,1006.1,345.7,1006.3L345.7,1006.3z"/>
							<path class="st5" d="M345.7,1007.5c0,0.2-0.1,0.3-0.3,0.3h-8.1c-0.2,0-0.3-0.1-0.3-0.3l0,0c0-0.2,0.1-0.3,0.3-0.3h8.1
								C345.5,1007.2,345.7,1007.3,345.7,1007.5L345.7,1007.5z"/>
							<path class="st5" d="M345.7,1008.7c0,0.2-0.1,0.3-0.3,0.3h-8.1c-0.2,0-0.3-0.1-0.3-0.3l0,0c0-0.2,0.1-0.3,0.3-0.3h8.1
								C345.5,1008.4,345.7,1008.5,345.7,1008.7L345.7,1008.7z"/>
							<path class="st5" d="M345.7,1009.9c0,0.2-0.1,0.3-0.3,0.3h-8.1c-0.2,0-0.3-0.1-0.3-0.3l0,0c0-0.2,0.1-0.3,0.3-0.3h8.1
								C345.5,1009.6,345.7,1009.7,345.7,1009.9L345.7,1009.9z"/>
						</g>
						<path class="st5" d="M344,983.7c1.4,3.1,4.6,12.3-0.2,21.3h1.9c0,0,5.3-8,5.3-11.8C351,986.5,346.9,984.4,344,983.7z"/>
						
							<ellipse transform="matrix(0.9432 -0.3321 0.3321 0.9432 -310.4033 167.6412)" class="st39" cx="335.2" cy="991.9" rx="1.5" ry="1"/>
						
							<ellipse transform="matrix(0.9434 -0.3318 0.3318 0.9434 -308.6727 167.816)" class="st39" cx="337.2" cy="988" rx="2.9" ry="1.9"/>
						<g>
							<polygon class="st36" points="326.4,975.1 326.7,974.8 334.9,983.1 334.6,983.4 							"/>
							<polygon class="st36" points="317.5,986.8 317.6,986.4 329.4,987.9 329.3,988.3 							"/>
							<polygon class="st36" points="318,998 317.9,997.6 329.6,995.3 329.6,995.7 							"/>
							<polygon class="st36" points="355.2,975.1 354.9,974.8 346.7,983.1 347,983.4 							"/>
							<polygon class="st36" points="364.9,987.4 364.8,987 353.1,988.6 353.1,989 							"/>
							<polygon class="st36" points="364.1,997 364.2,996.6 352.5,994.4 352.5,994.8 							"/>
							<polygon class="st36" points="341.6,981.2 341.1,981.2 340.9,969.9 341.3,969.9 							"/>
						</g>
					</g>
				</g>
			</g>
			<polygon class="st40" points="423.4,823.4 420,823.4 244.1,1074.3 244.1,1084.8 423.4,1084.8 			"/>
		</g>
		<g id="Button">
			<circle class="st41" cx="761.6" cy="933" r="87"/>
			<ellipse class="st42" cx="761.6" cy="933" rx="64.7" ry="64.6"/>
			<circle class="st41" cx="761.6" cy="933" r="43.2"/>
		</g>
		<g id="Push">
			<path class="st43" d="M667.5,1143.6l0.9,128.3c0,0,55.6,56.3,72.3,86c16.8,29.7,47.8,41.3,49.1,41.3c1.3,0,183.5,0,183.5,0
				s45.2-12.9,46.5-74.9v-210.6c0,0-27.6-52.8-54.3,0h-16.8v-32.3c0,0-32.3-50.4-60.7,0v29.7h-16.8V1059c0,0-32.3-56-59.4,0v52.1
				h-18.1V953.5c0,0-28.4-60.7-56.8,0v310.2c0,0-8-7.7-13.1-25.8l-5-60.9C718.8,1177,703.7,1114.8,667.5,1143.6z"/>
			<path class="st5" d="M756.2,928.7c-6.2,3.3-12.8,10.8-19.4,24.8v313.9l19.4-0.7V928.7z"/>
			<path class="st5" d="M817.9,1048.4c-2.1,3-4.1,6.5-6.1,10.6v52.1h-18.1V953.5c0,0-1.5-3.2-4.1-7.3v2.9V1119h28.3V1048.4z"/>
			<path class="st5" d="M892,1075.1c-1.3,1.9-2.7,4-4,6.3v29.7h-16.8V1059c0,0-2.3-3.9-6.1-8.7v64.5H892V1075.1z"/>
			<path class="st5" d="M965.5,1113.7h-16.8v-32.3c0,0-1.9-3-5.2-6.8v44.4h27.6v-14.8C969.3,1106.9,967.4,1110,965.5,1113.7z"/>
			<path class="st39" d="M679.2,1165.5c-1.3-16.1-11.6-18.1-11.6-18.1l0.2,31.6h11.4V1165.5z"/>
			<path class="st44" d="M765,938c-9.5,0-17.2,9.2-17.2,20.5h34.4C782.2,947.2,774.5,938,765,938z"/>
		</g>
		<g id="Setting">
			<path class="st19" d="M1220.2,919.2c0,59.2-48,107.2-107.2,107.2c-59.2,0-107.2-48-107.2-107.2c0-59.2,48-107.2,107.2-107.2
				C1172.2,812,1220.2,860,1220.2,919.2z"/>
			<path class="st7" d="M1212.2,912.8c0,59.2-48,107.2-107.2,107.2c-59.2,0-107.2-48-107.2-107.2c0-59.2,48-107.2,107.2-107.2
				C1164.2,805.6,1212.2,853.6,1212.2,912.8z"/>
			<g>
				<path class="st17" d="M1112.9,841.9h-14.5c-0.8,0-1.4,0.6-1.4,1.4v7.5c-9.2,1.3-17.8,4.8-25.2,10l-7.1-7.1c-0.5-0.5-1.4-0.5-2,0
					l-10.2,10.2c-0.5,0.5-0.5,1.4,0,2l6.8,6.7c-4.8,6.1-8.5,13.1-10.9,20.7l-9.7-1.7c-0.8-0.1-1.5,0.4-1.6,1.1l-2.5,14.3
					c-0.1,0.8,0.4,1.5,1.1,1.6l9.9,1.7c0,0.8,0,1.5,0,2.3c0,5.8,0.8,11.5,2.2,16.8l-8.9,4.2c-0.7,0.3-1,1.2-0.7,1.9l6.1,13.1
					c0.3,0.7,1.2,1,1.9,0.7l8.3-3.9c3.4,5.8,7.8,11,12.8,15.4l-4.1,7.2c-0.4,0.7-0.2,1.5,0.5,1.9l12.6,7.3c0.7,0.4,1.5,0.2,1.9-0.5
					l3.7-6.5c6.3,2.8,13.1,4.5,20.2,4.9l0.6,7.2c0.1,0.8,0.8,1.3,1.5,1.3l14.4-1.3c0.8-0.1,1.3-0.8,1.3-1.5l-0.6-7.3
					c6.7-1.7,13-4.6,18.6-8.5l5.4,6.4c0.5,0.6,1.4,0.7,2,0.2l11.1-9.3c0.6-0.5,0.7-1.4,0.2-2l-5.9-7.1c4-5,7.3-10.6,9.7-16.7
					l9.9,2.7c0.7,0.2,1.5-0.2,1.7-1l3.8-14c0.2-0.7-0.2-1.5-1-1.7l-10.3-2.8c0.2-2.3,0.4-4.6,0.4-6.9c0-4.1-0.4-8-1.1-11.8l10.1-3.7
					c0.7-0.3,1.1-1.1,0.8-1.8l-5-13.6c-0.3-0.7-1.1-1.1-1.8-0.8l-9.5,3.5c-2.9-5.9-6.6-11.3-11-15.9l5.3-7.6c0.4-0.6,0.3-1.5-0.3-2
					l-11.9-8.3c-0.6-0.4-1.5-0.3-1.9,0.4l-4.8,6.8c-5.9-3.4-12.3-5.7-19.2-6.9v-7.7C1114.3,842.5,1113.6,841.9,1112.9,841.9
					L1112.9,841.9z M1105,882.4c16.8,0,30.4,13.6,30.4,30.4c0,16.8-13.6,30.4-30.4,30.4c-16.8,0-30.4-13.6-30.4-30.4
					C1074.6,896,1088.2,882.4,1105,882.4L1105,882.4z"/>
				<path class="st20" d="M1105,870.7c23.3,0,42.1,18.8,42.1,42.1c0,23.2-18.8,42.1-42.1,42.1c-23.2,0-42.1-18.8-42.1-42.1
					C1062.9,889.6,1081.7,870.7,1105,870.7L1105,870.7z M1105,882.4c16.8,0,30.4,13.6,30.4,30.4c0,16.8-13.6,30.4-30.4,30.4
					c-16.8,0-30.4-13.6-30.4-30.4C1074.6,896,1088.2,882.4,1105,882.4L1105,882.4z"/>
				<path class="st21" d="M1174.5,922.5l-10.3-2.8c0.2-2.3,0.4-4.6,0.4-6.9c0-4.1-0.4-8-1.1-11.8l10.1-3.7c0.7-0.3,1.1-1.1,0.8-1.8
					l-5-13.6c-0.3-0.7-1.1-1.1-1.8-0.8l-9.5,3.5c-2.9-5.9-6.6-11.3-11-15.9l5.3-7.6c0.4-0.6,0.3-1.5-0.3-2l-11.9-8.3
					c-0.6-0.4-1.5-0.3-1.9,0.4l-4.8,6.8c-5.9-3.4-12.3-5.7-19.2-6.9v-7.7c0-0.8-0.6-1.4-1.4-1.4h-7.9v40.5
					c16.8,0,30.4,13.6,30.4,30.4c0,16.8-13.6,30.4-30.4,30.4v40.4l13.5-1.2c0.8-0.1,1.3-0.8,1.3-1.5l-0.6-7.3
					c6.7-1.7,13-4.6,18.6-8.5l5.4,6.4c0.5,0.6,1.4,0.7,2,0.2l11.1-9.3c0.6-0.5,0.7-1.4,0.2-2l-5.9-7.1c4-5,7.3-10.6,9.7-16.7
					l9.9,2.7c0.7,0.2,1.5-0.2,1.7-1l3.8-14C1175.6,923.5,1175.2,922.7,1174.5,922.5z"/>
			</g>
		</g>
		<g id="Game">
			<path class="st19" d="M1447.4,802.7c0,59.2-48,107.2-107.2,107.2c-59.2,0-107.2-48-107.2-107.2s48-107.2,107.2-107.2
				C1399.4,695.5,1447.4,743.5,1447.4,802.7z"/>
			<ellipse class="st22" cx="1332" cy="795.3" rx="107.2" ry="107.2"/>
			<g id="Rocket">
				<path class="st23" d="M1376.4,749.4c0,0-62.7-16.3-98.3,41.4l12.3,17.9l12.3,17.9C1369.3,813.8,1376.4,749.4,1376.4,749.4z"/>
				<path class="st24" d="M1291.4,810l-0.3-0.4l-13-18.8c0,0-2.8,8.9-1.3,13.8l6.9,10l0.3,0.4l6,8.8c3.7,2.7,12.6,2.6,12.6,2.6
					L1291.4,810z"/>
				<polygon class="st25" points="1284.1,826.7 1271.3,808.1 1276.7,804.4 1289.5,823 				"/>
				<polygon class="st26" points="1280.3,826.4 1270.2,811.8 1272.7,810 1282.8,824.7 				"/>
				<polygon class="st27" points="1304.6,768.7 1265.8,768 1284.3,792.9 				"/>
				<polygon class="st27" points="1333.4,806.8 1320.3,843.3 1303.6,817.2 				"/>
				<path class="st28" d="M1370.8,770c4.6-11.8,5.6-20.6,5.6-20.6s-8.6-2.2-21.3-2.1L1370.8,770z"/>
				<polygon class="st29" points="1253.8,833.8 1268.8,832.6 1283.7,831.5 1275.2,819.1 1266.7,806.8 1260.3,820.3 				"/>
				<polygon class="st30" points="1260,829.2 1270.6,828.5 1281.3,827.9 1275,818.8 1268.7,809.7 1264.4,819.4 				"/>
				<polygon class="st31" points="1267.8,823.6 1273.5,824.3 1279.2,824.9 1274.9,818.7 1270.7,812.5 1269.2,818.1 				"/>
				<path class="st32" d="M1370.8,770L1370.8,770c3.8-9.6,5.1-17.2,5.5-19.7c0,0,0,0,0,0c0.1-0.4,0.1-0.6,0.1-0.7c0,0,0,0,0,0
					c0,0,0-0.1,0-0.1s0,0-0.1,0c0,0,0,0,0,0c-0.1,0-0.2-0.1-0.4-0.1l-121.8,83.9l-0.3,0.6l14.9-1.2l14.9-1.2l-2.4-3.5l-1-1.5
					l2.5-1.7l1.3,2l5.4-3.7l0.6,0.8c3.7,2.7,12.6,2.6,12.6,2.6l0,0.1c2-0.4,4-0.8,6-1.3l11.6,18.1l9.4-26
					C1353,805,1364.9,785.1,1370.8,770z"/>
			</g>
			<g>
				<path class="st33" d="M1322.3,850.9c-0.6,0-1.2,0.1-1.8,0.2c-1.9-7.9-7.9-13.7-15.2-13.7c-5.3,0-10,3.1-12.9,8
					c-1.8-0.9-3.9-1.4-6-1.4c-7.5,0-13.5,6-13.5,13.4c0,1.1,0.1,2.1,0.4,3.1h16.7h9.6h15h6h9.3c0.1-0.6,0.2-1.2,0.2-1.8
					C1330.1,854.3,1326.6,850.9,1322.3,850.9z"/>
				<path class="st34" d="M1318.5,850.9c-0.6,0-1.2,0.1-1.8,0.2c-1.9-7.9-7.9-13.7-15.2-13.7c-5.3,0-10,3.1-12.9,8
					c-1.8-0.9-3.9-1.4-6-1.4c-7.5,0-13.5,6-13.5,13.4c0,1.1,0.1,2.1,0.4,3.1h16.7h9.6h15h6h9.3c0.1-0.6,0.2-1.2,0.2-1.8
					C1326.4,854.3,1322.9,850.9,1318.5,850.9z"/>
				<path class="st32" d="M1318.5,850.9c-0.6,0-1.2,0.1-1.8,0.2c-1.9-7.9-7.9-13.7-15.2-13.7c-0.2,0-0.4,0-0.7,0v23h10h6h9.3
					c0.1-0.6,0.2-1.2,0.2-1.8C1326.4,854.3,1322.9,850.9,1318.5,850.9z"/>
			</g>
			<g>
				<path class="st33" d="M1343.3,725.9c-0.9,0-1.9,0.1-2.7,0.3c-2.8-11.9-12-20.6-22.9-20.6c-8,0-15.1,4.8-19.4,12
					c-2.7-1.3-5.8-2.1-9.1-2.1c-11.3,0-20.4,9-20.4,20.2c0,1.6,0.2,3.1,0.5,4.6h25.3h14.5h22.6h9.1h14c0.2-0.9,0.3-1.8,0.3-2.7
					C1355.2,731.1,1349.9,725.9,1343.3,725.9z"/>
				<path class="st34" d="M1337.6,725.9c-1,0-1.9,0.1-2.7,0.3c-2.8-11.9-12-20.6-22.9-20.6c-8,0-15.1,4.8-19.4,12
					c-2.7-1.3-5.8-2.1-9.1-2.1c-11.3,0-20.4,9-20.4,20.2c0,1.6,0.2,3.1,0.5,4.6h25.3h14.5h22.6h9.1h14.1c0.2-0.9,0.3-1.8,0.3-2.7
					C1349.5,731.1,1344.2,725.9,1337.6,725.9z"/>
				<path class="st32" d="M1337.6,725.9c-1,0-1.9,0.1-2.7,0.3c-2.8-11.9-12-20.6-22.9-20.6c-0.3,0-0.7,0-1,0v34.7h15.1h9.1h14.1
					c0.2-0.9,0.3-1.8,0.3-2.7C1349.5,731.1,1344.2,725.9,1337.6,725.9z"/>
			</g>
			<g>
				<path class="st33" d="M1424,811.2c-0.8,0-1.6,0.1-2.4,0.3c-2.4-10.2-10.3-17.7-19.6-17.7c-6.9,0-13,4.1-16.7,10.3
					c-2.3-1.1-5-1.8-7.8-1.8c-9.7,0-17.5,7.8-17.5,17.3c0,1.4,0.2,2.7,0.5,4h21.7h12.5h19.4h7.8h12.1c0.2-0.7,0.3-1.5,0.3-2.3
					C1434.2,815.7,1429.6,811.2,1424,811.2z"/>
				<path class="st34" d="M1419.1,811.2c-0.8,0-1.6,0.1-2.4,0.3c-2.4-10.2-10.3-17.7-19.6-17.7c-6.9,0-13,4.1-16.7,10.3
					c-2.3-1.1-5-1.8-7.8-1.8c-9.7,0-17.5,7.8-17.5,17.3c0,1.4,0.2,2.7,0.5,4h21.7h12.5h19.4h7.8h12.1c0.2-0.7,0.3-1.5,0.3-2.3
					C1429.3,815.7,1424.8,811.2,1419.1,811.2z"/>
				<path class="st32" d="M1419.1,811.2c-0.8,0-1.6,0.1-2.4,0.3c-2.4-10.2-10.3-17.7-19.6-17.7c-0.3,0-0.6,0-0.9,0v29.8h12.9h7.8
					h12.1c0.2-0.7,0.3-1.5,0.3-2.3C1429.3,815.7,1424.8,811.2,1419.1,811.2z"/>
			</g>
		</g>
		<g id="Idea_2_">
			<path class="st19" d="M1416.5,1059.6c0,59.2-48,107.2-107.2,107.2c-59.2,0-107.2-48-107.2-107.2s48-107.2,107.2-107.2
				C1368.5,952.4,1416.5,1000.4,1416.5,1059.6z"/>
			<path class="st35" d="M1407.4,1053.4c0,59.2-48,107.2-107.2,107.2c-59.2,0-107.2-48-107.2-107.2c0-59.2,48-107.2,107.2-107.2
				C1359.4,946.2,1407.4,994.2,1407.4,1053.4z"/>
			<g id="Lamp">
				<path class="st36" d="M1300.4,1028.9c-3.5-0.1-34.5,0.1-34.5,34.9c0,13.7,18.9,42,18.9,42h15.3h0.7h15.3c0,0,18.9-28.3,18.9-42
					C1334.9,1029,1303.9,1028.8,1300.4,1028.9z"/>
				<g>
					<path class="st37" d="M1304.8,1106.7c0-0.1-1.4-6.5-1.5-18.5c0-3.5,0.3-6.1,0.9-7.9c-0.8,0.1-1.7,0.1-2.6,0
						c-0.7-0.1-1.2-0.4-1.5-0.8c-0.8,0.6-1.9,1-3,1.1c0.1,0.2,0.2,0.3,0.4,0.5c2.4,3.8,0.9,24.5,0.8,25.4l-1-0.1
						c0.5-5.9,1.2-21.9-0.7-24.8c-0.2-0.4-0.5-0.7-0.7-1c-0.2,0-0.5,0-0.7,0c-2-0.1-2.1-0.7-2.2-0.9c-0.1-0.5,0.2-1.1,0.8-1.3
						c0.5-0.2,1.4-0.1,2.5,1.2c0.7-0.1,1.4-0.2,2.1-0.4c0.5-0.2,0.9-0.4,1.2-0.7c0,0,0,0,0,0c-0.2-1.1,0.4-2.3,0.9-2.6
						c0.2-0.2,0.5-0.2,0.7,0c0.3,0.2,0.4,0.7,0.1,1.7c-0.1,0.5-0.3,0.9-0.6,1.2c0.2,0.2,0.5,0.4,1,0.5c1.1,0.2,2.1,0.1,2.9-0.1
						c0.3-0.6,0.7-1.1,1.2-1.3c0.8-0.5,1.6-0.3,1.9-0.1l0.6,0.3l-0.5,0.5c-0.1,0.1-1,1-2.5,1.5c-0.6,1.3-1.1,3.7-1,8.2
						c0.1,11.9,1.5,18.2,1.5,18.2L1304.8,1106.7z M1293.9,1079.7c0.2,0.1,0.5,0.1,0.9,0.1c-0.4-0.2-0.6-0.3-0.7-0.2
						C1294,1079.6,1294,1079.6,1293.9,1079.7z"/>
				</g>
				<path class="st38" d="M1284.8,1105.8v16.5c0,2.2,1.7,3.9,3.7,3.9h23.8c2.1,0,3.7-1.7,3.7-3.9v-16.5H1284.8z"/>
				<g>
					<path class="st21" d="M1316,1108.3c0,0.6-0.5,1.1-1.2,1.1H1286c-0.7,0-1.2-0.5-1.2-1.1l0,0c0-0.6,0.5-1.1,1.2-1.1h28.9
						C1315.5,1107.2,1316,1107.7,1316,1108.3L1316,1108.3z"/>
					<path class="st21" d="M1316,1112.5c0,0.6-0.5,1.1-1.2,1.1H1286c-0.7,0-1.2-0.5-1.2-1.1l0,0c0-0.6,0.5-1.1,1.2-1.1h28.9
						C1315.5,1111.5,1316,1111.9,1316,1112.5L1316,1112.5z"/>
					<path class="st21" d="M1316,1116.8c0,0.6-0.5,1.1-1.2,1.1H1286c-0.7,0-1.2-0.5-1.2-1.1l0,0c0-0.6,0.5-1.1,1.2-1.1h28.9
						C1315.5,1115.7,1316,1116.2,1316,1116.8L1316,1116.8z"/>
					<path class="st21" d="M1316,1121c0,0.6-0.5,1.1-1.2,1.1H1286c-0.7,0-1.2-0.5-1.2-1.1l0,0c0-0.6,0.5-1.1,1.2-1.1h28.9
						C1315.5,1119.9,1316,1120.4,1316,1121L1316,1121z"/>
					<path class="st5" d="M1316,1110.4c0,0.6-0.5,1.1-1.2,1.1H1286c-0.7,0-1.2-0.5-1.2-1.1l0,0c0-0.6,0.5-1.1,1.2-1.1h28.9
						C1315.5,1109.3,1316,1109.8,1316,1110.4L1316,1110.4z"/>
					<path class="st5" d="M1316,1114.6c0,0.6-0.5,1.1-1.2,1.1H1286c-0.7,0-1.2-0.5-1.2-1.1l0,0c0-0.6,0.5-1.1,1.2-1.1h28.9
						C1315.5,1113.6,1316,1114,1316,1114.6L1316,1114.6z"/>
					<path class="st5" d="M1316,1118.9c0,0.6-0.5,1.1-1.2,1.1H1286c-0.7,0-1.2-0.5-1.2-1.1l0,0c0-0.6,0.5-1.1,1.2-1.1h28.9
						C1315.5,1117.8,1316,1118.3,1316,1118.9L1316,1118.9z"/>
					<path class="st5" d="M1316,1123.1c0,0.6-0.5,1.1-1.2,1.1H1286c-0.7,0-1.2-0.5-1.2-1.1l0,0c0-0.6,0.5-1.1,1.2-1.1h28.9
						C1315.5,1122,1316,1122.5,1316,1123.1L1316,1123.1z"/>
				</g>
				<path class="st5" d="M1310.1,1030c4.9,11.1,16.5,43.7-0.9,75.8h6.8c0,0,18.9-28.3,18.9-42
					C1334.9,1040,1320.4,1032.4,1310.1,1030z"/>
				
					<ellipse transform="matrix(0.9434 -0.3316 0.3316 0.9434 -278.8248 483.987)" class="st39" cx="1278.8" cy="1059.1" rx="5.4" ry="3.5"/>
				
					<ellipse transform="matrix(0.9433 -0.3318 0.3318 0.9433 -273.9752 485.8939)" class="st39" cx="1285.9" cy="1045.2" rx="10.4" ry="6.8"/>
				<g>
					<polygon class="st36" points="1247.4,999.2 1248.5,998.2 1277.6,1027.9 1276.5,1028.9 					"/>
					<polygon class="st36" points="1215.9,1041 1216.1,1039.6 1258,1045 1257.8,1046.4 					"/>
					<polygon class="st36" points="1217.5,1080.7 1217.2,1079.3 1258.7,1071.2 1259,1072.6 					"/>
					<polygon class="st36" points="1350,999.2 1349,998.2 1319.8,1027.9 1320.9,1028.9 					"/>
					<polygon class="st36" points="1384.5,1043.2 1384.3,1041.8 1342.4,1047.2 1342.6,1048.6 					"/>
					<polygon class="st36" points="1381.7,1077.4 1382,1076 1340.5,1067.9 1340.2,1069.3 					"/>
					<polygon class="st36" points="1301.4,1020.9 1299.9,1021 1299.1,980.7 1300.6,980.7 					"/>
				</g>
			</g>
		</g>
	</g>
</g>
</svg>
