<?xml version="1.0" encoding="utf-8"?>
<!-- Generator: Adobe Illustrator 21.0.0, SVG Export Plug-In . SVG Version: 6.00 Build 0)  -->
<!DOCTYPE svg PUBLIC "-//W3C//DTD SVG 1.1//EN" "http://www.w3.org/Graphics/SVG/1.1/DTD/svg11.dtd" [
	<!ENTITY st0 "fill:#4ABCF4;">
	<!ENTITY st1 "fill:#26A0DD;">
	<!ENTITY st2 "fill:#EF9426;">
	<!ENTITY st3 "fill:#EFEFEF;">
	<!ENTITY st4 "fill:#FFFFFF;">
	<!ENTITY st5 "fill:#191C2D;">
	<!ENTITY st6 "fill:#272A44;">
	<!ENTITY st7 "clip-path:url(#XMLID_8_);">
	<!ENTITY st8 "fill:#1A96C6;">
	<!ENTITY st9 "fill:#414556;">
	<!ENTITY st10 "fill:#C1C4D3;">
	<!ENTITY st11 "fill:#DADCEA;">
	<!ENTITY st12 "fill:#37A8EE;">
	<!ENTITY st13 "fill:#D7CDCD;">
	<!ENTITY st14 "fill:#E8E6E6;">
	<!ENTITY st15 "fill:#E73A3A;">
	<!ENTITY st16 "fill:#EED467;">
	<!ENTITY st17 "fill:#63CD63;">
	<!ENTITY st18 "fill:none;">
	<!ENTITY st19 "fill:none;stroke:#FFFFFF;stroke-miterlimit:10;">
	<!ENTITY st20 "fill:none;stroke:#FFFFFF;stroke-linecap:round;stroke-linejoin:round;stroke-miterlimit:10;">
]>
<svg version="1.1" xmlns="http://www.w3.org/2000/svg" xmlns:xlink="http://www.w3.org/1999/xlink" x="0px" y="0px" 
	 viewBox="0 0 500 500" style="enable-background:new 0 0 500 500;" xml:space="preserve" width="1800" height="720">
<g id="BACKGROUND">
	<rect id="XMLID_42_" style="&st0;" width="500" height="500"/>
</g>
<g id="OBJECTS">
	<path id="XMLID_836_" style="&st1;" d="M415.533,278.863c-0.044-0.02-0.083-0.04-0.132-0.059c-0.037-0.014-0.081-0.027-0.121-0.04
		c-0.081-0.028-0.166-0.055-0.259-0.08c-0.039-0.01-0.082-0.02-0.123-0.03c-0.103-0.025-0.21-0.048-0.326-0.07
		c-0.051-0.009-0.105-0.018-0.159-0.027c-0.06-0.01-0.114-0.021-0.177-0.03c-0.076-0.01-0.156-0.02-0.236-0.03
		c-0.314-0.038-0.669-0.066-1.051-0.085c-0.361-0.019-0.744-0.031-1.161-0.031H276.301c-0.129,0-0.262,0.002-0.394,0.004
		c-0.066,0.001-0.138,0.004-0.205,0.005c-0.052,0.001-0.105,0.003-0.158,0.004c-0.1,0.003-0.198,0.004-0.299,0.008
		c-0.098,0.004-0.199,0.009-0.299,0.014c-0.041,0.002-0.081,0.004-0.122,0.006c-0.105,0.005-0.209,0.009-0.313,0.015
		c-0.117,0.007-0.236,0.016-0.354,0.024c-0.015,0.001-0.03,0.002-0.046,0.003c-0.111,0.008-0.222,0.016-0.334,0.025
		c-0.59,0.044-1.188,0.102-1.792,0.173c-0.116,0.014-0.232,0.028-0.349,0.043c-0.233,0.029-0.466,0.059-0.699,0.092
		c-0.235,0.033-0.47,0.067-0.704,0.103c-0.051,0.008-0.102,0.014-0.153,0.022h0c-0.049,0.008-0.097,0.017-0.146,0.025
		c-0.286,0.046-0.571,0.094-0.853,0.145c-0.028,0.005-0.057,0.009-0.085,0.014c-0.423,0.076-0.838,0.159-1.241,0.246
		c-0.339,0.072-0.671,0.147-0.995,0.224c-0.125,0.03-0.247,0.06-0.369,0.09c-0.201,0.051-0.398,0.102-0.593,0.155
		c-0.059,0.016-0.122,0.031-0.18,0.047c-0.104,0.028-0.207,0.057-0.303,0.087c-0.102,0.03-0.205,0.059-0.301,0.089
		c-0.301,0.089-0.581,0.179-0.846,0.273c-0.053,0.018-0.101,0.037-0.152,0.055c-0.067,0.024-0.133,0.047-0.198,0.071
		c-0.058,0.021-0.119,0.042-0.177,0.064c-0.082,0.031-0.158,0.063-0.244,0.096c-0.076,0.031-0.156,0.064-0.236,0.098
		c-0.082,0.031-0.156,0.065-0.229,0.098l-56.322,25.358h0.006h0.001l-4.322,1.946c-2.973,1.339-1.782,2.419,2.666,2.419h44.794
		c-18.835,7.651-32.572,8.962-33.044,9.005h-0.183c-0.243,0-0.573,0.059-0.735,0.133l-0.253,0.114
		c-0.163,0.073-0.097,0.133,0.146,0.133c0,0,69.12,0,70.846,0c1.726,0-6.199-1.677,9.071-9.385h44.82
		c4.436,0,10.428-1.081,13.401-2.419l60.646-27.304C416.23,280.005,416.514,279.303,415.533,278.863z"/>
	<g id="XMLID_767_">
		<path id="XMLID_889_" style="&st1;" d="M434.535,290.305h-4.602c0.092-0.93,1.087-1.663,2.302-1.663
			C433.45,288.642,434.445,289.374,434.535,290.305z"/>
		<path id="XMLID_1064_" style="&st1;" d="M430.395,319.753h6.643l0.027-0.113c0.065-0.269-0.274-0.42-0.943-0.42l0,0l37.236-18.596
			h-2.514l-0.664,0.332h-83.085l0.664-0.332h-2.514l-37.236,18.596h-0.166c-0.669,0-1.613,0.151-2.624,0.42l-0.423,0.113h6.643
			l0.027-0.113c0.065-0.269-0.274-0.42-0.943-0.42l0,0l29.475-14.72h83.085l-29.475,14.72h-0.166c-0.669,0-1.613,0.151-2.624,0.42
			L430.395,319.753z"/>
		<g id="XMLID_1032_">
			<g id="XMLID_1045_">
				<polygon id="XMLID_1063_" style="&st2;" points="348.306,293.206 352.712,293.206 348.306,287.748 				"/>
				<polygon id="XMLID_1062_" style="&st3;" points="348.306,286.971 348.306,287.748 352.712,293.206 358.045,293.206 
					353.012,286.971 				"/>
				<polygon id="XMLID_1061_" style="&st2;" points="353.012,286.971 358.045,293.206 363.375,293.206 358.343,286.971 				"/>
				<polygon id="XMLID_1060_" style="&st3;" points="358.343,286.971 363.375,293.206 368.708,293.206 363.675,286.971 				"/>
				<polygon id="XMLID_1059_" style="&st2;" points="363.675,286.971 368.708,293.206 374.041,293.206 369.008,286.971 				"/>
				<polygon id="XMLID_1058_" style="&st3;" points="369.008,286.971 374.041,293.206 379.371,293.206 374.339,286.971 				"/>
				<polygon id="XMLID_1057_" style="&st2;" points="374.339,286.971 379.371,293.206 384.704,293.206 379.671,286.971 				"/>
				<polygon id="XMLID_1056_" style="&st3;" points="379.671,286.971 384.704,293.206 390.037,293.206 385.004,286.971 				"/>
				<polygon id="XMLID_1055_" style="&st2;" points="385.004,286.971 390.037,293.206 395.367,293.206 390.335,286.971 				"/>
				<polygon id="XMLID_1054_" style="&st3;" points="390.335,286.971 395.367,293.206 400.7,293.206 395.667,286.971 				"/>
				<polygon id="XMLID_1053_" style="&st2;" points="395.667,286.971 400.7,293.206 406.033,293.206 401,286.971 				"/>
				<polygon id="XMLID_1052_" style="&st3;" points="401,286.971 406.033,293.206 411.364,293.206 406.331,286.971 				"/>
				<polygon id="XMLID_1051_" style="&st2;" points="406.331,286.971 411.364,293.206 416.696,293.206 411.663,286.971 				"/>
				<polygon id="XMLID_1050_" style="&st3;" points="411.663,286.971 416.696,293.206 422.029,293.206 416.996,286.971 				"/>
				<polygon id="XMLID_1049_" style="&st2;" points="416.996,286.971 422.029,293.206 427.36,293.206 422.327,286.971 				"/>
				<polygon id="XMLID_1048_" style="&st3;" points="422.327,286.971 427.36,293.206 432.692,293.206 427.659,286.971 				"/>
				<polygon id="XMLID_1047_" style="&st2;" points="427.659,286.971 432.692,293.206 433.841,293.206 433.841,288.023 
					432.992,286.971 				"/>
				<polygon id="XMLID_1046_" style="&st4;" points="433.841,288.023 433.841,286.971 432.992,286.971 				"/>
			</g>
			<g id="XMLID_1039_">
				<g id="XMLID_1043_">
					<rect id="XMLID_1044_" x="346.99" y="286.388" style="&st5;" width="2.514" height="33.399"/>
				</g>
				<g id="XMLID_1041_">
					<rect id="XMLID_1042_" x="346.99" y="286.388" style="&st6;" width="1.281" height="33.399"/>
				</g>
				<path id="XMLID_1040_" style="&st6;" d="M351.485,320.038h-6.643l0,0c0-0.517,0.419-0.937,0.937-0.937h4.769
					C351.066,319.101,351.485,319.521,351.485,320.038L351.485,320.038z"/>
			</g>
			<g id="XMLID_1033_">
				<g id="XMLID_1037_">
					<rect id="XMLID_1038_" x="432.589" y="286.388" style="&st5;" width="2.514" height="33.399"/>
				</g>
				<g id="XMLID_1035_">
					<rect id="XMLID_1036_" x="432.589" y="286.388" style="&st6;" width="1.281" height="33.399"/>
				</g>
				<path id="XMLID_1034_" style="&st6;" d="M437.084,320.038h-6.643l0,0c0-0.517,0.419-0.937,0.937-0.937h4.769
					C436.665,319.101,437.084,319.521,437.084,320.038L437.084,320.038z"/>
			</g>
		</g>
	</g>
	<g id="XMLID_770_">
		<path id="XMLID_1068_" style="&st1;" d="M162.541,290.305h-4.602c0.092-0.93,1.087-1.663,2.302-1.663
			S162.452,289.374,162.541,290.305z"/>
		<path id="XMLID_1067_" style="&st1;" d="M157.941,319.753h6.643l0.056-0.113c0.135-0.269-0.166-0.42-0.835-0.42l0,0l42.019-18.596
			h-2.514l-0.749,0.332h-83.085l0.749-0.332h-2.514l-42.019,18.596h-0.166c-0.669,0-1.652,0.151-2.732,0.42l-0.452,0.113h6.643
			l0.056-0.113c0.135-0.269-0.166-0.42-0.834-0.42l0,0l33.261-14.72h83.085l-33.261,14.72h-0.166c-0.669,0-1.652,0.151-2.732,0.42
			L157.941,319.753z"/>
		<g id="XMLID_771_">
			<g id="XMLID_788_">
				<polygon id="XMLID_1066_" style="&st2;" points="76.313,293.206 80.718,293.206 76.313,287.748 				"/>
				<polygon id="XMLID_1065_" style="&st3;" points="76.313,286.971 76.313,287.748 80.718,293.206 86.051,293.206 81.018,286.971 
									"/>
				<polygon id="XMLID_1031_" style="&st2;" points="81.018,286.971 86.051,293.206 91.382,293.206 86.349,286.971 				"/>
				<polygon id="XMLID_835_" style="&st3;" points="86.349,286.971 91.382,293.206 96.714,293.206 91.682,286.971 				"/>
				<polygon id="XMLID_834_" style="&st2;" points="91.682,286.971 96.714,293.206 102.047,293.206 97.014,286.971 				"/>
				<polygon id="XMLID_828_" style="&st3;" points="97.014,286.971 102.047,293.206 107.378,293.206 102.345,286.971 				"/>
				<polygon id="XMLID_821_" style="&st2;" points="102.345,286.971 107.378,293.206 112.71,293.206 107.678,286.971 				"/>
				<polygon id="XMLID_802_" style="&st3;" points="107.678,286.971 112.71,293.206 118.043,293.206 113.01,286.971 				"/>
				<polygon id="XMLID_799_" style="&st2;" points="113.01,286.971 118.043,293.206 123.374,293.206 118.341,286.971 				"/>
				<polygon id="XMLID_798_" style="&st3;" points="118.341,286.971 123.374,293.206 128.707,293.206 123.674,286.971 				"/>
				<polygon id="XMLID_797_" style="&st2;" points="123.674,286.971 128.707,293.206 134.039,293.206 129.006,286.971 				"/>
				<polygon id="XMLID_795_" style="&st3;" points="129.006,286.971 134.039,293.206 139.37,293.206 134.337,286.971 				"/>
				<polygon id="XMLID_794_" style="&st2;" points="134.337,286.971 139.37,293.206 144.703,293.206 139.67,286.971 				"/>
				<polygon id="XMLID_793_" style="&st3;" points="139.67,286.971 144.703,293.206 150.035,293.206 145.002,286.971 				"/>
				<polygon id="XMLID_792_" style="&st2;" points="145.002,286.971 150.035,293.206 155.366,293.206 150.333,286.971 				"/>
				<polygon id="XMLID_791_" style="&st3;" points="150.333,286.971 155.366,293.206 160.699,293.206 155.666,286.971 				"/>
				<polygon id="XMLID_790_" style="&st2;" points="155.666,286.971 160.699,293.206 161.848,293.206 161.848,288.023 
					160.998,286.971 				"/>
				<polygon id="XMLID_789_" style="&st4;" points="161.848,288.023 161.848,286.971 160.998,286.971 				"/>
			</g>
			<g id="XMLID_781_">
				<g id="XMLID_786_">
					<rect id="XMLID_787_" x="74.996" y="286.388" style="&st5;" width="2.514" height="33.399"/>
				</g>
				<g id="XMLID_784_">
					<rect id="XMLID_785_" x="74.996" y="286.388" style="&st6;" width="1.281" height="33.399"/>
				</g>
				<path id="XMLID_783_" style="&st6;" d="M79.492,320.038h-6.643l0,0c0-0.517,0.419-0.937,0.937-0.937h4.769
					C79.072,319.101,79.492,319.521,79.492,320.038L79.492,320.038z"/>
			</g>
			<g id="XMLID_772_">
				<g id="XMLID_778_">
					<rect id="XMLID_779_" x="160.596" y="286.388" style="&st5;" width="2.514" height="33.399"/>
				</g>
				<g id="XMLID_776_">
					<rect id="XMLID_777_" x="160.596" y="286.388" style="&st6;" width="1.281" height="33.399"/>
				</g>
				<path id="XMLID_775_" style="&st6;" d="M165.091,320.038h-6.643l0,0c0-0.517,0.419-0.937,0.937-0.937h4.769
					C164.671,319.101,165.091,319.521,165.091,320.038L165.091,320.038z"/>
			</g>
		</g>
	</g>
	<g id="XMLID_1077_">
		<defs>
			<rect id="XMLID_1027_" width="500" height="305.667"/>
		</defs>
		<clipPath id="XMLID_8_">
			<use xlink:href="#XMLID_1027_"  style="overflow:visible;"/>
		</clipPath>
		<g id="XMLID_890_" style="&st7;">
			<path id="XMLID_1026_" style="&st1;" d="M424.423,262H76.91c-1.055,0-1.91-0.855-1.91-1.91l0,0c0-1.055,0.855-1.91,1.91-1.91
				h347.514c1.055,0,1.91,0.855,1.91,1.91l0,0C426.333,261.145,425.478,262,424.423,262z"/>
			<g id="XMLID_914_">
				<g id="XMLID_997_">
					<g id="XMLID_1023_">
						<rect id="XMLID_1025_" x="152.354" y="-30.789" style="&st1;" width="6.412" height="253.295"/>
						<rect id="XMLID_1024_" x="185.501" y="-30.789" style="&st1;" width="6.412" height="253.295"/>
					</g>
					<g id="XMLID_998_">
						<g id="XMLID_1020_">
							
								<rect id="XMLID_1022_" x="170.645" y="-31.48" transform="matrix(0.7071 -0.7071 0.7071 0.7071 56.5636 119.1708)" style="&st1;" width="2.978" height="45.575"/>
							
								<rect id="XMLID_1021_" x="170.645" y="-31.48" transform="matrix(-0.7071 -0.7071 0.7071 -0.7071 300 106.8741)" style="&st1;" width="2.978" height="45.575"/>
						</g>
						<g id="XMLID_1017_">
							
								<rect id="XMLID_1019_" x="170.645" y="-1.181" transform="matrix(0.7071 -0.7071 0.7071 0.7071 35.1414 128.0484)" style="&st1;" width="2.978" height="45.575"/>
							
								<rect id="XMLID_1018_" x="170.645" y="-1.181" transform="matrix(-0.7071 -0.7071 0.7071 -0.7071 278.5725 158.6011)" style="&st1;" width="2.978" height="45.575"/>
						</g>
						<g id="XMLID_1014_">
							
								<rect id="XMLID_1016_" x="170.645" y="29.118" transform="matrix(0.7071 -0.7071 0.7071 0.7071 13.7161 136.9233)" style="&st1;" width="2.978" height="45.575"/>
							
								<rect id="XMLID_1015_" x="170.645" y="29.118" transform="matrix(-0.7071 -0.7071 0.7071 -0.7071 257.1478 210.3249)" style="&st1;" width="2.978" height="45.575"/>
						</g>
						<g id="XMLID_1011_">
							
								<rect id="XMLID_1013_" x="170.645" y="59.417" transform="matrix(0.7071 -0.7071 0.7071 0.7071 -7.7091 145.7982)" style="&st1;" width="2.978" height="45.575"/>
							
								<rect id="XMLID_1012_" x="170.645" y="59.417" transform="matrix(-0.7071 -0.7071 0.7071 -0.7071 235.7231 262.0487)" style="&st1;" width="2.978" height="45.575"/>
						</g>
						<g id="XMLID_1008_">
							
								<rect id="XMLID_1010_" x="170.645" y="89.716" transform="matrix(0.7071 -0.7071 0.7071 0.7071 -29.1343 154.6732)" style="&st1;" width="2.978" height="45.575"/>
							
								<rect id="XMLID_1009_" x="170.645" y="89.716" transform="matrix(-0.7071 -0.7071 0.7071 -0.7071 214.2984 313.7725)" style="&st1;" width="2.978" height="45.575"/>
						</g>
						<g id="XMLID_1005_">
							
								<rect id="XMLID_1007_" x="170.645" y="120.015" transform="matrix(0.7071 -0.7071 0.7071 0.7071 -50.56 163.5428)" style="&st1;" width="2.978" height="45.575"/>
							
								<rect id="XMLID_1006_" x="170.645" y="120.015" transform="matrix(-0.7071 -0.7071 0.7071 -0.7071 192.879 365.4958)" style="&st1;" width="2.978" height="45.575"/>
						</g>
						<g id="XMLID_1002_">
							
								<rect id="XMLID_1004_" x="170.645" y="150.314" transform="matrix(0.7071 -0.7071 0.7071 0.7071 -71.9847 172.4172)" style="&st1;" width="2.978" height="45.575"/>
							
								<rect id="XMLID_1003_" x="170.645" y="150.314" transform="matrix(-0.7071 -0.7071 0.7071 -0.7071 171.4548 417.2202)" style="&st1;" width="2.978" height="45.575"/>
						</g>
						<g id="XMLID_999_">
							
								<rect id="XMLID_1001_" x="170.645" y="180.613" transform="matrix(0.7071 -0.7071 0.7071 0.7071 -93.4094 181.2916)" style="&st1;" width="2.978" height="45.575"/>
							
								<rect id="XMLID_1000_" x="170.645" y="180.613" transform="matrix(-0.7071 -0.7071 0.7071 -0.7071 150.0306 468.9445)" style="&st1;" width="2.978" height="45.575"/>
						</g>
					</g>
				</g>
				<g id="XMLID_968_">
					<g id="XMLID_994_">
						<rect id="XMLID_996_" x="188.609" y="-30.789" style="&st1;" width="3.558" height="253.295"/>
						<rect id="XMLID_995_" x="207.001" y="-30.789" style="&st1;" width="3.558" height="253.295"/>
					</g>
					<g id="XMLID_969_">
						<g id="XMLID_991_">
							<polygon id="XMLID_993_" style="&st1;" points="209.109,6.367 207.94,8.473 190.059,-23.753 191.228,-25.859 							"/>
							<polygon id="XMLID_992_" style="&st1;" points="190.059,6.367 191.228,8.473 209.109,-23.753 207.94,-25.859 							"/>
						</g>
						<g id="XMLID_988_">
							<polygon id="XMLID_990_" style="&st1;" points="209.109,36.667 207.94,38.772 190.059,6.546 191.228,4.44 							"/>
							<polygon id="XMLID_989_" style="&st1;" points="190.059,36.667 191.228,38.772 209.109,6.546 207.94,4.44 							"/>
						</g>
						<g id="XMLID_985_">
							<polygon id="XMLID_987_" style="&st1;" points="209.109,66.966 207.94,69.072 190.059,36.845 191.228,34.739 							"/>
							<polygon id="XMLID_986_" style="&st1;" points="190.059,66.966 191.228,69.072 209.109,36.845 207.94,34.739 							"/>
						</g>
						<g id="XMLID_982_">
							<polygon id="XMLID_984_" style="&st1;" points="209.109,97.265 207.94,99.371 190.059,67.144 191.228,65.038 							"/>
							<polygon id="XMLID_983_" style="&st1;" points="190.059,97.265 191.228,99.371 209.109,67.144 207.94,65.038 							"/>
						</g>
						<g id="XMLID_979_">
							<polygon id="XMLID_981_" style="&st1;" points="209.109,127.564 207.94,129.67 190.059,97.443 191.228,95.338 							"/>
							<polygon id="XMLID_980_" style="&st1;" points="190.059,127.564 191.228,129.67 209.109,97.443 207.94,95.338 							"/>
						</g>
						<g id="XMLID_976_">
							<polygon id="XMLID_978_" style="&st1;" points="209.109,157.863 207.94,159.969 190.059,127.743 191.228,125.637 							"/>
							<polygon id="XMLID_977_" style="&st1;" points="190.059,157.863 191.228,159.969 209.109,127.743 207.94,125.637 							"/>
						</g>
						<g id="XMLID_973_">
							<polygon id="XMLID_975_" style="&st1;" points="209.109,188.162 207.94,190.268 190.059,158.042 191.228,155.936 							"/>
							<polygon id="XMLID_974_" style="&st1;" points="190.059,188.162 191.228,190.268 209.109,158.042 207.94,155.936 							"/>
						</g>
						<g id="XMLID_970_">
							<polygon id="XMLID_972_" style="&st1;" points="209.109,218.461 207.94,220.567 190.059,188.341 191.228,186.235 							"/>
							<polygon id="XMLID_971_" style="&st1;" points="190.059,218.461 191.228,220.567 209.109,188.341 207.94,186.235 							"/>
						</g>
					</g>
				</g>
				<rect id="XMLID_967_" x="146.072" y="215.437" style="&st1;" width="67.331" height="48.168"/>
				<rect id="XMLID_966_" x="188.535" y="215.437" style="&st1;" width="24.868" height="48.168"/>
				<path id="XMLID_965_" style="&st1;" d="M212.454-30.409h-61.979c-2.145,0-3.885-1.739-3.885-3.884v-47.132
					c0-2.145,1.739-3.884,3.885-3.884h61.979c2.145,0,3.884,1.739,3.884,3.884v47.132C216.338-32.148,214.599-30.409,212.454-30.409
					z"/>
				<path id="XMLID_964_" style="&st1;" d="M213.681-30.409h-27.323c-1.468,0-2.657-1.19-2.657-2.657v-49.587
					c0-1.467,1.19-2.657,2.657-2.657h27.323c1.467,0,2.657,1.19,2.657,2.657v49.587C216.338-31.598,215.149-30.409,213.681-30.409z"
					/>
				<g id="XMLID_959_">
					<path id="XMLID_963_" style="&st1;" d="M209.085-68.358v21.002c0,0.927-0.197,1.73-0.482,2.082
						c-0.093,0.124-0.197,0.192-0.311,0.192h-16.45c-0.44,0-0.798-1.02-0.798-2.274v-21.002c0-1.259,0.357-2.274,0.798-2.274h16.45
						C208.728-70.632,209.085-69.617,209.085-68.358z"/>
					<g id="XMLID_960_">
						<polygon id="XMLID_962_" style="&st1;" points="200.746,-45.083 193.868,-45.083 191.045,-51.013 191.045,-65.463 						"/>
						<polygon id="XMLID_961_" style="&st1;" points="208.603,-45.274 196.536,-70.632 192.708,-70.632 204.874,-45.083 
							208.293,-45.083 						"/>
					</g>
				</g>
				<g id="XMLID_951_">
					<path id="XMLID_956_" style="&st1;" d="M193.647-149.073c-0.528-4.449-4.314-7.898-8.909-7.898
						c-4.962,0-8.981,4.019-8.981,8.976c0,0.508,0.041,1.005,0.124,1.487c0.124,0.761,0.347,1.492,0.653,2.17
						c0.28,0.627,0.627,1.217,1.041,1.756c1.181,1.569,2.874,2.74,4.832,3.263c0.746,0.202,1.523,0.306,2.331,0.306
						c1.564,0,3.035-0.399,4.314-1.103c1.486-0.818,2.714-2.041,3.538-3.522c0.217-0.388,0.404-0.798,0.559-1.217
						c0.368-0.979,0.565-2.036,0.565-3.139C193.715-148.364,193.694-148.721,193.647-149.073z M184.739-143.852
						c-0.865,0-1.668-0.264-2.331-0.715c-0.207-0.145-0.404-0.3-0.58-0.477c-0.606-0.601-1.025-1.383-1.176-2.258
						c-0.036-0.228-0.057-0.456-0.057-0.694c0-0.316,0.036-0.627,0.104-0.922c0.419-1.844,2.067-3.222,4.04-3.222
						c1.632,0,3.046,0.948,3.719,2.32c0.274,0.549,0.425,1.171,0.425,1.823c0,0.901-0.29,1.735-0.777,2.414
						C187.354-144.536,186.122-143.852,184.739-143.852z"/>
					<path id="XMLID_955_" style="&st1;" d="M374.593-123.089l-0.606,4.2L193.15-144.857l-0.559-0.078l-3.538-0.513l-0.948-0.135
						c0.487-0.678,0.777-1.512,0.777-2.414c0-0.653-0.15-1.274-0.425-1.823l5.19,0.746L374.593-123.089z"/>
					<path id="XMLID_954_" style="&st1;" d="M181.828-145.044l-4.252,2.46l-1.041,0.606l-39.689,22.996l-2.129-3.672l41.165-23.856
						l0.653-0.378l0.72-0.414l3.279-1.901l0.166,0.285c-0.067,0.295-0.104,0.606-0.104,0.922c0,0.238,0.021,0.466,0.057,0.694
						C180.803-146.427,181.222-145.645,181.828-145.044z"/>
					<path id="XMLID_953_" style="&st1;" d="M182.408-144.567v56.481h-5.873v-59.215h4.118c0.15,0.875,0.57,1.657,1.176,2.258
						C182.004-144.868,182.201-144.712,182.408-144.567z"/>
					<rect id="XMLID_952_" x="189.053" y="-147.304" style="&st1;" width="3.539" height="59.217"/>
				</g>
				<g id="XMLID_916_">
					<g id="XMLID_919_">
						<g id="XMLID_948_">
							
								<rect id="XMLID_950_" x="252.218" y="-244.749" transform="matrix(6.123234e-17 -1 1 6.123234e-17 342.6456 168.2029)" style="&st1;" width="6.412" height="315.055"/>
							
								<rect id="XMLID_949_" x="253.605" y="-247.017" transform="matrix(6.123234e-17 -1 1 6.123234e-17 377.1805 136.4424)" style="&st1;" width="6.412" height="253.295"/>
						</g>
						<g id="XMLID_920_">
							<g id="XMLID_945_">
								
									<rect id="XMLID_947_" x="150.771" y="-126.583" transform="matrix(-0.7071 -0.7071 0.7071 -0.7071 333.32 -69.5294)" style="&st1;" width="2.978" height="45.575"/>
								
									<rect id="XMLID_946_" x="150.771" y="-126.583" transform="matrix(-0.7071 0.7071 -0.7071 -0.7071 186.5306 -284.8539)" style="&st1;" width="2.978" height="45.575"/>
							</g>
							<g id="XMLID_943_">
								<polygon id="XMLID_944_" style="&st1;" points="137.488,-88.734 135.38,-86.631 117.677,-104.334 114.512,-107.499 
									116.589,-109.633 119.754,-106.468 								"/>
							</g>
							<g id="XMLID_940_">
								
									<rect id="XMLID_942_" x="181.071" y="-126.583" transform="matrix(-0.7071 -0.7071 0.7071 -0.7071 385.0443 -48.1052)" style="&st1;" width="2.978" height="45.575"/>
								
									<rect id="XMLID_941_" x="181.071" y="-126.583" transform="matrix(-0.7071 0.7071 -0.7071 -0.7071 238.2544 -306.2786)" style="&st1;" width="2.978" height="45.575"/>
							</g>
							<g id="XMLID_937_">
								
									<rect id="XMLID_939_" x="211.37" y="-126.583" transform="matrix(-0.7071 -0.7071 0.7071 -0.7071 436.7686 -26.681)" style="&st1;" width="2.978" height="45.575"/>
								
									<rect id="XMLID_938_" x="211.37" y="-126.583" transform="matrix(-0.7071 0.7071 -0.7071 -0.7071 289.9781 -327.7033)" style="&st1;" width="2.978" height="45.575"/>
							</g>
							<g id="XMLID_934_">
								
									<rect id="XMLID_936_" x="241.669" y="-126.583" transform="matrix(-0.7071 -0.7071 0.7071 -0.7071 488.4907 -5.251)" style="&st1;" width="2.978" height="45.575"/>
								
									<rect id="XMLID_935_" x="241.669" y="-126.583" transform="matrix(-0.7071 0.7071 -0.7071 -0.7071 341.6962 -349.1304)" style="&st1;" width="2.978" height="45.575"/>
							</g>
							<g id="XMLID_931_">
								
									<rect id="XMLID_933_" x="271.968" y="-126.583" transform="matrix(-0.7071 -0.7071 0.7071 -0.7071 540.2148 16.173)" style="&st1;" width="2.978" height="45.575"/>
								
									<rect id="XMLID_932_" x="271.968" y="-126.583" transform="matrix(-0.7071 0.7071 -0.7071 -0.7071 393.4202 -370.5553)" style="&st1;" width="2.978" height="45.575"/>
							</g>
							<g id="XMLID_928_">
								
									<rect id="XMLID_930_" x="302.267" y="-126.583" transform="matrix(-0.7071 -0.7071 0.7071 -0.7071 591.9382 37.5984)" style="&st1;" width="2.978" height="45.575"/>
								
									<rect id="XMLID_929_" x="302.267" y="-126.583" transform="matrix(-0.7071 0.7071 -0.7071 -0.7071 445.1428 -391.9808)" style="&st1;" width="2.978" height="45.575"/>
							</g>
							<g id="XMLID_925_">
								
									<rect id="XMLID_927_" x="332.566" y="-126.583" transform="matrix(-0.7071 -0.7071 0.7071 -0.7071 643.666 59.0158)" style="&st1;" width="2.978" height="45.575"/>
								
									<rect id="XMLID_926_" x="332.566" y="-126.583" transform="matrix(-0.7071 0.7071 -0.7071 -0.7071 496.8735 -413.4022)" style="&st1;" width="2.978" height="45.575"/>
							</g>
							<g id="XMLID_921_">
								
									<rect id="XMLID_924_" x="362.865" y="-126.583" transform="matrix(-0.7071 -0.7071 0.7071 -0.7071 695.3903 80.44)" style="&st1;" width="2.978" height="45.575"/>
								<polygon id="XMLID_923_" style="&st1;" points="400.329,-106.245 380.715,-86.631 378.612,-88.734 393.689,-103.811 
									398.252,-108.374 								"/>
								
									<rect id="XMLID_922_" x="362.865" y="-126.583" transform="matrix(-0.7071 0.7071 -0.7071 -0.7071 548.5974 -434.8269)" style="&st1;" width="2.978" height="45.575"/>
							</g>
						</g>
					</g>
					<polygon id="XMLID_918_" style="&st1;" points="130.164,-123.575 132.926,-117.163 100.659,-84.016 97.897,-90.428 					"/>
					<polygon id="XMLID_917_" style="&st1;" points="415.722,-90.428 412.961,-84.016 395.766,-101.682 393.689,-103.811 
						380.694,-117.163 383.454,-123.575 398.252,-108.374 400.329,-106.245 					"/>
				</g>
				<rect id="XMLID_915_" x="152.28" y="-30.769" style="&st1;" width="58.354" height="7.251"/>
			</g>
			<g id="XMLID_903_">
				<g id="XMLID_908_">
					
						<ellipse id="XMLID_913_" transform="matrix(0.9761 -0.2173 0.2173 0.9761 -41.635 81.2512)" style="&st1;" cx="348.617" cy="229.932" rx="12.082" ry="12.082"/>
					
						<ellipse id="XMLID_912_" transform="matrix(0.9761 -0.2173 0.2173 0.9761 -38.2215 82.2411)" style="&st1;" cx="354.823" cy="214.906" rx="12.082" ry="12.082"/>
					
						<ellipse id="XMLID_911_" transform="matrix(0.9761 -0.2173 0.2173 0.9761 -35.4393 82.871)" style="&st1;" cx="359.08" cy="202.572" rx="12.082" ry="12.082"/>
					
						<ellipse id="XMLID_910_" transform="matrix(0.9761 -0.2173 0.2173 0.9761 -37.1127 84.7192)" style="&st1;" cx="366.647" cy="211.104" rx="12.082" ry="12.082"/>
					
						<ellipse id="XMLID_909_" transform="matrix(0.9761 -0.2173 0.2173 0.9761 -41.1087 85.1148)" style="&st1;" cx="366.448" cy="229.471" rx="12.082" ry="12.082"/>
				</g>
				<g id="XMLID_904_">
					<path id="XMLID_907_" style="&st8;" d="M359.175,259.815L359.175,259.815c-0.473,0-0.856-0.383-0.856-0.856v-43.951
						c0-0.473,0.383-0.856,0.856-0.856l0,0c0.473,0,0.856,0.383,0.856,0.856v43.951
						C360.031,259.432,359.648,259.815,359.175,259.815z"/>
					<path id="XMLID_906_" style="&st8;" d="M358.823,236.575L358.823,236.575c-0.334-0.334-0.334-0.877,0-1.211l4.694-4.694
						c0.334-0.334,0.876-0.334,1.211,0l0,0c0.334,0.334,0.334,0.876,0,1.211l-4.694,4.694
						C359.699,236.909,359.157,236.909,358.823,236.575z"/>
					<path id="XMLID_905_" style="&st8;" d="M359.685,222.495L359.685,222.495c0.334-0.334,0.334-0.876,0-1.211l-4.694-4.694
						c-0.334-0.334-0.876-0.334-1.211,0l0,0c-0.334,0.334-0.334,0.876,0,1.211l4.694,4.694
						C358.809,222.83,359.351,222.83,359.685,222.495z"/>
				</g>
			</g>
			<g id="XMLID_891_">
				<g id="XMLID_896_">
					
						<ellipse id="XMLID_902_" transform="matrix(0.9761 -0.2173 0.2173 0.9761 -47.4135 25.6648)" style="&st1;" cx="92.986" cy="228.411" rx="14.731" ry="14.731"/>
					
						<ellipse id="XMLID_901_" transform="matrix(0.9761 -0.2173 0.2173 0.9761 -43.2514 26.8715)" style="&st1;" cx="100.553" cy="210.09" rx="14.731" ry="14.731"/>
					
						<ellipse id="XMLID_900_" transform="matrix(0.9761 -0.2173 0.2173 0.9761 -39.8657 28.508)" style="&st1;" cx="109.687" cy="195.515" rx="14.731" ry="14.731"/>
					
						<ellipse id="XMLID_899_" transform="matrix(0.9761 -0.2173 0.2173 0.9761 -42.4877 30.5699)" style="&st1;" cx="117.753" cy="208.47" rx="14.731" ry="14.731"/>
					
						<ellipse id="XMLID_898_" transform="matrix(0.9761 -0.2173 0.2173 0.9761 -47.908 29.5569)" style="&st1;" cx="110.434" cy="232.605" rx="14.731" ry="14.731"/>
					
						<ellipse id="XMLID_897_" transform="matrix(0.9761 -0.2173 0.2173 0.9761 -46.5721 32.6493)" style="&st1;" cx="125.165" cy="228.081" rx="14.731" ry="14.731"/>
				</g>
				<g id="XMLID_892_">
					<path id="XMLID_895_" style="&st8;" d="M109.339,262.063L109.339,262.063c-0.577,0-1.044-0.467-1.044-1.044V207.43
						c0-0.577,0.467-1.044,1.044-1.044l0,0c0.577,0,1.044,0.467,1.044,1.044v53.589
						C110.383,261.596,109.915,262.063,109.339,262.063z"/>
					<path id="XMLID_894_" style="&st8;" d="M108.909,233.727L108.909,233.727c-0.408-0.408-0.408-1.069,0-1.476l5.723-5.723
						c0.408-0.408,1.069-0.408,1.476,0l0,0c0.408,0.408,0.408,1.069,0,1.476l-5.723,5.723
						C109.977,234.134,109.317,234.134,108.909,233.727z"/>
					<path id="XMLID_893_" style="&st8;" d="M109.961,216.559L109.961,216.559c0.408-0.408,0.408-1.069,0-1.476l-5.723-5.723
						c-0.408-0.408-1.069-0.408-1.476,0l0,0c-0.408,0.408-0.408,1.069,0,1.476l5.723,5.723
						C108.892,216.967,109.553,216.967,109.961,216.559z"/>
				</g>
			</g>
		</g>
	</g>
	<g>
		<g>
			<g>
				<g>
					<g>
						<path id="XMLID_1030_" style="&st1;" d="M346.117,120.152h-54.575c0.386-3.869,3.635-6.879,7.596-6.897
							c0.423-3.832,3.672-6.817,7.614-6.817c2.655,0,4.99,1.343,6.37,3.396c1.318-1.073,2.992-1.717,4.825-1.717
							c1.882,0,3.605,0.687,4.941,1.815c1.404-1.668,3.507-2.734,5.861-2.734c3.556,0,6.541,2.434,7.406,5.72
							c0.723-0.227,1.496-0.349,2.299-0.349C342.666,112.568,346.074,115.952,346.117,120.152z"/>
						<path id="XMLID_1029_" style="&st1;" d="M419.574,166.441h-48.101c0.552-3.691,3.74-6.517,7.578-6.517
							c0.589,0,1.165,0.074,1.717,0.202c0.962-3.133,3.881-5.413,7.326-5.413c1.95,0,3.721,0.736,5.076,1.937
							c0.975-0.448,2.054-0.711,3.2-0.711c2.434,0,4.598,1.14,6.002,2.912c1.251-2.538,3.856-4.285,6.872-4.285
							c4.23,0,7.663,3.427,7.663,7.663c0,0.527-0.055,1.048-0.159,1.545C417.9,164.406,418.881,165.326,419.574,166.441z"/>
					</g>
					<g>
						<path id="XMLID_1028_" style="&st1;" d="M137.004,131.538h-35.116c0.398-2.783,2.299-5.082,4.849-6.057
							c1.189-2.704,3.881-4.592,7.026-4.592c2.373,0,4.5,1.079,5.904,2.777c1.398-1.459,3.36-2.373,5.536-2.373
							c3.464,0,6.388,2.299,7.338,5.456C134.656,127.596,136.311,129.356,137.004,131.538z"/>
						<path id="XMLID_888_" style="&st1;" d="M131.96,279.529h-9.57c0.19-1.934,2.26-3.458,4.787-3.458
							C129.704,276.07,131.774,277.594,131.96,279.529z"/>
						<g>
							<g id="XMLID_1079_">
								<path id="XMLID_1093_" style="&st1;" d="M396.45,378.132h-16.988c0.338-3.434,4.012-6.139,8.498-6.139
									C392.446,371.993,396.12,374.698,396.45,378.132z"/>
								<path id="XMLID_1095_" style="&st1;" d="M411.561,378.132h-24.598c0.49-4.972,5.81-8.889,12.305-8.889
									S411.082,373.16,411.561,378.132z"/>
							</g>
							<path id="XMLID_887_" style="&st1;" d="M399.112,298.75h-6.227c0.124-1.259,1.471-2.25,3.115-2.25
								C397.644,296.5,398.991,297.491,399.112,298.75z"/>
						</g>
					</g>
				</g>
				<g>
					<g>
						<path id="XMLID_886_" style="&st1;" d="M119.572,309.876h-6.227c0.124-1.259,1.471-2.25,3.115-2.25
							C118.104,307.626,119.451,308.617,119.572,309.876z"/>
						<g id="XMLID_882_">
							<path id="XMLID_885_" style="&st1;" d="M167.383,312.343L167.383,312.343c0.142,0.084,0.327,0.036,0.411-0.105l1.895-3.203
								c0.084-0.142,0.036-0.327-0.105-0.41l0,0c-0.142-0.084-0.327-0.036-0.411,0.105l-1.895,3.203
								C167.194,312.075,167.241,312.259,167.383,312.343z"/>
							<path id="XMLID_884_" style="&st1;" d="M167.581,312.344L167.581,312.344c0.16-0.041,0.257-0.205,0.216-0.365l-0.925-3.604
								c-0.041-0.16-0.205-0.257-0.365-0.216l0,0c-0.16,0.041-0.257,0.205-0.216,0.365l0.925,3.604
								C167.257,312.288,167.421,312.385,167.581,312.344z"/>
							<path id="XMLID_883_" style="&st1;" d="M167.373,312.283L167.373,312.283c0.07,0.099,0.208,0.123,0.307,0.054l2.241-1.575
								c0.099-0.07,0.123-0.208,0.054-0.307l0,0c-0.07-0.099-0.208-0.123-0.307-0.054l-2.241,1.575
								C167.327,312.045,167.303,312.183,167.373,312.283z"/>
						</g>
					</g>
					<g>
						<g id="XMLID_1069_">
							<path id="XMLID_1072_" style="&st1;" d="M391.839,315.592L391.839,315.592c0.142,0.084,0.327,0.036,0.41-0.105l1.895-3.203
								c0.084-0.142,0.036-0.327-0.105-0.41l0,0c-0.142-0.084-0.327-0.036-0.411,0.105l-1.895,3.203
								C391.65,315.323,391.697,315.508,391.839,315.592z"/>
							<path id="XMLID_1071_" style="&st1;" d="M392.037,315.592L392.037,315.592c0.16-0.041,0.257-0.205,0.216-0.365l-0.925-3.604
								c-0.041-0.16-0.205-0.257-0.365-0.216l0,0c-0.16,0.041-0.257,0.205-0.216,0.365l0.925,3.604
								C391.713,315.536,391.877,315.633,392.037,315.592z"/>
							<path id="XMLID_1070_" style="&st1;" d="M391.829,315.531L391.829,315.531c0.07,0.099,0.208,0.123,0.307,0.054l2.241-1.575
								c0.099-0.07,0.123-0.208,0.054-0.307l0,0c-0.07-0.099-0.208-0.123-0.307-0.054l-2.241,1.575
								C391.783,315.293,391.759,315.431,391.829,315.531z"/>
						</g>
						<g id="XMLID_1085_">
							<path id="XMLID_1088_" style="&st1;" d="M115.39,350.704L115.39,350.704c0.451,0.045,0.857-0.288,0.901-0.739l1.006-10.183
								c0.045-0.451-0.288-0.857-0.739-0.901l0,0c-0.451-0.045-0.857,0.288-0.901,0.739l-1.006,10.183
								C114.607,350.254,114.939,350.659,115.39,350.704z"/>
							<path id="XMLID_1087_" style="&st1;" d="M115.884,350.477L115.884,350.477c0.351-0.288,0.402-0.809,0.115-1.16l-6.49-7.912
								c-0.287-0.35-0.809-0.402-1.16-0.115l0,0c-0.35,0.288-0.402,0.809-0.115,1.16l6.49,7.912
								C115.012,350.712,115.534,350.764,115.884,350.477z"/>
							<path id="XMLID_1086_" style="&st1;" d="M115.294,350.564L115.294,350.564c0.289,0.167,0.662,0.066,0.829-0.223l3.759-6.529
								c0.166-0.289,0.066-0.662-0.223-0.829l0,0c-0.289-0.167-0.662-0.066-0.829,0.223l-3.759,6.529
								C114.904,350.025,115.004,350.398,115.294,350.564z"/>
						</g>
					</g>
				</g>
			</g>
			<g>
				<g id="XMLID_1089_">
					<path id="XMLID_1092_" style="&st1;" d="M395.527,346.741L395.527,346.741c0.336-0.091,0.537-0.441,0.446-0.777l-2.056-7.592
						c-0.091-0.336-0.441-0.537-0.777-0.446l0,0c-0.336,0.091-0.537,0.441-0.446,0.777l2.056,7.592
						C394.841,346.631,395.191,346.832,395.527,346.741z"/>
					<path id="XMLID_1091_" style="&st1;" d="M395.82,346.442L395.82,346.442c0.173-0.302,0.068-0.691-0.234-0.865l-6.822-3.914
						c-0.302-0.173-0.691-0.068-0.865,0.234l0,0c-0.173,0.302-0.068,0.691,0.234,0.865l6.822,3.914
						C395.257,346.85,395.647,346.745,395.82,346.442z"/>
					<path id="XMLID_1090_" style="&st1;" d="M395.419,346.667L395.419,346.667c0.253,0.041,0.494-0.133,0.535-0.386l0.919-5.717
						c0.041-0.253-0.133-0.494-0.386-0.534l0,0c-0.253-0.041-0.494,0.133-0.534,0.386l-0.919,5.717
						C394.992,346.385,395.166,346.626,395.419,346.667z"/>
				</g>
				<g id="XMLID_878_">
					<path id="XMLID_881_" style="&st1;" d="M193.077,319.004L193.077,319.004c0.266,0.157,0.612,0.068,0.77-0.198l3.553-6.005
						c0.157-0.266,0.069-0.612-0.197-0.77l0,0c-0.266-0.157-0.612-0.068-0.77,0.198l-3.553,6.005
						C192.722,318.5,192.811,318.847,193.077,319.004z"/>
					<path id="XMLID_880_" style="&st1;" d="M193.448,319.006L193.448,319.006c0.299-0.077,0.481-0.385,0.405-0.684l-1.734-6.758
						c-0.077-0.299-0.385-0.481-0.684-0.405l0,0c-0.299,0.077-0.481,0.385-0.405,0.684l1.734,6.758
						C192.841,318.901,193.148,319.083,193.448,319.006z"/>
					<path id="XMLID_879_" style="&st1;" d="M193.057,318.89L193.057,318.89c0.131,0.186,0.39,0.231,0.576,0.101l4.203-2.954
						c0.186-0.131,0.231-0.39,0.101-0.576l0,0c-0.131-0.186-0.39-0.231-0.576-0.1l-4.203,2.953
						C192.972,318.444,192.927,318.704,193.057,318.89z"/>
				</g>
			</g>
		</g>
		<g>
			<g id="XMLID_1073_">
				<path id="XMLID_1076_" style="&st1;" d="M467.06,316.126L467.06,316.126c0.308-0.023,0.542-0.294,0.519-0.602l-0.518-6.958
					c-0.023-0.308-0.294-0.541-0.602-0.519l0,0c-0.308,0.023-0.542,0.294-0.519,0.602l0.518,6.958
					C466.481,315.915,466.752,316.149,467.06,316.126z"/>
				<path id="XMLID_1075_" style="&st1;" d="M467.365,315.915L467.365,315.915c0.202-0.234,0.175-0.591-0.059-0.792l-5.286-4.554
					c-0.234-0.202-0.591-0.175-0.793,0.059l0,0c-0.202,0.234-0.175,0.591,0.059,0.792l5.286,4.554
					C466.807,316.176,467.163,316.149,467.365,315.915z"/>
				<path id="XMLID_1074_" style="&st1;" d="M466.979,316.043L466.979,316.043c0.214,0.078,0.453-0.033,0.53-0.247l1.76-4.826
					c0.078-0.214-0.033-0.452-0.247-0.53l0,0c-0.214-0.078-0.452,0.033-0.53,0.247l-1.76,4.826
					C466.654,315.727,466.765,315.965,466.979,316.043z"/>
			</g>
			<g id="XMLID_874_">
				<path id="XMLID_877_" style="&st1;" d="M138.584,317.301L138.584,317.301c0.309,0.002,0.563-0.25,0.565-0.559l0.035-6.977
					c0.001-0.309-0.25-0.563-0.559-0.565l0,0c-0.309-0.002-0.563,0.25-0.565,0.559l-0.035,6.977
					C138.023,317.045,138.275,317.299,138.584,317.301z"/>
				<path id="XMLID_876_" style="&st1;" d="M138.905,317.115L138.905,317.115c0.22-0.217,0.221-0.575,0.004-0.795L134,311.362
					c-0.217-0.22-0.575-0.221-0.795-0.004l0,0c-0.22,0.217-0.221,0.575-0.004,0.795l4.909,4.958
					C138.328,317.33,138.685,317.332,138.905,317.115z"/>
				<path id="XMLID_875_" style="&st1;" d="M138.51,317.212L138.51,317.212c0.207,0.095,0.454,0.003,0.548-0.204l2.137-4.671
					c0.095-0.207,0.003-0.454-0.204-0.548l0,0c-0.207-0.095-0.454-0.003-0.548,0.204l-2.137,4.671
					C138.211,316.871,138.303,317.117,138.51,317.212z"/>
			</g>
		</g>
	</g>
	<g>
		<g id="XMLID_837_">
			<g id="XMLID_865_">
				<rect id="XMLID_869_" x="245.894" style="&st9;" width="0.925" height="108.994"/>
				<rect id="XMLID_868_" x="250.363" style="&st9;" width="0.925" height="108.994"/>
				<rect id="XMLID_867_" x="254.832" style="&st9;" width="0.925" height="108.994"/>
				<rect id="XMLID_866_" x="259.302" style="&st9;" width="0.925" height="108.994"/>
			</g>
			<g id="XMLID_838_">
				<g id="XMLID_853_">
					<g id="XMLID_862_">
						<path id="XMLID_864_" style="&st6;" d="M257.46,130.168c-0.104,2.283-1.288,4.311-3.058,5.568
							c-0.208,0.15-0.428,0.289-0.655,0.413c-0.883,0.501-1.882,0.814-2.942,0.898c-0.324,0.023-0.644,0.027-0.96,0.016
							c-0.262-0.016-0.517-0.042-0.771-0.085c-1.519-0.247-2.88-0.964-3.925-1.997c-0.185-0.181-0.362-0.374-0.524-0.578
							c-0.976-1.191-1.573-2.703-1.623-4.35c0-0.131,0.104-0.239,0.239-0.239c0.046,0,0.092,0.015,0.131,0.042
							c0.004,0,0.008,0.004,0.012,0.008l0.054,0.054l1.758,1.762c0.301,0.301,0.628,0.559,0.979,0.767
							c0.227,0.139,0.463,0.258,0.702,0.355c0.698,0.289,1.45,0.42,2.198,0.389c0.258-0.012,0.517-0.042,0.771-0.092
							c0.258-0.05,0.513-0.12,0.763-0.208c0.139-0.05,0.281-0.108,0.416-0.174c0.235-0.104,0.463-0.231,0.683-0.378
							c0.285-0.189,0.555-0.409,0.806-0.659h0.004c2.02-2.024,2.02-5.298,0-7.322l-1.743-1.743
							c-0.154-0.154-0.239-0.363-0.239-0.578v-7.677c0-0.143,0.012-0.282,0.035-0.417c0.193-1.215,1.222-2.178,2.483-2.186
							c0.702,0,1.338,0.282,1.801,0.74c0.378,0.382,0.636,0.883,0.713,1.446c0.015,0.112,0.023,0.228,0.023,0.343v9.543
							c0,0.675,0.204,1.33,0.59,1.882C257.051,126.968,257.537,128.51,257.46,130.168z"/>
						<rect id="XMLID_863_" x="250.536" y="118.067" style="&st5;" width="5.055" height="2.506"/>
					</g>
					<path id="XMLID_861_" style="&st9;" d="M256.14,118.796h-5.785c-0.347,0-0.664-0.2-0.814-0.513l-4.418-9.229
						c-0.287-0.599,0.15-1.292,0.814-1.292h14.621c0.664,0,1.101,0.693,0.814,1.292l-4.418,9.229
						C256.804,118.596,256.488,118.796,256.14,118.796z"/>
					<g id="XMLID_854_">
						<path id="XMLID_860_" style="&st2;" d="M247.463,113.942l2.078,4.341c0.15,0.313,0.467,0.513,0.814,0.513h1.117l-2.024-4.854
							H247.463z"/>
						<polygon id="XMLID_859_" style="&st4;" points="249.484,113.942 249.449,113.942 251.473,118.796 253.552,118.796 
							251.529,113.942 						"/>
						<polygon id="XMLID_858_" style="&st2;" points="251.564,113.942 251.529,113.942 253.552,118.796 255.631,118.796 
							253.607,113.942 						"/>
						<path id="XMLID_857_" style="&st4;" d="M255.686,113.942h-2.043h-0.036l2.024,4.854h0.51c0.347,0,0.664-0.2,0.814-0.513
							l0.29-0.605L255.686,113.942z"/>
						<polygon id="XMLID_856_" style="&st2;" points="258.355,115.356 257.766,113.942 255.722,113.942 255.686,113.942 
							257.244,117.678 						"/>
						<polygon id="XMLID_855_" style="&st4;" points="259.033,113.942 257.801,113.942 257.766,113.942 258.355,115.356 						"/>
					</g>
				</g>
				<g id="XMLID_846_">
					<g id="XMLID_851_">
						<path id="XMLID_852_" style="&st5;" d="M246.875,132.802l-1.727,2.178c-0.185-0.181-0.362-0.374-0.524-0.578l1.55-1.955
							C246.401,132.586,246.636,132.705,246.875,132.802z"/>
					</g>
					<g id="XMLID_849_">
						<path id="XMLID_850_" style="&st5;" d="M254.402,135.736c-0.208,0.15-0.428,0.289-0.655,0.413l-2.722-3.432
							c0.235-0.104,0.463-0.231,0.683-0.378L254.402,135.736z"/>
					</g>
					<g id="XMLID_847_">
						<path id="XMLID_848_" style="&st5;" d="M249.845,133.099v3.964c-0.262-0.016-0.517-0.042-0.771-0.085v-3.786
							C249.332,133.18,249.59,133.149,249.845,133.099z"/>
					</g>
				</g>
				<g id="XMLID_839_">
					<g id="XMLID_844_">
						<path id="XMLID_845_" style="&st4;" d="M235.126,146.399c-0.084,0-0.169-0.027-0.24-0.083
							c-0.167-0.132-0.195-0.375-0.063-0.542l11.086-13.978c0.133-0.166,0.375-0.195,0.542-0.063
							c0.167,0.132,0.195,0.375,0.063,0.542l-11.086,13.978C235.352,146.349,235.24,146.399,235.126,146.399z"/>
					</g>
					<g id="XMLID_842_">
						<path id="XMLID_843_" style="&st4;" d="M262.697,146.399c-0.114,0-0.226-0.05-0.302-0.146l-11.086-13.978
							c-0.132-0.167-0.104-0.41,0.063-0.542c0.167-0.132,0.409-0.104,0.542,0.063l11.086,13.978c0.133,0.167,0.104,0.41-0.063,0.542
							C262.865,146.372,262.781,146.399,262.697,146.399z"/>
					</g>
					<g id="XMLID_840_">
						<path id="XMLID_841_" style="&st4;" d="M249.072,147.074c-0.213,0-0.386-0.173-0.386-0.386v-13.881
							c0-0.213,0.173-0.386,0.386-0.386c0.213,0,0.386,0.173,0.386,0.386v13.881C249.458,146.901,249.285,147.074,249.072,147.074z"
							/>
					</g>
				</g>
			</g>
		</g>
		<g>
			<g id="XMLID_822_">
				<g id="XMLID_1_">
					<path id="XMLID_5_" style="&st10;" d="M288.447,318.612H216.52c0,0,13.319-4.826,13.319-37.589h45.301
						c0,2.18,0.063,4.246,0.176,6.187C276.854,314.403,288.447,318.612,288.447,318.612z"/>
					<path id="XMLID_4_" style="&st10;" d="M288.651,319.868h-72.304c-0.243,0-0.441-0.197-0.441-0.441v-0.379
						c0-0.243,0.197-0.441,0.441-0.441h72.304c0.243,0,0.441,0.197,0.441,0.441v0.379
						C289.092,319.671,288.895,319.868,288.651,319.868z"/>
				</g>
				<path id="XMLID_2_" style="&st11;" d="M328.787,189.917v90.728c0,4.448-3.591,8.039-8.027,8.039H185.299
					c-4.448,0-8.039-3.591-8.039-8.039v-90.728c0-3.503,2.243-6.477,5.368-7.561c0.832-0.302,1.726-0.466,2.671-0.466H320.76
					C325.196,181.89,328.787,185.481,328.787,189.917z"/>
				<path id="XMLID_3_" style="&st5;" d="M328.784,189.919v84.26H177.259v-84.26c0-0.11,0-0.221,0.006-0.325
					c0.006-0.11,0.012-0.221,0.018-0.325c0.012-0.11,0.018-0.215,0.031-0.319c0.031-0.215,0.061-0.423,0.104-0.631
					c0.061-0.307,0.141-0.613,0.239-0.907c0.031-0.098,0.067-0.196,0.104-0.294c0.031-0.098,0.067-0.196,0.11-0.288
					c0.239-0.57,0.546-1.104,0.901-1.6c0.239-0.331,0.503-0.638,0.785-0.932c0.852-0.864,1.9-1.539,3.071-1.943
					c0.313-0.11,0.632-0.208,0.956-0.282c0.215-0.043,0.435-0.086,0.656-0.117c0.208-0.025,0.417-0.049,0.625-0.055
					c0.129-0.006,0.258-0.012,0.386-0.012H320.74c0.558,0,1.11,0.055,1.637,0.165c0.257,0.049,0.509,0.117,0.76,0.196
					c0.123,0.037,0.251,0.08,0.374,0.123c0.864,0.313,1.655,0.772,2.348,1.349c0.202,0.165,0.392,0.337,0.57,0.521
					C327.883,185.689,328.784,187.699,328.784,189.919z"/>
				<g id="XMLID_831_">
					<path id="XMLID_833_" style="&st11;" d="M286.385,318.612h-71.927c0,0,13.319-4.826,13.319-37.589h45.301
						c0,2.18,0.063,4.246,0.176,6.187C274.792,314.403,286.385,318.612,286.385,318.612z"/>
					<path id="XMLID_832_" style="&st10;" d="M286.589,319.868h-72.304c-0.243,0-0.441-0.197-0.441-0.441v-0.379
						c0-0.243,0.197-0.441,0.441-0.441h72.304c0.243,0,0.441,0.197,0.441,0.441v0.379
						C287.03,319.671,286.832,319.868,286.589,319.868z"/>
				</g>
				<path id="XMLID_830_" style="&st10;" d="M273.254,288.6c-0.643,0.189-1.424,0.29-2.369,0.29
					c-20.565,0-23.476,17.121-30.243,24.291c-3.087,3.251-6.364,4.751-9.022,5.431h-17.163c0,0,13.319-4.826,13.319-37.589h45.301
					C273.078,283.203,273.141,286.659,273.254,288.6z"/>
				<path id="XMLID_829_" style="&st4;" d="M326.204,189.917v90.728c0,4.448-3.591,8.039-8.027,8.039H182.715
					c-4.448,0-8.039-3.591-8.039-8.039v-90.728c0-3.503,2.243-6.477,5.368-7.561c0.832-0.302,1.726-0.466,2.671-0.466h135.462
					C322.613,181.89,326.204,185.481,326.204,189.917z"/>
				<path id="XMLID_782_" style="&st12;" d="M326.2,189.919v84.26H174.675v-84.26c0-0.11,0-0.221,0.006-0.325
					c0.006-0.11,0.012-0.221,0.018-0.325c0.012-0.11,0.018-0.215,0.031-0.319c0.031-0.215,0.061-0.423,0.104-0.631
					c0.061-0.307,0.141-0.613,0.239-0.907c0.031-0.098,0.067-0.196,0.104-0.294c0.031-0.098,0.067-0.196,0.11-0.288
					c0.239-0.57,0.546-1.104,0.901-1.6c0.239-0.331,0.503-0.638,0.785-0.932c0.852-0.864,1.9-1.539,3.071-1.943
					c0.313-0.11,0.632-0.208,0.956-0.282c0.215-0.043,0.435-0.086,0.656-0.117c0.208-0.025,0.417-0.049,0.625-0.055
					c0.129-0.006,0.258-0.012,0.386-0.012h135.487c0.558,0,1.11,0.055,1.637,0.165c0.258,0.049,0.509,0.117,0.76,0.196
					c0.123,0.037,0.251,0.08,0.374,0.123c0.864,0.313,1.655,0.772,2.348,1.349c0.202,0.165,0.392,0.337,0.57,0.521
					C325.299,185.689,326.2,187.699,326.2,189.919z"/>
				<circle id="XMLID_827_" style="&st11;" cx="249.545" cy="281.282" r="4.176"/>
				<path id="XMLID_823_" style="&st6;" d="M323.846,184.242c-0.178-0.184-0.368-0.356-0.57-0.521
					c-0.693-0.576-1.49-1.03-2.348-1.349c-0.123-0.043-0.251-0.086-0.374-0.123c-0.251-0.08-0.503-0.141-0.76-0.196
					c-0.527-0.11-1.079-0.165-1.637-0.165H182.67c-0.129,0-0.257,0.006-0.386,0.012c-0.208,0.006-0.417,0.031-0.625,0.055
					c-0.221,0.031-0.441,0.074-0.656,0.117c-1.25,0.266-2.394,0.832-3.353,1.614c0,0-0.001,0.001-0.001,0.001
					c-0.235,0.192-0.463,0.393-0.674,0.611c-0.288,0.288-0.552,0.601-0.785,0.932c-0.362,0.49-0.668,1.03-0.901,1.6
					c-0.043,0.092-0.08,0.19-0.11,0.288c-0.037,0.098-0.074,0.196-0.104,0.294c-0.104,0.294-0.184,0.595-0.239,0.907
					c-0.043,0.208-0.074,0.417-0.104,0.631c-0.012,0.104-0.018,0.208-0.031,0.319c-0.006,0.104-0.012,0.215-0.018,0.325
					c-0.012,0.104-0.012,0.215-0.012,0.325v84.26H326.2v-84.26C326.2,187.699,325.299,185.689,323.846,184.242z M319.898,266.294
					H180.971v-76.376c0-0.944,0.779-1.729,1.723-1.729h135.463c0.956,0,1.741,0.785,1.741,1.729V266.294z"/>
			</g>
			<g>
				<path id="XMLID_780_" style="&st13;" d="M317.532,181.888v64.629c0,2.93-2.379,5.309-5.309,5.309H192.46
					c-2.937,0-5.309-2.379-5.309-5.309v-64.629H317.532z"/>
				<g id="XMLID_803_">
					<path id="XMLID_820_" style="&st14;" d="M314.16,148.732v90.886c0,2.933-2.376,5.309-5.309,5.309H189.086
						c-2.933,0-5.309-2.376-5.309-5.309v-90.886c0-2.933,2.376-5.309,5.309-5.309h119.765
						C311.784,143.424,314.16,145.799,314.16,148.732z"/>
					<path id="XMLID_819_" style="&st2;" d="M314.16,148.732v18.122H183.777v-18.122c0-2.933,2.376-5.309,5.309-5.309h119.765
						C311.784,143.424,314.16,145.799,314.16,148.732z"/>
					<path id="XMLID_818_" style="&st4;" d="M303.01,158.842h-67.224c-2.107,0-3.816-1.708-3.816-3.816l0,0
						c0-2.107,1.708-3.816,3.816-3.816h67.224c2.107,0,3.816,1.708,3.816,3.816l0,0C306.826,157.133,305.117,158.842,303.01,158.842
						z"/>
					<circle id="XMLID_817_" style="&st15;" cx="196.228" cy="154.841" r="3.743"/>
					<circle id="XMLID_816_" style="&st16;" cx="205.809" cy="154.841" r="3.743"/>
					<circle id="XMLID_815_" style="&st17;" cx="215.389" cy="154.841" r="3.743"/>
					<path id="XMLID_814_" style="&st13;" d="M244.247,228.199h-46.485c-2.791,0-5.053-2.262-5.053-5.053v-38.401
						c0-2.79,2.262-5.053,5.053-5.053h46.485c2.79,0,5.053,2.262,5.053,5.053v38.401
						C249.299,225.936,247.037,228.199,244.247,228.199z"/>
					<path id="XMLID_813_" style="&st4;" d="M242.6,226.552h-46.485c-2.791,0-5.053-2.262-5.053-5.053v-38.401
						c0-2.791,2.262-5.053,5.053-5.053H242.6c2.791,0,5.053,2.262,5.053,5.053v38.401C247.653,224.29,245.39,226.552,242.6,226.552z
						"/>
					<path id="XMLID_812_" style="&st4;" d="M307.495,184.895h-54.111c-0.685,0-1.24-0.555-1.24-1.24v-0.44
						c0-0.685,0.555-1.24,1.24-1.24h54.111c0.685,0,1.24,0.555,1.24,1.24v0.44C308.734,184.34,308.179,184.895,307.495,184.895z"/>
					<path id="XMLID_811_" style="&st4;" d="M307.495,191.931h-54.111c-0.685,0-1.24-0.555-1.24-1.24v-0.44
						c0-0.685,0.555-1.24,1.24-1.24h54.111c0.685,0,1.24,0.555,1.24,1.24v0.44C308.734,191.376,308.179,191.931,307.495,191.931z"/>
					<path id="XMLID_810_" style="&st4;" d="M307.495,198.968h-54.111c-0.685,0-1.24-0.555-1.24-1.24v-0.44
						c0-0.685,0.555-1.24,1.24-1.24h54.111c0.685,0,1.24,0.555,1.24,1.24v0.44C308.734,198.413,308.179,198.968,307.495,198.968z"/>
					<path id="XMLID_809_" style="&st4;" d="M307.495,206.004h-54.111c-0.685,0-1.24-0.555-1.24-1.24v-0.44
						c0-0.685,0.555-1.24,1.24-1.24h54.111c0.685,0,1.24,0.555,1.24,1.24v0.44C308.734,205.449,308.179,206.004,307.495,206.004z"/>
					<path id="XMLID_808_" style="&st4;" d="M307.495,213.04h-54.111c-0.685,0-1.24-0.555-1.24-1.24v-0.44
						c0-0.685,0.555-1.24,1.24-1.24h54.111c0.685,0,1.24,0.555,1.24,1.24v0.44C308.734,212.486,308.179,213.04,307.495,213.04z"/>
					<path id="XMLID_773_" style="&st4;" d="M307.495,233.374h-54.111c-0.685,0-1.24-0.555-1.24-1.24v-0.44
						c0-0.685,0.555-1.24,1.24-1.24h54.111c0.685,0,1.24,0.555,1.24,1.24v0.44C308.734,232.819,308.179,233.374,307.495,233.374z"/>
					<path id="XMLID_774_" style="&st4;" d="M307.275,240.526h-114.33c-0.806,0-1.46-0.654-1.46-1.46l0,0
						c0-0.806,0.654-1.46,1.46-1.46h114.33c0.806,0,1.46,0.654,1.46,1.46l0,0C308.734,239.873,308.081,240.526,307.275,240.526z"/>
					<circle id="XMLID_807_" style="&st2;" cx="258.28" cy="221.724" r="4.751"/>
					<circle id="XMLID_806_" style="&st4;" cx="281.337" cy="221.724" r="4.751"/>
					<circle id="XMLID_805_" style="&st2;" cx="304.395" cy="221.724" r="4.751"/>
					<rect id="XMLID_804_" x="183.777" y="166.859" style="&st13;" width="130.383" height="2.397"/>
				</g>
			</g>
		</g>
	</g>
	<g>
		<g id="XMLID_801_">
			<rect id="XMLID_6_" x="160.583" y="399.165" style="&st18;" width="190.754" height="12.373"/>
		</g>
	</g>
	<path id="XMLID_768_" style="&st1;" d="M465.04,330.444H38.96c-2.923,0-5.293-2.37-5.293-5.293l0,0c0-2.923,2.37-5.293,5.293-5.293
		H465.04c2.923,0,5.293,2.37,5.293,5.293l0,0C470.333,328.074,467.964,330.444,465.04,330.444z"/>
	<g>
		<g>
			<g>
				<g>
					<g>
						<g>
							<g>
								<g>
									<g>
										<circle style="&st19;" cx="334.5" cy="136.75" r="2"/>
										<circle style="&st19;" cx="152.5" cy="161.75" r="2"/>
									</g>
									<circle style="&st19;" cx="202.5" cy="254.75" r="2"/>
								</g>
								<circle style="&st19;" cx="337.5" cy="192.75" r="2"/>
							</g>
							<g>
								<line style="&st20;" x1="280.5" y1="124.875" x2="285.688" y2="130.063"/>
								<line style="&st20;" x1="285.688" y1="124.875" x2="280.5" y2="130.063"/>
							</g>
						</g>
						<g>
							<line style="&st20;" x1="179.333" y1="121.708" x2="182.854" y2="125.229"/>
							<line style="&st20;" x1="182.854" y1="121.708" x2="179.333" y2="125.229"/>
						</g>
					</g>
					<g>
						<line style="&st20;" x1="155.333" y1="227.708" x2="158.854" y2="231.229"/>
						<line style="&st20;" x1="158.854" y1="227.708" x2="155.333" y2="231.229"/>
					</g>
				</g>
				<g>
					<line style="&st20;" x1="322.333" y1="236.708" x2="325.854" y2="240.229"/>
					<line style="&st20;" x1="325.854" y1="236.708" x2="322.333" y2="240.229"/>
				</g>
			</g>
			<g>
				<line style="&st20;" x1="236.5" y1="83" x2="236.5" y2="113"/>
				<line style="&st20;" x1="232.5" y1="95" x2="232.5" y2="113"/>
			</g>
		</g>
		<g>
			<line style="&st20;" x1="268.5" y1="76" x2="268.5" y2="113"/>
			<line style="&st20;" x1="272.5" y1="100" x2="272.5" y2="113"/>
		</g>
	</g>
	<g>
		<rect x="116.461" y="330.444" style="&st18;" width="308" height="85.985"/>
		<path style="&st4;" d="M119.039,330.451h1.45h7.969c2.09,0,3.723,0.525,4.9,1.574c1.177,1.051,1.765,2.503,1.765,4.358
			c0,2.041-0.588,3.638-1.765,4.79s-2.81,1.729-4.9,1.729c-2.744-0.01-4.912,0-6.504,0.029v9.053h-1.45h-1.465V330.451z
			 M121.954,340.412h5.786c1.514,0,2.622-0.319,3.325-0.959s1.055-1.644,1.055-3.011c0-1.211-0.352-2.097-1.055-2.659
			c-0.703-0.561-1.812-0.842-3.325-0.842h-5.786V340.412z"/>
		<path style="&st4;" d="M142.55,352.409c-1.533,0-2.749-0.41-3.647-1.23s-1.348-1.929-1.348-3.325c0-1.406,0.422-2.524,1.267-3.354
			s2.078-1.348,3.699-1.553l3.589-0.454c0.293-0.029,0.571-0.078,0.835-0.146c0.342-0.088,0.605-0.264,0.791-0.527
			s0.278-0.596,0.278-0.996v-0.132c0-0.84-0.317-1.496-0.952-1.97s-1.519-0.711-2.651-0.711c-1.084,0-1.931,0.252-2.542,0.754
			c-0.61,0.504-0.979,1.253-1.106,2.249h-2.432c0.127-1.719,0.732-3.011,1.816-3.874c1.084-0.865,2.637-1.297,4.658-1.297
			c1.904,0,3.354,0.413,4.351,1.238s1.494,2.028,1.494,3.61v8.613c0,0.264,0.081,0.476,0.242,0.638
			c0.161,0.16,0.378,0.241,0.652,0.241c0.078,0,0.193-0.01,0.344-0.029s0.315-0.049,0.491-0.088v1.904
			c-0.254,0.098-0.522,0.176-0.806,0.234s-0.522,0.088-0.718,0.088c-0.996,0-1.719-0.273-2.168-0.82
			c-0.293-0.361-0.503-0.874-0.63-1.538c-0.195,0.244-0.42,0.479-0.674,0.703C146.065,351.818,144.454,352.409,142.55,352.409z
			 M148.014,345.773v-1.699c-0.488,0.234-1.03,0.396-1.626,0.483l-2.417,0.352c-1.27,0.176-2.197,0.472-2.783,0.886
			c-0.586,0.416-0.879,0.979-0.879,1.692c0,0.879,0.239,1.556,0.718,2.028c0.479,0.475,1.157,0.711,2.036,0.711
			c1.387,0,2.559-0.376,3.516-1.128c0.654-0.527,1.089-1.123,1.304-1.787c0.039-0.127,0.068-0.327,0.088-0.601
			C147.999,346.428,148.014,346.115,148.014,345.773z"/>
		<path style="&st4;" d="M160.846,356.423c1.514,0,2.666-0.476,3.457-1.429c0.791-0.951,1.187-2.341,1.187-4.167v-0.513
			l-0.015,0.015c-1.084,1.387-2.5,2.08-4.248,2.08c-2.1,0-3.77-0.784-5.01-2.351c-1.24-1.568-1.86-3.685-1.86-6.351
			c0-2.354,0.61-4.253,1.831-5.698s2.817-2.168,4.79-2.168c1.885,0,3.379,0.815,4.482,2.446l0.19,0.278v-2.256h2.476v14.517
			c-0.01,2.646-0.605,4.604-1.787,5.874s-2.998,1.904-5.449,1.904c-1.777,0-3.188-0.41-4.233-1.23s-1.675-2.012-1.89-3.574h2.695
			c0.156,0.84,0.53,1.486,1.121,1.941C159.173,356.195,159.928,356.423,160.846,356.423z M161.358,338.244
			c-1.475,0-2.551,0.469-3.23,1.406s-1.018,2.427-1.018,4.468c0,1.924,0.369,3.405,1.106,4.446c0.737,1.039,1.785,1.56,3.142,1.56
			c1.279,0,2.31-0.479,3.091-1.436s1.172-2.222,1.172-3.794c0-2.217-0.354-3.879-1.062-4.988
			C163.851,338.799,162.784,338.244,161.358,338.244z"/>
		<path style="&st4;" d="M178.175,352.409c-2.217,0-3.96-0.703-5.229-2.109s-1.904-3.35-1.904-5.83c0-2.637,0.671-4.733,2.014-6.292
			c1.343-1.557,3.147-2.336,5.413-2.336c2.051,0,3.706,0.762,4.966,2.285s1.89,3.525,1.89,6.006l-0.031,0.938h-11.449
			c0.107,1.563,0.464,2.754,1.069,3.574c0.742,0.996,1.913,1.494,3.514,1.494c1.005,0,1.884-0.283,2.635-0.85
			c0.752-0.566,1.21-1.289,1.376-2.168h2.607c-0.391,1.719-1.172,3.03-2.344,3.934S180.021,352.409,178.175,352.409z
			 M182.575,342.946c-0.078-1.455-0.439-2.588-1.084-3.398c-0.713-0.898-1.758-1.348-3.135-1.348c-1.387,0-2.496,0.518-3.326,1.553
			c-0.655,0.811-1.05,1.875-1.187,3.193H182.575z"/>
		<path style="&st4;" d="M199.532,346.418c0,1.318,0.254,2.269,0.762,2.85s1.333,0.871,2.476,0.871c1.27,0,2.275-0.49,3.018-1.473
			c0.742-0.98,1.113-2.312,1.113-3.991v-8.364h1.318h1.318v15.674h-1.245h-1.26v-2.388c-0.176,0.283-0.371,0.552-0.586,0.806
			c-1.123,1.338-2.529,2.007-4.219,2.007c-1.777,0-3.11-0.444-3.999-1.333s-1.333-2.222-1.333-3.999v-10.767h1.318h1.318V346.418z"
			/>
		<path style="&st4;" d="M213.492,336.311h1.245h1.26v2.314l0.586-0.776c1.143-1.338,2.573-2.007,4.292-2.007
			c1.729,0,3.062,0.469,3.999,1.406s1.406,2.271,1.406,3.999v10.737h-1.318h-1.318v-9.844c0-1.377-0.266-2.37-0.798-2.98
			s-1.394-0.916-2.585-0.916c-1.27,0-2.275,0.481-3.018,1.443s-1.113,2.263-1.113,3.903v8.394h-1.318h-1.318V336.311z"/>
		<path style="&st4;" d="M236.153,352.409c-2.1,0-3.77-0.784-5.01-2.351c-1.24-1.568-1.86-3.685-1.86-6.351
			c0-2.354,0.601-4.253,1.802-5.698s2.769-2.168,4.702-2.168c1.924,0,3.447,0.815,4.57,2.446l0.205,0.293v-8.13h1.318h1.318v21.533
			h-1.216h-1.23v-2.139l-0.337,0.483C239.332,351.716,237.911,352.409,236.153,352.409z M236.3,338.215
			c-1.475,0-2.554,0.472-3.237,1.414s-1.025,2.438-1.025,4.489c0,1.934,0.369,3.423,1.106,4.468s1.79,1.567,3.157,1.567
			c1.279,0,2.31-0.48,3.091-1.442s1.172-2.234,1.172-3.816c0-2.139-0.369-3.787-1.106-4.943
			C238.719,338.793,237.667,338.215,236.3,338.215z"/>
		<path style="&st4;" d="M253.248,352.409c-2.217,0-3.96-0.703-5.229-2.109s-1.904-3.35-1.904-5.83c0-2.637,0.671-4.733,2.014-6.292
			c1.343-1.557,3.147-2.336,5.413-2.336c2.051,0,3.706,0.762,4.966,2.285s1.89,3.525,1.89,6.006l-0.031,0.938h-11.449
			c0.107,1.563,0.464,2.754,1.069,3.574c0.742,0.996,1.913,1.494,3.514,1.494c1.005,0,1.884-0.283,2.636-0.85
			c0.751-0.566,1.21-1.289,1.376-2.168h2.607c-0.391,1.719-1.172,3.03-2.344,3.934S255.094,352.409,253.248,352.409z
			 M257.648,342.946c-0.078-1.455-0.439-2.588-1.084-3.398c-0.713-0.898-1.758-1.348-3.136-1.348c-1.387,0-2.495,0.518-3.325,1.553
			c-0.655,0.811-1.05,1.875-1.187,3.193H257.648z"/>
		<path style="&st4;" d="M263.912,336.311h1.245h1.26v2.681c0.225-0.42,0.464-0.801,0.718-1.143
			c0.996-1.338,2.222-2.007,3.677-2.007c0.244,0,0.493,0.044,0.747,0.132v2.695l-0.542-0.015c-1.426,0-2.526,0.428-3.304,1.281
			c-0.775,0.855-1.164,2.073-1.164,3.655v8.394h-1.318h-1.318V336.311z"/>
		<path style="&st4;" d="M136.896,387.06c-0.371,2.656-1.389,4.739-3.054,6.247c-1.665,1.51-3.772,2.264-6.321,2.264
			c-2.969,0-5.334-1.022-7.097-3.068s-2.644-4.803-2.644-8.27s0.916-6.228,2.747-8.283s4.29-3.084,7.375-3.084
			c2.432,0,4.429,0.625,5.991,1.875s2.5,2.974,2.813,5.171h-2.813c-0.273-1.426-0.935-2.526-1.985-3.304
			c-1.05-0.775-2.4-1.164-4.05-1.164c-2.158,0-3.877,0.794-5.156,2.381c-1.279,1.587-1.918,3.723-1.918,6.408
			c0,2.852,0.593,5.024,1.779,6.519s2.908,2.241,5.164,2.241c1.67,0,3.057-0.515,4.16-1.545s1.836-2.493,2.197-4.388H136.896z"/>
		<path style="&st4;" d="M141.195,393.124c-1.343-1.523-2.014-3.521-2.014-5.991c0-2.48,0.671-4.482,2.014-6.006
			s3.098-2.285,5.266-2.285c2.188,0,3.95,0.762,5.288,2.285s2.007,3.525,2.007,6.006c0,2.471-0.669,4.468-2.007,5.991
			s-3.101,2.285-5.288,2.285C144.293,395.409,142.538,394.647,141.195,393.124z M149.771,391.513c0.82-1.084,1.23-2.544,1.23-4.38
			s-0.41-3.298-1.23-4.387s-1.924-1.634-3.311-1.634s-2.488,0.545-3.303,1.634s-1.223,2.551-1.223,4.387s0.408,3.296,1.223,4.38
			s1.917,1.626,3.303,1.626S148.951,392.597,149.771,391.513z"/>
		<path style="&st4;" d="M156.759,379.311h1.245h1.26v2.314l0.586-0.776c1.143-1.338,2.573-2.007,4.292-2.007
			c1.729,0,3.062,0.469,3.999,1.406s1.406,2.271,1.406,3.999v10.737h-1.318h-1.318v-9.844c0-1.377-0.266-2.37-0.798-2.98
			s-1.394-0.916-2.585-0.916c-1.27,0-2.275,0.481-3.018,1.443s-1.113,2.263-1.113,3.903v8.394h-1.318h-1.318V379.311z"/>
		<path style="&st4;" d="M182.419,383.852c-0.078-0.869-0.432-1.543-1.063-2.021c-0.63-0.479-1.478-0.718-2.542-0.718
			c-1.094,0-1.927,0.19-2.499,0.571c-0.571,0.381-0.857,0.938-0.857,1.67c0,0.557,0.2,0.977,0.601,1.26s1.196,0.566,2.388,0.85
			l2.725,0.645c1.524,0.371,2.613,0.884,3.268,1.538c0.647,0.645,0.971,1.548,0.971,2.71c0,1.553-0.559,2.783-1.677,3.691
			c-1.119,0.908-2.63,1.362-4.534,1.362c-2.208,0-3.853-0.437-4.937-1.312c-1.084-0.873-1.685-2.248-1.802-4.123h2.534
			c0.126,1.113,0.52,1.919,1.18,2.417s1.668,0.747,3.026,0.747c1.182,0,2.079-0.225,2.689-0.674c0.61-0.449,0.916-1.104,0.916-1.963
			c0-0.547-0.2-0.962-0.6-1.245c-0.401-0.283-1.207-0.566-2.417-0.85l-2.725-0.645c-1.475-0.352-2.525-0.845-3.15-1.479
			c-0.627-0.625-0.94-1.504-0.94-2.637c0-1.475,0.524-2.645,1.574-3.508c1.049-0.865,2.473-1.297,4.269-1.297
			c1.825,0,3.277,0.444,4.356,1.333c1.079,0.889,1.652,2.114,1.721,3.677H182.419z"/>
		<path style="&st4;" d="M194.2,394.97c-0.898,0.137-1.553,0.205-1.963,0.205c-1.152,0-1.965-0.254-2.439-0.762
			s-0.71-1.382-0.71-2.622v-10.327h-2.168v-2.153h2.168v-4.395h2.637v4.395h2.476v2.153h-2.476v10.327
			c0,0.352,0.139,0.63,0.417,0.835s0.652,0.308,1.121,0.308h0.938V394.97z"/>
		<path style="&st4;" d="M197.145,379.311h1.245h1.26v2.681c0.225-0.42,0.464-0.801,0.718-1.143
			c0.996-1.338,2.222-2.007,3.677-2.007c0.244,0,0.493,0.044,0.747,0.132v2.695l-0.542-0.015c-1.426,0-2.527,0.428-3.303,1.281
			c-0.776,0.855-1.165,2.073-1.165,3.655v8.394h-1.318h-1.318V379.311z"/>
		<path style="&st4;" d="M209.493,389.418c0,1.318,0.254,2.269,0.762,2.85s1.333,0.871,2.476,0.871c1.27,0,2.275-0.49,3.018-1.473
			c0.742-0.98,1.113-2.312,1.113-3.991v-8.364h1.318h1.318v15.674h-1.245h-1.26v-2.388c-0.176,0.283-0.371,0.552-0.586,0.806
			c-1.123,1.338-2.529,2.007-4.219,2.007c-1.777,0-3.11-0.444-3.999-1.333s-1.333-2.222-1.333-3.999v-10.767h1.318h1.318V389.418z"
			/>
		<path style="&st4;" d="M235.816,389.345c-0.273,1.973-0.972,3.477-2.095,4.512s-2.617,1.553-4.482,1.553
			c-2.08,0-3.74-0.747-4.98-2.241s-1.86-3.506-1.86-6.035s0.642-4.543,1.926-6.043c1.284-1.498,3.01-2.248,5.178-2.248
			c1.885,0,3.389,0.516,4.512,1.545c1.123,1.031,1.724,2.449,1.802,4.256h-2.534c-0.107-1.123-0.498-1.992-1.172-2.607
			s-1.572-0.923-2.695-0.923c-1.328,0-2.371,0.534-3.127,1.604c-0.757,1.068-1.135,2.541-1.135,4.416
			c0,1.992,0.352,3.491,1.055,4.497s1.748,1.509,3.135,1.509c1.025,0,1.882-0.33,2.571-0.988c0.688-0.66,1.145-1.595,1.37-2.806
			H235.816z"/>
		<path style="&st4;" d="M244.21,394.97c-0.898,0.137-1.553,0.205-1.963,0.205c-1.152,0-1.965-0.254-2.439-0.762
			s-0.71-1.382-0.71-2.622v-10.327h-2.168v-2.153h2.168v-4.395h2.637v4.395h2.476v2.153h-2.476v10.327
			c0,0.352,0.139,0.63,0.417,0.835s0.652,0.308,1.121,0.308h0.938V394.97z"/>
		<path style="&st4;" d="M246.847,373.451h2.695v2.988h-2.695V373.451z M246.876,379.311h1.318h1.318v15.674h-1.318h-1.318V379.311z
			"/>
		<path style="&st4;" d="M254.573,393.124c-1.343-1.523-2.014-3.521-2.014-5.991c0-2.48,0.671-4.482,2.014-6.006
			s3.099-2.285,5.267-2.285c2.188,0,3.95,0.762,5.288,2.285s2.007,3.525,2.007,6.006c0,2.471-0.669,4.468-2.007,5.991
			s-3.101,2.285-5.288,2.285C257.672,395.409,255.916,394.647,254.573,393.124z M263.15,391.513c0.82-1.084,1.23-2.544,1.23-4.38
			s-0.41-3.298-1.23-4.387s-1.924-1.634-3.311-1.634s-2.488,0.545-3.304,1.634s-1.223,2.551-1.223,4.387s0.407,3.296,1.223,4.38
			s1.917,1.626,3.304,1.626S262.33,392.597,263.15,391.513z"/>
		<path style="&st4;" d="M270.138,379.311h1.245h1.26v2.314l0.586-0.776c1.143-1.338,2.573-2.007,4.292-2.007
			c1.729,0,3.062,0.469,3.999,1.406s1.406,2.271,1.406,3.999v10.737h-1.318h-1.318v-9.844c0-1.377-0.267-2.37-0.799-2.98
			s-1.394-0.916-2.585-0.916c-1.27,0-2.275,0.481-3.018,1.443s-1.113,2.263-1.113,3.903v8.394h-1.318h-1.318V379.311z"/>
	</g>
	<g>
	</g>
	<g>
	</g>
	<g>
	</g>
	<g>
	</g>
	<g>
	</g>
	<g>
	</g>
	<g>
	</g>
	<g>
	</g>
	<g>
	</g>
	<g>
	</g>
	<g>
	</g>
	<g>
	</g>
	<g>
	</g>
	<g>
	</g>
	<g>
	</g>
</g>
</svg>
