<?xml version="1.0" encoding="utf-8"?>
<!-- Generator: Adobe Illustrator 21.0.0, SVG Export Plug-In . SVG Version: 6.00 Build 0)  -->
<svg version="1.1" id="Layer_1" xmlns="http://www.w3.org/2000/svg" xmlns:xlink="http://www.w3.org/1999/xlink" x="0px" y="0px"  width="32px" height="32px"
	 viewBox="0 0 3.555 3.554" style="enable-background:new 0 0 3.555 3.554;" xml:space="preserve">
<style type="text/css">
	.st0{fill:#4CD964;}
	.st1{fill-rule:evenodd;clip-rule:evenodd;fill:#FDFDFD;}
	.st2{fill-rule:evenodd;clip-rule:evenodd;fill:#FFFFFF;}
</style>
<g>
	<g>
		<g>
			<g>
				<circle class="st0" cx="1.777" cy="1.776" r="1.777"/>
				<g>
					<path class="st1" d="M2.288,2.717c-0.07,0-0.138-0.013-0.205-0.033C1.631,2.553,1.293,2.273,1.02,1.9
						C0.916,1.759,0.823,1.615,0.79,1.441c-0.036-0.209,0.023-0.386,0.18-0.529c0.049-0.046,0.199-0.065,0.26-0.036
						c0.021,0.01,0.036,0.028,0.047,0.053c0.057,0.134,0.112,0.269,0.168,0.402C1.456,1.357,1.45,1.383,1.438,1.409
						C1.41,1.471,1.364,1.52,1.316,1.572C1.282,1.607,1.28,1.641,1.306,1.684c0.16,0.265,0.38,0.458,0.667,0.573
						C2.018,2.275,2.05,2.269,2.079,2.233c0.049-0.06,0.1-0.119,0.144-0.181c0.031-0.042,0.067-0.048,0.11-0.028
						C2.43,2.066,2.524,2.112,2.62,2.158c0.022,0.01,0.042,0.019,0.064,0.028c0.097,0.05,0.095,0.05,0.087,0.157
						C2.754,2.55,2.598,2.655,2.413,2.704C2.372,2.717,2.331,2.717,2.288,2.717z"/>
					<g>
						<path class="st2" d="M2.467,1.108c0.075,0.064,0.129,0.15,0.174,0.241c0.033,0.072,0.055,0.15,0.07,0.23
							c0.001,0.016,0.008,0.032-0.007,0.049c-0.044,0.004-0.087,0.004-0.13,0.007c-0.016,0.003-0.021,0-0.023-0.017
							C2.532,1.468,2.47,1.337,2.368,1.23C2.219,1.068,2.033,0.99,1.813,0.996c-0.005,0-0.01,0-0.025,0
							C1.784,0.951,1.784,0.902,1.782,0.853c0.01-0.016,0.026-0.016,0.041-0.016c0.092,0,0.18,0.01,0.266,0.035
							C2.16,0.896,2.227,0.924,2.291,0.964c0.018,0.011,0.035,0.023,0.053,0.04C2.36,1.017,2.387,1.039,2.402,1.053
							C2.418,1.066,2.452,1.092,2.467,1.108z"/>
						<path class="st2" d="M2.254,1.23c0.12,0.104,0.193,0.235,0.218,0.392c0.003,0.02-0.002,0.026-0.021,0.026
							c-0.039,0-0.076,0.004-0.115,0.011c-0.012,0-0.017-0.004-0.017-0.018C2.299,1.503,2.23,1.395,2.118,1.317
							C2.034,1.259,1.939,1.23,1.836,1.232c-0.018,0-0.022-0.003-0.023-0.02c0-0.04-0.005-0.078-0.01-0.117
							c0-0.014,0.004-0.017,0.016-0.017C1.983,1.072,2.127,1.125,2.254,1.23z"/>
						<path class="st2" d="M2.092,1.677c-0.018-0.128-0.113-0.216-0.24-0.219c-0.013,0-0.018,0-0.018-0.014
							C1.832,1.406,1.829,1.366,1.823,1.326c0-0.012,0.002-0.016,0.014-0.016c0.189-0.014,0.384,0.15,0.404,0.341
							c0,0.013-0.004,0.013-0.014,0.013C2.183,1.667,2.14,1.674,2.092,1.677z"/>
					</g>
				</g>
			</g>
		</g>
	</g>
</g>
</svg>
