<?xml version="1.0" encoding="utf-8"?>
<!-- Generator: Adobe Illustrator 21.0.0, SVG Export Plug-In . SVG Version: 6.00 Build 0)  -->
<svg version="1.1" id="Layer_1" xmlns="http://www.w3.org/2000/svg" xmlns:xlink="http://www.w3.org/1999/xlink" x="0px" y="0px"
	 viewBox="0 0 127.8 77.2" style="enable-background:new 0 0 127.8 77.2;" xml:space="preserve" width="32px" height="32px" >
<style type="text/css">
	.st0{fill:#011627;}
	.st1{fill:#2EC4B6;}
</style>
<g>
	<path class="st0" d="M77.2,43.5v-9.3l-11.1-2.8c-0.7-2.8-1.9-5.5-3.3-7.9l5.9-8.8L62,8.2l-9.2,5.6c-2.3-1.4-4.8-2.4-7.4-3.1L43.3,0
		h-9.3l-2.6,10.5c-2.9,0.7-5.7,1.8-8.1,3.3l-8.9-6l-6.6,6.6l5.6,9.3c-1.5,2.5-2.6,5.2-3.3,8.1L0,33.7V43l9.9,2.5
		c0.7,2.8,1.8,5.5,3.2,7.9l-6.1,9l6.6,6.6l9.3-5.6c2.6,1.6,5.4,2.7,8.4,3.4l2,10.4h9.3l2.6-10.5c2.7-0.7,5.3-1.8,7.7-3.3l8.9,6
		l6.6-6.6l-5.6-9.3c1.4-2.4,2.5-5,3.2-7.8L77.2,43.5z M38.4,58.2c-10.6,0-19.1-8.6-19.1-19.1c0-10.6,8.6-19.1,19.1-19.1
		c10.6,0,19.1,8.6,19.1,19.1C57.5,49.6,49,58.2,38.4,58.2z"/>
</g>
<g>
	<path class="st1" d="M124.8,51.4v-6.3l-7.5-1.9c-0.5-1.9-1.3-3.7-2.2-5.3l4-5.9l-4.4-4.4l-6.2,3.7c-1.5-0.9-3.2-1.6-5-2.1l-1.4-7.2
		h-6.3l-1.8,7.1c-2,0.5-3.8,1.2-5.5,2.2l-6-4L78,31.8l3.8,6.2c-1,1.7-1.8,3.5-2.2,5.4l-6.7,1.3V51l6.7,1.6c0.5,1.9,1.2,3.7,2.2,5.3
		l-4.1,6.1l4.4,4.4l6.3-3.8c1.7,1.1,3.6,1.8,5.7,2.3l1.4,7h6.3l1.8-7.1c1.8-0.5,3.6-1.2,5.2-2.2l6,4l4.4-4.4l-3.8-6.3
		c1-1.6,1.7-3.4,2.2-5.2L124.8,51.4z M98.7,61.2c-7.1,0-12.9-5.8-12.9-12.9s5.8-12.9,12.9-12.9c7.1,0,12.9,5.8,12.9,12.9
		S105.8,61.2,98.7,61.2z"/>
</g>
<g>
</g>
<g>
</g>
<g>
</g>
<g>
</g>
<g>
</g>
<g>
</g>
<g>
</g>
<g>
</g>
<g>
</g>
<g>
</g>
<g>
</g>
<g>
</g>
<g>
</g>
<g>
</g>
<g>
</g>
</svg>
