<?xml version="1.0" encoding="utf-8"?>
<!-- Generator: Adobe Illustrator 21.0.0, SVG Export Plug-In . SVG Version: 6.00 Build 0)  -->
<svg version="1.1" id="Layer_1" xmlns="http://www.w3.org/2000/svg" xmlns:xlink="http://www.w3.org/1999/xlink" x="0px" y="0px" width="18px" height="18px"
	 viewBox="0 0 86.556 86.555" style="enable-background:new 0 0 86.556 86.555;" xml:space="preserve">
<style type="text/css">
	.st0{fill:#FFCE00;}
	.st1{fill:#261F11;}
	.st2{fill:#483D23;}
	.st3{fill:#562912;}
</style>
<g>
	<circle class="st0" cx="43.278" cy="43.277" r="43.278"/>
	<g>
		<g>
			<g>
				<path class="st1" d="M50.836,25.385c-2.765,0.921-6.187,1.071-7.554,1.097c-1.364-0.025-4.803-0.176-7.564-1.097
					c-5.264-1.754-13.73-2.861-20.186-2.709c-4.779,0.117-9.728,0.76-12.811,1.379c-1.368,0.276-2.237,1.619-1.922,2.977
					l0.329,1.414c0.193,0.824,0.83,1.432,1.627,1.715c0.411,0.147,0.807,0.415,0.985,0.897c0.553,1.487,3.548,10.324,5.17,13.589
					c1.329,2.673,4.928,4.965,13.295,4.997c11.907,0.048,16.032-7.826,17.925-12.913c0.198-0.531,0.5-1.549,0.77-2.536
					c0.389-1.413,1.246-2.804,1.631-3.004c0.225-0.114,0.493-0.211,0.749-0.211c0.266,0,0.53,0.097,0.759,0.211
					c0.38,0.2,1.219,1.591,1.614,3.004c0.27,0.987,0.566,2.005,0.766,2.536c1.892,5.087,6.017,12.961,17.923,12.913
					c8.368-0.032,11.971-2.324,13.296-4.997c1.621-3.265,4.613-12.102,5.174-13.589c0.178-0.482,0.572-0.75,0.984-0.897
					c0.797-0.283,1.433-0.891,1.627-1.715l0.33-1.415c0.314-1.358-0.557-2.7-1.924-2.976c-3.081-0.619-8.032-1.262-12.809-1.379
					C64.561,22.523,56.098,23.631,50.836,25.385z"/>
			</g>
			<g>
				<path class="st2" d="M48.863,33.275c0.25,5.767,5.867,11.312,11.124,12.584c7.728,1.872,13.54,0.205,16.836-6.899
					c0.993-2.143,3.117-6.812,2.98-9.303c-0.237-4.326-5.731-3.566-9.237-3.654C70.191,25.996,48.52,25.387,48.863,33.275z"/>
			</g>
			<g>
				<path class="st2" d="M37.909,33.275c-0.25,5.767-5.866,11.312-11.124,12.584c-7.727,1.872-13.54,0.205-16.835-6.899
					c-0.992-2.143-3.117-6.812-2.981-9.303c0.237-4.326,5.731-3.566,9.237-3.654C16.581,25.996,38.252,25.387,37.909,33.275z"/>
			</g>
		</g>
	</g>
	<g>
		<path class="st3" d="M52.508,65.417c-1.147,0-2.318-0.085-3.507-0.263c-1.156-0.175-1.952-1.253-1.779-2.409
			c0.174-1.153,1.244-1.949,2.408-1.778c6.696,1.001,12.649-1.528,15.158-6.456c0.531-1.041,1.806-1.454,2.847-0.924
			c1.042,0.53,1.455,1.806,0.925,2.847C65.675,62.095,59.586,65.417,52.508,65.417z"/>
	</g>
</g>
<g>
</g>
<g>
</g>
<g>
</g>
<g>
</g>
<g>
</g>
<g>
</g>
<g>
</g>
<g>
</g>
<g>
</g>
<g>
</g>
<g>
</g>
<g>
</g>
<g>
</g>
<g>
</g>
<g>
</g>
</svg>
