<?xml version="1.0" encoding="utf-8"?>
<!-- Generator: Adobe Illustrator 21.0.0, SVG Export Plug-In . SVG Version: 6.00 Build 0)  -->
<svg version="1.1" id="Layer_1" xmlns="http://www.w3.org/2000/svg" xmlns:xlink="http://www.w3.org/1999/xlink" x="0px" y="0px" width="32px" height="32px"
	 viewBox="0 0 175.9 175.9" style="enable-background:new 0 0 175.9 175.9;" xml:space="preserve">
<style type="text/css">
	.st0{fill:url(#SVGID_1_);}
	.st1{fill:#020202;}
	.st2{fill:#FFFFFF;}
</style>
<g>
	<g>
		<radialGradient id="SVGID_1_" cx="82.2668" cy="188.8698" r="225.6712" gradientUnits="userSpaceOnUse">
			<stop  offset="9.183670e-02" style="stop-color:#FAF707"/>
			<stop  offset="0.7296" style="stop-color:#FFFC00"/>
		</radialGradient>
		<path class="st0" d="M175.9,139.8c0,20-16.2,36.1-36.1,36.1H36.1c-20,0-36.1-16.2-36.1-36.1V36.1C0,16.2,16.2,0,36.1,0h103.7
			c20,0,36.1,16.2,36.1,36.1V139.8z"/>
		<g>
			<path class="st1" d="M57.1,48.9c0.2-0.5,0.5-1,0.7-1.5c1.5-3,3.4-5.7,5.7-8.1c2-2,4.2-3.8,6.6-5.2c2.1-1.2,4.4-2.2,6.7-2.9
				c1.9-0.6,3.9-1,5.8-1.2c1.9-0.2,3.8-0.3,5.7-0.3c1.9,0,3.8,0.1,5.7,0.4c2,0.3,4.1,0.8,6,1.4c2.4,0.8,4.6,1.8,6.8,3.1
				c2.4,1.5,4.7,3.4,6.6,5.5c2.3,2.6,4.1,5.5,5.5,8.6c2.6,5.9,1.9,16.5,1.4,25c-0.1,1.3-0.2,2.7-0.2,3.9l0,0.5l0.3,0.4
				c0.1,0.2,1.5,1.6,4.5,1.7h0.1h0c1.3,0,2.6-0.3,3.9-0.7c1.1-0.4,2.2-1,3.4-1.2c1.3-0.3,3.5,0.3,4.3,1.3c0.8,1-0.1,2.2-0.8,2.8
				c-1.1,0.9-2.4,1.5-3.7,2c-0.5,0.2-1,0.4-1.7,0.6c-3,0.9-7.4,2.4-8.9,5.9c-0.8,2-0.6,4.3,0.7,7c0.5,1.2,9,20.2,27.9,23.4
				c0,0.1,0,0.2-0.1,0.3c-0.3,0.8-2.4,3.4-15.1,5.3c-2,0.3-2.5,2.5-3,5.1c-0.2,0.9-0.4,1.9-0.7,2.8c-0.1,0.3-0.1,0.3-0.4,0.3
				c0,0-0.1,0-0.1,0c-0.6,0-1.4-0.1-2.4-0.3c-1.8-0.3-4.3-0.8-7.4-0.8c-1.8,0-3.6,0.1-5.4,0.5c-3.9,0.7-7.1,2.9-10.4,5.3
				c-2.1,1.5-4.1,2.9-6.4,4c-2.5,1.2-5.1,2.1-7.8,2.3c-0.6,0.1-1.2,0.1-1.8,0.1c-2.9,0.1-5.8-0.2-8.6-1.1c-2.4-0.8-4.7-2.1-6.8-3.5
				c-0.9-0.6-1.7-1.2-2.6-1.8c-3.4-2.4-6.5-4.6-10.4-5.3c-1.8-0.3-3.6-0.5-5.4-0.5c-3.2,0-5.6,0.5-7.4,0.8c-1,0.2-1.8,0.4-2.4,0.4
				c-0.5,0-0.5,0-0.6-0.4c-0.3-1-0.5-1.9-0.7-2.9c-0.6-2.6-1.1-4.8-3-5.1c-12.7-2-14.8-4.6-15.1-5.3c0-0.1-0.1-0.2-0.1-0.3
				c19-3.1,27.4-22.1,27.9-23.4c1.3-2.6,1.5-5,0.7-7c-1.5-3.5-6-5-8.9-5.9c-0.7-0.2-1.3-0.4-1.7-0.6c-1.7-0.7-7.1-3.2-3.6-5.3
				c0.8-0.5,1.6-0.8,2.5-0.7c0.9,0.1,1.8,0.5,2.6,0.8c1.7,0.6,3.5,1.1,5.4,1.1c3.3,0,4.8-1.5,4.9-1.7l0.3-0.4l0-0.5
				c-0.1-1.2-0.1-2.6-0.2-3.9C55.1,65.3,54.5,54.7,57.1,48.9z M71.7,29.9c-3.6,1.6-6.8,3.7-9.5,6.3c-3.3,3.1-6,7-7.9,11.4
				c-2.9,6.5-2.2,17.5-1.7,26.4l0,0c0.1,0.9,0.1,1.9,0.2,2.9c-0.4,0.2-1.1,0.4-2.1,0.4c-1.5,0-3-0.4-4.4-1c-1.2-0.5-2.4-1-3.8-1
				c-1.3,0-2.6,0.4-3.7,1.1c-1.5,0.9-2.5,2.1-2.8,3.5c-0.2,0.9-0.2,2.7,1.9,4.6c1.1,1,2.7,1.9,4.9,2.8c0.6,0.2,1.2,0.4,1.9,0.6
				c2.4,0.8,6.1,1.9,7,4.2c0.5,1.1,0.3,2.6-0.6,4.4c0,0,0,0.1-0.1,0.1c-1.1,2.6-2.6,5-4.3,7.3c-2.6,3.5-5.6,6.8-9.2,9.3
				c-1.9,1.3-3.9,2.4-6,3.3c-1.9,0.7-3.9,1.1-5.9,1.6c-1.6,0.4-2.9,1.5-2.8,3.3c0,0.5,0.1,0.9,0.3,1.3c0.6,1.5,2.1,2.7,4.4,3.8
				c2.9,1.3,7.2,2.4,12.8,3.3c0.3,0.5,0.6,1.9,0.8,2.8c0.2,1,0.4,2,0.7,3.1c0.3,1.2,1.2,2.6,3.5,2.6c0.9,0,1.8-0.2,3-0.4
				c1.7-0.3,4-0.8,6.8-0.8c1.6,0,3.2,0.1,4.9,0.4c3.2,0.5,5.9,2.5,9.1,4.7c0.3,0.2,0.5,0.4,0.8,0.6c2,1.4,4,2.7,6.1,3.8
				c2.4,1.2,5,2,7.6,2.4c1.5,0.2,3.1,0.2,4.6,0.2c1.7,0,3.4-0.1,5.1-0.4c2.6-0.5,5.1-1.5,7.4-2.7c1.1-0.6,2.1-1.2,3.1-1.9
				c0.9-0.6,2-1.2,2.8-2v0c3.2-2.3,5.9-4.2,9.1-4.7c1.7-0.3,3.3-0.4,4.9-0.4c2.7,0,4.9,0.4,6.8,0.7c1.3,0.2,2.2,0.4,3,0.4h0.1h0.1
				c1.7,0,2.9-0.9,3.3-2.5c0.3-1.1,0.5-2,0.7-3c0.2-0.9,0.5-2.3,0.8-2.8c5.6-0.9,9.9-2,12.7-3.3c2.3-1.1,3.8-2.3,4.4-3.8
				c0.2-0.4,0.3-0.9,0.3-1.3c0.1-1.6-1-2.9-2.6-3.2c-17.4-2.9-25.3-20.8-25.6-21.5c0-0.1-0.1-0.1-0.1-0.1c-0.9-1.8-1.1-3.3-0.6-4.4
				c1-2.2,4.6-3.4,7-4.2c0.7-0.2,1.4-0.4,1.9-0.6c2.4-0.9,4.1-2,5.2-3.1c1.3-1.4,1.6-2.7,1.6-3.6c-0.1-3.4-3.4-5.2-6.4-5.3
				c-1.4,0-3.2,0.5-4.5,1c-1.3,0.5-2.7,0.9-4.2,1c-0.8,0-1.4-0.2-1.8-0.4c0.1-0.8,0.1-1.6,0.2-2.5l0-0.4c0.5-8.9,1.3-19.9-1.7-26.4
				c-2-4.5-4.7-8.3-8-11.5c-2.8-2.6-6-4.7-9.5-6.3c-3.6-1.6-7.5-2.6-11.5-3c-1.5-0.1-3.1-0.3-4.6-0.3c-3.3,0-6.8,0.4-10,1.2
				C75.9,28.3,73.8,29,71.7,29.9z"/>
			<path class="st2" d="M135,126.9c12.7-2,14.7-4.6,15.1-5.3c0.1-0.1,0.1-0.2,0.1-0.3c-19-3.1-27.4-22.1-27.9-23.4
				c-1.3-2.7-1.5-5-0.7-7c1.5-3.5,6-5,8.9-5.9c0.7-0.2,1.3-0.4,1.7-0.6c1.3-0.5,2.6-1.1,3.7-2c0.8-0.6,1.7-1.9,0.8-2.8
				c-0.9-1-3.1-1.6-4.3-1.3c-1.2,0.3-2.3,0.9-3.4,1.2c-1.3,0.4-2.6,0.7-3.9,0.7h0h-0.1c-3-0.1-4.4-1.5-4.5-1.7l-0.3-0.4l0-0.5
				c0.1-1.3,0.1-2.6,0.2-3.9c0.5-8.5,1.2-19.1-1.4-25c-1.4-3.1-3.2-6-5.5-8.6c-1.9-2.2-4.1-4-6.6-5.5c-2.1-1.3-4.4-2.4-6.8-3.1
				c-2-0.7-4-1.1-6-1.4c-1.9-0.3-3.8-0.3-5.7-0.4c-1.9,0-3.8,0.1-5.7,0.3c-2,0.2-3.9,0.7-5.8,1.2c-2.3,0.7-4.6,1.7-6.7,2.9
				c-2.4,1.4-4.7,3.1-6.6,5.2c-2.3,2.4-4.2,5.1-5.7,8.1c-0.2,0.5-0.5,1-0.7,1.5c-2.6,5.9-1.9,16.4-1.4,25c0.1,1.3,0.2,2.7,0.2,3.9
				l0,0.5l-0.3,0.4c-0.2,0.2-1.6,1.7-4.9,1.7c-1.8,0-3.7-0.5-5.4-1.1c-0.9-0.3-1.7-0.8-2.6-0.8c-0.9-0.1-1.7,0.2-2.5,0.7
				c-3.5,2.1,1.9,4.7,3.6,5.3c0.4,0.2,1,0.4,1.7,0.6c3,0.9,7.4,2.4,8.9,5.9c0.8,2,0.6,4.4-0.7,7c-0.5,1.3-9,20.2-27.9,23.4
				c0,0.1,0,0.2,0.1,0.3c0.3,0.8,2.4,3.4,15.1,5.3c2,0.3,2.5,2.5,3,5.1c0.2,0.9,0.4,1.9,0.7,2.9c0.1,0.3,0.1,0.4,0.6,0.4
				c0.6,0,1.4-0.2,2.4-0.4c1.8-0.4,4.3-0.8,7.4-0.8c1.8,0,3.6,0.1,5.4,0.5c3.9,0.7,7.1,2.9,10.4,5.3c0.9,0.6,1.7,1.2,2.6,1.8
				c2.1,1.4,4.4,2.7,6.8,3.5c2.8,0.9,5.7,1.2,8.6,1.1c0.6,0,1.2,0,1.8-0.1c2.7-0.3,5.4-1.1,7.8-2.3c2.2-1.1,4.3-2.6,6.4-4
				c3.4-2.4,6.5-4.6,10.4-5.3c1.8-0.3,3.6-0.5,5.4-0.5c3.2,0,5.6,0.4,7.4,0.8c1,0.2,1.8,0.3,2.4,0.3c0.1,0,0.1,0,0.1,0
				c0.3,0,0.3,0,0.4-0.3c0.3-1,0.5-1.9,0.7-2.8C132.5,129.5,133,127.2,135,126.9z"/>
		</g>
	</g>
</g>
</svg>
