<?xml version="1.0" encoding="utf-8"?>
<!-- Generator: Adobe Illustrator 21.0.0, SVG Export Plug-In . SVG Version: 6.00 Build 0)  -->
<svg version="1.1" id="Layer_1" xmlns="http://www.w3.org/2000/svg" xmlns:xlink="http://www.w3.org/1999/xlink" x="0px" y="0px" width="32px" height="32px"
	 viewBox="0 0 175.9 175.9" style="enable-background:new 0 0 175.9 175.9;" xml:space="preserve">
<style type="text/css">
	.st0{fill:url(#SVGID_1_);}
	.st1{fill:url(#SVGID_2_);}
	.st2{fill:url(#SVGID_3_);}
</style>
<g>
	<g>
		<radialGradient id="SVGID_1_" cx="82.0072" cy="211.3112" r="226.3159" gradientUnits="userSpaceOnUse">
			<stop  offset="0.2602" style="stop-color:#36B649"/>
			<stop  offset="0.7602" style="stop-color:#57C965"/>
		</radialGradient>
		<path class="st0" d="M175.9,139.8c0,20-16.2,36.1-36.1,36.1H36.1c-20,0-36.1-16.2-36.1-36.1V36.1C0,16.2,16.2,0,36.1,0h103.6
			c20,0,36.1,16.2,36.1,36.1V139.8z"/>
		<g>
			<radialGradient id="SVGID_2_" cx="63.6881" cy="156.441" r="138.8333" gradientUnits="userSpaceOnUse">
				<stop  offset="0.2194" style="stop-color:#E7E7E7"/>
				<stop  offset="0.8827" style="stop-color:#FCFCFC"/>
			</radialGradient>
			<path class="st1" d="M89.1,23.1c-35.5,0-64.2,28.8-64.2,64.2c0,12,3.3,23.2,9,32.8l-8.1,32.7l32.2-9.3c9.2,5.1,19.8,8.1,31.1,8.1
				c35.5,0,64.2-28.8,64.2-64.2C153.4,51.9,124.6,23.1,89.1,23.1z M89.9,140.9c-11.2,0-21.6-3.5-30.2-9.4l-18.3,5.3l4.7-18.9
				c-6-8.6-9.5-19.1-9.5-30.3c0-29.5,23.9-53.3,53.3-53.3c29.5,0,53.3,23.9,53.3,53.3C143.2,117,119.3,140.9,89.9,140.9z"/>
			<radialGradient id="SVGID_3_" cx="65.1548" cy="127.3582" r="62.1087" gradientUnits="userSpaceOnUse">
				<stop  offset="0.2194" style="stop-color:#E7E7E7"/>
				<stop  offset="0.8827" style="stop-color:#FFFFFF"/>
			</radialGradient>
			<path class="st2" d="M72.9,82.3c0.7-0.9,1.5-1.7,2.2-2.6c1.3-1.5,3.1-2.9,3.2-4.9c0.1-2-0.6-4-1.3-5.8c-0.5-1.2-0.9-2.3-1.4-3.5
				c-0.8-2.1-1.9-5.1-3-6.4c-1.6-1.7-4.3-2.1-6.5-1c0,0-12.6,6.1-8.7,18.2c0,0,7.5,34.2,45.3,41.2c0,0,13.6,1.9,17.2-6.3
				c0.8-1.8,1.3-4.3,1.2-6.2c-0.1-1.9-1.5-3.1-3-4c-2-1.1-3.8-2.2-6-3.3c-2-1-4.2-2.4-6.5-1.8c-1.7,0.5-2.9,2-4,3.2
				c-1.5,1.6-3,3.1-4.5,4.6C97.1,103.6,78,96.6,72.9,82.3z"/>
		</g>
	</g>
</g>
</svg>
