<?xml version="1.0" encoding="utf-8"?>
<!-- Generator: Adobe Illustrator 21.0.0, SVG Export Plug-In . SVG Version: 6.00 Build 0)  -->
<svg version="1.1" id="Layer_1" xmlns="http://www.w3.org/2000/svg" xmlns:xlink="http://www.w3.org/1999/xlink" x="0px" y="0px" width="32px" height="32px"
	 viewBox="0 0 175.9 175.9" style="enable-background:new 0 0 175.9 175.9;" xml:space="preserve">
<style type="text/css">
	.st0{fill:#FFFFFF;}
	.st1{fill:url(#SVGID_1_);}
	.st2{fill:#E8E0E0;}
</style>
<path class="st0" d="M0,36.1C0,16.2,16.2,0,36.1,0h103.7c19.9,0,36.1,16.2,36.1,36.1v103.6c0,20-16.2,36.1-36.1,36.1"/>
<path class="st0" d="M36.1,175.9c-20,0-36.1-16.2-36.1-36.1"/>
<g>
	<radialGradient id="SVGID_1_" cx="85.8055" cy="151.2631" r="127.1925" gradientUnits="userSpaceOnUse">
		<stop  offset="0.1684" style="stop-color:#C2181E"/>
		<stop  offset="0.7653" style="stop-color:#DE2925"/>
	</radialGradient>
	<path class="st1" d="M154.1,103.9c0,16.7-5.7,30.2-22.4,30.2H46c-16.7,0-24.1-13.5-24.1-30.2V72c0-16.7,6.8-30.2,23.4-30.2h87.1
		c16.7,0,21.7,13.5,21.7,30.2V103.9z"/>
	<g>
		<polygon class="st0" points="74.7,69.9 110.7,88.7 74.7,107.5 		"/>
		<polygon class="st2" points="74.7,70.2 106,91.2 110.7,88.7 77.5,71.4 74.7,70.2 		"/>
	</g>
</g>
</svg>
