<?xml version="1.0" encoding="utf-8"?>
<!-- Generator: Adobe Illustrator 21.0.0, SVG Export Plug-In . SVG Version: 6.00 Build 0)  -->
<svg version="1.1" xmlns="http://www.w3.org/2000/svg" xmlns:xlink="http://www.w3.org/1999/xlink" x="0px" y="0px"
	 viewBox="0 0 500 500" style="enable-background:new 0 0 500 500;" xml:space="preserve">
<style type="text/css">
	.st0{fill:#011627;}
	.st1{fill:#F6FEFF;}
	.st2{fill:#FAFCFB;}
	.st3{fill:none;stroke:#2A4074;stroke-width:5;stroke-miterlimit:10;}
	.st4{fill:#D65108;}
	.st5{fill:#2D2A44;}
	.st6{fill:#F6FEFF;stroke:#F6FEFF;stroke-width:3;stroke-miterlimit:10;}
	.st7{fill:#2A4074;}
	.st8{fill:#EEE8E0;}
	.st9{fill:#F4CC37;}
</style>
<g id="Background">
	<rect class="st0" width="500" height="500"/>
</g>
<g id="Objects">
	<g>
		<g>
			<g>
				<path class="st1" d="M150.654,97.839c-0.11,0.416-0.166,0.806-0.166,1.17c0,0.062-0.104,0.088-0.312,0.078
					c-0.514-0.026-1.149-0.039-1.906-0.039c-0.806,0-1.525,0.016-2.155,0.049c-0.094,0.006-0.153-0.001-0.175-0.022
					c-0.023-0.021-0.034-0.071-0.034-0.149c0-0.084,0.07-0.133,0.209-0.146c0.318-0.033,0.478-0.203,0.478-0.512v-4.5
					c0-0.228-0.031-0.396-0.093-0.507c-0.075-0.13-0.218-0.231-0.429-0.302c-0.126-0.045-0.182-0.119-0.166-0.22
					c0.01-0.071,0.031-0.114,0.063-0.126c0.032-0.013,0.117-0.011,0.253,0.005c0.475,0.052,1.04,0.049,1.697-0.01
					c0.117-0.01,0.184-0.013,0.2-0.01c0.065,0.01,0.103,0.054,0.112,0.131c0.01,0.088-0.012,0.148-0.063,0.181
					c-0.02,0.013-0.086,0.032-0.2,0.059c-0.228,0.052-0.37,0.111-0.429,0.178c-0.059,0.067-0.088,0.207-0.088,0.422v4.363
					c0,0.273,0.092,0.459,0.275,0.559s0.518,0.148,1.002,0.148c0.461,0,0.804-0.059,1.026-0.178s0.404-0.342,0.543-0.67
					c0.052-0.13,0.132-0.174,0.239-0.132C150.641,97.685,150.68,97.745,150.654,97.839z"/>
				<path class="st1" d="M159.634,95.845c0,0.939-0.348,1.736-1.043,2.389c-0.683,0.644-1.503,0.965-2.462,0.965
					c-1.007,0-1.844-0.303-2.511-0.907c-0.683-0.624-1.024-1.43-1.024-2.418c0-0.956,0.346-1.758,1.039-2.409
					c0.683-0.637,1.515-0.956,2.496-0.956c1.001,0,1.833,0.311,2.497,0.931C159.297,94.072,159.634,94.874,159.634,95.845z
					 M158.644,96.011c0-0.946-0.259-1.693-0.775-2.243c-0.498-0.526-1.154-0.79-1.97-0.79c-0.676,0-1.231,0.25-1.665,0.748
					c-0.434,0.499-0.651,1.148-0.651,1.948c0,0.959,0.252,1.713,0.756,2.262c0.491,0.533,1.157,0.8,1.999,0.8
					c0.679,0,1.233-0.25,1.663-0.751C158.429,97.485,158.644,96.827,158.644,96.011z"/>
				<path class="st1" d="M168.892,95.845c0,0.939-0.348,1.736-1.043,2.389c-0.683,0.644-1.503,0.965-2.462,0.965
					c-1.007,0-1.844-0.303-2.511-0.907c-0.683-0.624-1.024-1.43-1.024-2.418c0-0.956,0.346-1.758,1.039-2.409
					c0.683-0.637,1.515-0.956,2.496-0.956c1.001,0,1.833,0.311,2.497,0.931C168.555,94.072,168.892,94.874,168.892,95.845z
					 M167.902,96.011c0-0.946-0.259-1.693-0.775-2.243c-0.498-0.526-1.154-0.79-1.97-0.79c-0.676,0-1.231,0.25-1.665,0.748
					c-0.434,0.499-0.651,1.148-0.651,1.948c0,0.959,0.252,1.713,0.756,2.262c0.491,0.533,1.157,0.8,1.999,0.8
					c0.679,0,1.233-0.25,1.663-0.751C167.687,97.485,167.902,96.827,167.902,96.011z"/>
				<path class="st1" d="M177.369,98.888c0,0.078-0.011,0.126-0.032,0.146s-0.074,0.028-0.158,0.024
					c-0.842-0.036-1.512-0.02-2.009,0.049c-0.121,0.016-0.19-0.01-0.21-0.078c-0.02-0.078,0.047-0.151,0.2-0.219
					c0.091-0.039,0.136-0.115,0.136-0.229c0-0.113-0.052-0.224-0.156-0.332c-0.455-0.468-1.237-1.23-2.345-2.287v2.296
					c0,0.186,0.193,0.332,0.58,0.439c0.172,0.049,0.258,0.112,0.258,0.19c0,0.081-0.015,0.131-0.043,0.151
					c-0.029,0.02-0.104,0.026-0.225,0.02c-0.575-0.026-1.211-0.013-1.906,0.039c-0.133,0.01-0.2-0.047-0.2-0.171
					c0-0.084,0.066-0.133,0.2-0.146c0.306-0.036,0.458-0.21,0.458-0.522v-4.68c0-0.302-0.171-0.493-0.512-0.57
					c-0.12-0.029-0.193-0.051-0.219-0.066s-0.039-0.05-0.039-0.105c0-0.078,0.015-0.127,0.044-0.148
					c0.029-0.021,0.112-0.029,0.249-0.022c0.816,0.045,1.464,0.045,1.945,0c0.14-0.013,0.21,0.043,0.21,0.17
					c0,0.062-0.07,0.109-0.21,0.142c-0.25,0.055-0.4,0.101-0.448,0.136c-0.095,0.065-0.142,0.195-0.142,0.39v2.13
					c0.917-0.767,1.656-1.404,2.218-1.911c0.166-0.146,0.249-0.284,0.249-0.414c0-0.13-0.089-0.228-0.268-0.292
					c-0.104-0.036-0.159-0.057-0.166-0.063c-0.049-0.029-0.067-0.078-0.054-0.146c0.01-0.075,0.029-0.119,0.059-0.131
					c0.032-0.017,0.109-0.013,0.229,0.01c0.63,0.065,1.209,0.071,1.736,0.019c0.081-0.006,0.133-0.001,0.156,0.015
					c0.023,0.017,0.041,0.062,0.054,0.137c0.013,0.065,0.005,0.11-0.024,0.134s-0.101,0.053-0.214,0.085
					c-0.306,0.094-0.691,0.332-1.156,0.712c-0.344,0.28-1.067,0.881-2.169,1.804c1.189,1.134,2.123,2.003,2.798,2.608
					c0.296,0.267,0.598,0.442,0.907,0.526C177.295,98.769,177.369,98.822,177.369,98.888z"/>
				<path class="st1" d="M183.677,97.361c0,0.549-0.202,0.99-0.605,1.321c-0.419,0.345-0.993,0.517-1.721,0.517
					c-0.959,0-1.521-0.177-1.687-0.532c-0.101-0.214-0.202-0.487-0.302-0.819c-0.042-0.153-0.012-0.252,0.093-0.297
					c0.13-0.059,0.232-0.033,0.307,0.078c0.276,0.41,0.554,0.701,0.833,0.873c0.27,0.166,0.585,0.249,0.946,0.249
					c0.904,0,1.355-0.361,1.355-1.083c0-0.283-0.099-0.523-0.297-0.722c-0.192-0.185-0.588-0.44-1.189-0.765
					c-0.761-0.41-1.261-0.731-1.502-0.965c-0.296-0.29-0.443-0.647-0.443-1.073c0-0.452,0.189-0.837,0.568-1.155
					c0.378-0.319,0.862-0.478,1.45-0.478c0.416,0,0.821,0.052,1.214,0.156c0.302,0.081,0.473,0.185,0.512,0.312
					c0.081,0.263,0.135,0.588,0.161,0.975c0.006,0.14-0.041,0.218-0.142,0.234c-0.127,0.02-0.216-0.024-0.268-0.132
					c-0.202-0.406-0.431-0.692-0.688-0.858c-0.237-0.153-0.548-0.229-0.931-0.229c-0.341,0-0.611,0.08-0.81,0.239
					s-0.297,0.385-0.297,0.678c0,0.273,0.098,0.509,0.292,0.707c0.186,0.185,0.527,0.403,1.024,0.653
					c0.767,0.383,1.295,0.708,1.584,0.975C183.496,96.549,183.677,96.929,183.677,97.361z"/>
				<path class="st1" d="M194.411,97.839c-0.11,0.416-0.166,0.806-0.166,1.17c0,0.062-0.104,0.088-0.312,0.078
					c-0.514-0.026-1.149-0.039-1.906-0.039c-0.806,0-1.525,0.016-2.155,0.049c-0.094,0.006-0.153-0.001-0.175-0.022
					c-0.023-0.021-0.034-0.071-0.034-0.149c0-0.084,0.07-0.133,0.209-0.146c0.318-0.033,0.478-0.203,0.478-0.512v-4.5
					c0-0.228-0.031-0.396-0.093-0.507c-0.075-0.13-0.218-0.231-0.429-0.302c-0.126-0.045-0.182-0.119-0.166-0.22
					c0.01-0.071,0.031-0.114,0.063-0.126c0.032-0.013,0.117-0.011,0.253,0.005c0.475,0.052,1.04,0.049,1.697-0.01
					c0.117-0.01,0.184-0.013,0.2-0.01c0.065,0.01,0.103,0.054,0.112,0.131c0.01,0.088-0.012,0.148-0.063,0.181
					c-0.02,0.013-0.086,0.032-0.2,0.059c-0.228,0.052-0.37,0.111-0.429,0.178c-0.059,0.067-0.088,0.207-0.088,0.422v4.363
					c0,0.273,0.092,0.459,0.275,0.559s0.518,0.148,1.002,0.148c0.461,0,0.804-0.059,1.026-0.178s0.404-0.342,0.543-0.67
					c0.052-0.13,0.132-0.174,0.239-0.132C194.398,97.685,194.437,97.745,194.411,97.839z"/>
				<path class="st1" d="M198.968,92.749c0,0.082-0.088,0.148-0.263,0.2c-0.394,0.117-0.59,0.27-0.59,0.458v4.744
					c0,0.306,0.18,0.491,0.541,0.556c0.179,0.033,0.268,0.096,0.268,0.19c0,0.082-0.015,0.132-0.046,0.151
					c-0.031,0.02-0.114,0.026-0.251,0.02c-0.858-0.036-1.521-0.036-1.989,0c-0.12,0.01-0.19-0.013-0.209-0.068
					c-0.007-0.022-0.01-0.057-0.01-0.103c0-0.065,0.073-0.113,0.219-0.146c0.273-0.062,0.431-0.105,0.473-0.132
					c0.104-0.065,0.156-0.198,0.156-0.399v-4.783c0-0.27-0.182-0.436-0.546-0.497c-0.153-0.026-0.229-0.073-0.229-0.142
					c0-0.094,0.012-0.152,0.037-0.173c0.024-0.021,0.082-0.027,0.173-0.017c0.634,0.068,1.289,0.062,1.965-0.02
					c0.127-0.016,0.202-0.021,0.224-0.015C198.942,92.59,198.968,92.648,198.968,92.749z"/>
				<path class="st1" d="M207.514,98.888c0,0.078-0.011,0.126-0.032,0.146s-0.074,0.028-0.158,0.024
					c-0.842-0.036-1.512-0.02-2.009,0.049c-0.121,0.016-0.19-0.01-0.21-0.078c-0.02-0.078,0.047-0.151,0.2-0.219
					c0.091-0.039,0.136-0.115,0.136-0.229c0-0.113-0.052-0.224-0.156-0.332c-0.455-0.468-1.237-1.23-2.345-2.287v2.296
					c0,0.186,0.193,0.332,0.58,0.439c0.172,0.049,0.258,0.112,0.258,0.19c0,0.081-0.015,0.131-0.043,0.151
					c-0.029,0.02-0.104,0.026-0.225,0.02c-0.575-0.026-1.211-0.013-1.906,0.039c-0.133,0.01-0.2-0.047-0.2-0.171
					c0-0.084,0.066-0.133,0.2-0.146c0.306-0.036,0.458-0.21,0.458-0.522v-4.68c0-0.302-0.171-0.493-0.512-0.57
					c-0.12-0.029-0.193-0.051-0.219-0.066s-0.039-0.05-0.039-0.105c0-0.078,0.015-0.127,0.044-0.148
					c0.029-0.021,0.112-0.029,0.249-0.022c0.816,0.045,1.464,0.045,1.945,0c0.14-0.013,0.21,0.043,0.21,0.17
					c0,0.062-0.07,0.109-0.21,0.142c-0.25,0.055-0.4,0.101-0.448,0.136c-0.095,0.065-0.142,0.195-0.142,0.39v2.13
					c0.917-0.767,1.656-1.404,2.218-1.911c0.166-0.146,0.249-0.284,0.249-0.414c0-0.13-0.089-0.228-0.268-0.292
					c-0.104-0.036-0.159-0.057-0.166-0.063c-0.049-0.029-0.067-0.078-0.054-0.146c0.01-0.075,0.029-0.119,0.059-0.131
					c0.032-0.017,0.109-0.013,0.229,0.01c0.63,0.065,1.209,0.071,1.736,0.019c0.081-0.006,0.133-0.001,0.156,0.015
					c0.023,0.017,0.041,0.062,0.054,0.137c0.013,0.065,0.005,0.11-0.024,0.134s-0.101,0.053-0.214,0.085
					c-0.306,0.094-0.691,0.332-1.156,0.712c-0.344,0.28-1.067,0.881-2.169,1.804c1.189,1.134,2.123,2.003,2.798,2.608
					c0.296,0.267,0.598,0.442,0.907,0.526C207.441,98.769,207.514,98.822,207.514,98.888z"/>
				<path class="st1" d="M214.393,97.839c-0.091,0.387-0.151,0.777-0.181,1.17c-0.003,0.062-0.102,0.088-0.297,0.078
					c-0.507-0.026-1.154-0.039-1.94-0.039c-0.865,0-1.609,0.016-2.233,0.049c-0.14,0.006-0.209-0.05-0.209-0.171
					c0-0.084,0.07-0.133,0.209-0.146c0.195-0.023,0.32-0.06,0.375-0.112c0.068-0.065,0.103-0.201,0.103-0.41v-4.49
					c0-0.302-0.028-0.493-0.083-0.573s-0.208-0.159-0.458-0.236c-0.133-0.042-0.182-0.122-0.146-0.239
					c0.016-0.062,0.042-0.096,0.078-0.102c0.032-0.01,0.118-0.003,0.258,0.02c0.208,0.032,0.75,0.049,1.628,0.049
					c0.874,0,1.626-0.02,2.257-0.059c0.211-0.013,0.317,0.001,0.317,0.044c0,0.016-0.003,0.032-0.01,0.048
					c-0.068,0.319-0.098,0.685-0.088,1.097c0.003,0.101-0.044,0.151-0.141,0.151c-0.091,0-0.155-0.044-0.19-0.132
					c-0.091-0.228-0.17-0.382-0.239-0.463c-0.104-0.123-0.253-0.201-0.449-0.234c-0.156-0.029-0.705-0.044-1.648-0.044
					c-0.107,0-0.175,0.018-0.205,0.054c-0.016,0.02-0.024,0.068-0.024,0.146v2.038c0,0.082,0.047,0.122,0.142,0.122
					c0.299-0.006,0.728-0.027,1.287-0.063c0.097-0.01,0.169-0.057,0.214-0.141c0.036-0.065,0.073-0.2,0.112-0.405
					c0.029-0.14,0.105-0.19,0.229-0.151c0.11,0.02,0.158,0.07,0.142,0.151c-0.091,0.442-0.121,1.018-0.088,1.726
					c0.003,0.078-0.051,0.125-0.161,0.141c-0.097,0.013-0.154-0.041-0.17-0.161c-0.033-0.25-0.074-0.416-0.125-0.495
					s-0.146-0.127-0.285-0.144c-0.267-0.033-0.669-0.049-1.209-0.049c-0.059,0-0.088,0.022-0.088,0.068v2.125
					c0,0.302,0.175,0.488,0.526,0.556c0.088,0.017,0.392,0.024,0.912,0.024c0.809,0,1.314-0.283,1.516-0.848
					c0.049-0.133,0.128-0.177,0.239-0.132C214.375,97.685,214.415,97.745,214.393,97.839z"/>
				<path class="st1" d="M224.468,97.361c0,0.549-0.202,0.99-0.605,1.321c-0.419,0.345-0.993,0.517-1.721,0.517
					c-0.959,0-1.521-0.177-1.687-0.532c-0.101-0.214-0.202-0.487-0.302-0.819c-0.042-0.153-0.012-0.252,0.093-0.297
					c0.13-0.059,0.232-0.033,0.307,0.078c0.276,0.41,0.554,0.701,0.833,0.873c0.27,0.166,0.585,0.249,0.946,0.249
					c0.904,0,1.355-0.361,1.355-1.083c0-0.283-0.099-0.523-0.297-0.722c-0.192-0.185-0.588-0.44-1.189-0.765
					c-0.761-0.41-1.261-0.731-1.502-0.965c-0.296-0.29-0.443-0.647-0.443-1.073c0-0.452,0.189-0.837,0.568-1.155
					c0.378-0.319,0.862-0.478,1.45-0.478c0.416,0,0.821,0.052,1.214,0.156c0.302,0.081,0.473,0.185,0.512,0.312
					c0.081,0.263,0.135,0.588,0.161,0.975c0.006,0.14-0.041,0.218-0.142,0.234c-0.127,0.02-0.216-0.024-0.268-0.132
					c-0.202-0.406-0.431-0.692-0.688-0.858c-0.237-0.153-0.548-0.229-0.931-0.229c-0.341,0-0.611,0.08-0.81,0.239
					s-0.297,0.385-0.297,0.678c0,0.273,0.098,0.509,0.292,0.707c0.186,0.185,0.527,0.403,1.024,0.653
					c0.767,0.383,1.295,0.708,1.584,0.975C224.288,96.549,224.468,96.929,224.468,97.361z"/>
				<path class="st1" d="M233.897,95.845c0,0.939-0.348,1.736-1.043,2.389c-0.683,0.644-1.503,0.965-2.462,0.965
					c-1.007,0-1.844-0.303-2.511-0.907c-0.683-0.624-1.024-1.43-1.024-2.418c0-0.956,0.346-1.758,1.039-2.409
					c0.683-0.637,1.515-0.956,2.496-0.956c1.001,0,1.833,0.311,2.497,0.931C233.561,94.072,233.897,94.874,233.897,95.845z
					 M232.907,96.011c0-0.946-0.259-1.693-0.775-2.243c-0.498-0.526-1.154-0.79-1.97-0.79c-0.676,0-1.231,0.25-1.665,0.748
					c-0.434,0.499-0.651,1.148-0.651,1.948c0,0.959,0.252,1.713,0.756,2.262c0.491,0.533,1.157,0.8,1.999,0.8
					c0.679,0,1.233-0.25,1.663-0.751C232.692,97.485,232.907,96.827,232.907,96.011z"/>
				<path class="st1" d="M244.573,98.897c0,0.082-0.017,0.132-0.051,0.151s-0.121,0.026-0.261,0.02
					c-0.848-0.036-1.506-0.036-1.975,0c-0.146,0.01-0.219-0.047-0.219-0.171c0-0.068,0.073-0.117,0.219-0.146
					c0.29-0.065,0.463-0.119,0.522-0.161c0.071-0.055,0.104-0.179,0.097-0.37l-0.17-4.164c-0.003-0.084-0.026-0.126-0.068-0.126
					c-0.033,0-0.063,0.029-0.093,0.087c-0.579,1.164-0.985,1.991-1.219,2.482c-0.471,0.979-0.804,1.721-1,2.228
					c-0.088,0.237-0.133,0.359-0.136,0.366c-0.033,0.059-0.08,0.098-0.142,0.117c-0.033,0.01-0.06,0.014-0.083,0.014
					c-0.065,0-0.124-0.096-0.175-0.288c-0.205-0.734-0.91-2.364-2.116-4.89c-0.036-0.075-0.075-0.112-0.117-0.112
					c-0.052,0-0.08,0.05-0.083,0.151c-0.045,0.965-0.099,2.251-0.161,3.856c-0.02,0.429,0.197,0.685,0.648,0.766
					c0.179,0.033,0.269,0.096,0.269,0.19c0,0.082-0.017,0.132-0.051,0.151s-0.12,0.026-0.256,0.02c-0.748-0.029-1.328-0.029-1.74,0
					c-0.146,0.01-0.219-0.047-0.219-0.171c0-0.068,0.073-0.117,0.219-0.146c0.26-0.055,0.431-0.142,0.512-0.258
					c0.065-0.091,0.101-0.255,0.107-0.493l0.17-4.315c0.007-0.188-0.031-0.333-0.112-0.434c-0.072-0.088-0.216-0.182-0.434-0.283
					c-0.156-0.072-0.229-0.148-0.219-0.229c0.006-0.087,0.076-0.122,0.209-0.102c0.498,0.071,0.933,0.084,1.307,0.039
					c0.143-0.017,0.241-0.013,0.292,0.01c0.052,0.022,0.098,0.08,0.137,0.17l2.038,4.666c0.026,0.065,0.048,0.097,0.068,0.097
					s0.049-0.043,0.088-0.131c0.13-0.28,0.856-1.786,2.179-4.52c0.082-0.166,0.184-0.249,0.307-0.249
					c0.303,0,0.725-0.043,1.268-0.131c0.123-0.02,0.2-0.026,0.229-0.02c0.055,0.016,0.083,0.076,0.083,0.18
					c0,0.078-0.086,0.145-0.259,0.2c-0.406,0.126-0.606,0.279-0.6,0.458l0.181,4.744c0.006,0.188,0.054,0.322,0.141,0.4
					c0.072,0.068,0.203,0.12,0.395,0.156C244.482,98.743,244.573,98.806,244.573,98.897z"/>
				<path class="st1" d="M251.738,97.839c-0.091,0.387-0.15,0.777-0.18,1.17c-0.004,0.062-0.103,0.088-0.298,0.078
					c-0.507-0.026-1.154-0.039-1.94-0.039c-0.865,0-1.609,0.016-2.233,0.049c-0.14,0.006-0.209-0.05-0.209-0.171
					c0-0.084,0.07-0.133,0.209-0.146c0.195-0.023,0.32-0.06,0.375-0.112c0.068-0.065,0.103-0.201,0.103-0.41v-4.49
					c0-0.302-0.028-0.493-0.083-0.573s-0.208-0.159-0.458-0.236c-0.133-0.042-0.182-0.122-0.146-0.239
					c0.016-0.062,0.042-0.096,0.078-0.102c0.032-0.01,0.118-0.003,0.258,0.02c0.208,0.032,0.75,0.049,1.628,0.049
					c0.874,0,1.626-0.02,2.257-0.059c0.212-0.013,0.317,0.001,0.317,0.044c0,0.016-0.003,0.032-0.01,0.048
					c-0.068,0.319-0.098,0.685-0.088,1.097c0.003,0.101-0.044,0.151-0.142,0.151c-0.091,0-0.154-0.044-0.19-0.132
					c-0.091-0.228-0.17-0.382-0.239-0.463c-0.104-0.123-0.253-0.201-0.449-0.234c-0.156-0.029-0.705-0.044-1.648-0.044
					c-0.107,0-0.175,0.018-0.205,0.054c-0.016,0.02-0.024,0.068-0.024,0.146v2.038c0,0.082,0.047,0.122,0.142,0.122
					c0.299-0.006,0.728-0.027,1.287-0.063c0.097-0.01,0.169-0.057,0.214-0.141c0.036-0.065,0.073-0.2,0.112-0.405
					c0.029-0.14,0.105-0.19,0.229-0.151c0.11,0.02,0.158,0.07,0.142,0.151c-0.091,0.442-0.121,1.018-0.088,1.726
					c0.003,0.078-0.051,0.125-0.161,0.141c-0.097,0.013-0.154-0.041-0.17-0.161c-0.033-0.25-0.074-0.416-0.125-0.495
					s-0.146-0.127-0.285-0.144c-0.267-0.033-0.669-0.049-1.209-0.049c-0.059,0-0.088,0.022-0.088,0.068v2.125
					c0,0.302,0.175,0.488,0.526,0.556c0.088,0.017,0.392,0.024,0.912,0.024c0.809,0,1.315-0.283,1.516-0.848
					c0.049-0.133,0.128-0.177,0.239-0.132C251.721,97.685,251.762,97.745,251.738,97.839z"/>
				<path class="st1" d="M260.129,94.197c-0.004,0.059-0.011,0.098-0.022,0.12c-0.012,0.021-0.045,0.036-0.1,0.046
					c-0.12,0.026-0.2-0.02-0.239-0.136c-0.14-0.432-0.306-0.72-0.497-0.863c-0.267-0.198-0.733-0.297-1.399-0.297
					c-0.27,0-0.418,0.029-0.443,0.088c-0.01,0.02-0.015,0.047-0.015,0.083v4.861c0,0.208,0.049,0.354,0.146,0.437
					c0.097,0.083,0.29,0.158,0.58,0.227c0.123,0.026,0.193,0.044,0.209,0.054c0.046,0.029,0.062,0.091,0.049,0.185
					c-0.01,0.075-0.045,0.115-0.107,0.122c-0.006,0.003-0.073-0.002-0.199-0.015c-0.858-0.075-1.567-0.078-2.126-0.01
					c-0.134,0.016-0.22,0.016-0.259,0c-0.032-0.017-0.054-0.055-0.063-0.117c-0.025-0.104,0.031-0.174,0.171-0.209
					c0.279-0.071,0.468-0.158,0.565-0.258c0.11-0.114,0.166-0.297,0.166-0.551v-4.724c0-0.094-0.059-0.149-0.176-0.166
					c-0.013-0.003-0.108-0.005-0.287-0.005c-0.618,0-1.073,0.107-1.365,0.322c-0.222,0.16-0.418,0.452-0.59,0.878
					c-0.056,0.133-0.132,0.177-0.229,0.131c-0.11-0.026-0.151-0.086-0.122-0.18c0.114-0.351,0.171-0.847,0.171-1.487
					c0-0.075,0.1-0.105,0.298-0.092c0.702,0.045,1.479,0.068,2.33,0.068c1.612,0,2.657-0.032,3.135-0.097
					c0.183-0.026,0.281,0.003,0.298,0.087C260.098,93.128,260.139,93.628,260.129,94.197z"/>
				<path class="st1" d="M269.616,98.926c0,0.085-0.011,0.137-0.032,0.156s-0.08,0.024-0.178,0.015
					c-0.637-0.055-1.279-0.068-1.926-0.039c-0.127,0.006-0.207-0.001-0.241-0.022s-0.052-0.071-0.052-0.148
					c0-0.104,0.086-0.167,0.259-0.19c0.273-0.036,0.409-0.182,0.409-0.439v-1.916c0-0.14-0.016-0.233-0.049-0.28
					c-0.032-0.047-0.108-0.071-0.229-0.071h-3.447c-0.143,0-0.231,0.018-0.266,0.054c-0.034,0.036-0.051,0.128-0.051,0.278v1.936
					c0,0.186,0.202,0.332,0.609,0.439c0.179,0.049,0.268,0.112,0.268,0.19c0,0.081-0.015,0.131-0.044,0.151s-0.11,0.026-0.243,0.02
					c-0.647-0.029-1.289-0.016-1.926,0.039c-0.098,0.01-0.157,0.005-0.179-0.015c-0.021-0.02-0.031-0.071-0.031-0.156
					c0-0.084,0.069-0.133,0.21-0.146c0.318-0.033,0.478-0.207,0.478-0.522v-4.68c0-0.302-0.181-0.493-0.541-0.57
					c-0.131-0.029-0.208-0.051-0.231-0.066c-0.024-0.015-0.037-0.05-0.037-0.105c0-0.042,0.003-0.073,0.01-0.093
					c0.02-0.062,0.115-0.087,0.288-0.078c0.822,0.045,1.485,0.045,1.989,0c0.091-0.007,0.149,0,0.178,0.02
					c0.027,0.019,0.041,0.07,0.041,0.151c0,0.062-0.073,0.109-0.219,0.142c-0.261,0.055-0.417,0.099-0.469,0.131
					c-0.101,0.065-0.15,0.197-0.15,0.395v1.648c0,0.228,0.11,0.341,0.331,0.341h3.394c0.133,0,0.216-0.015,0.248-0.044
					c0.046-0.042,0.068-0.148,0.068-0.317v-1.677c0-0.175-0.045-0.292-0.136-0.351c-0.053-0.036-0.189-0.075-0.41-0.117
					c-0.182-0.036-0.272-0.093-0.272-0.171c0-0.088,0.016-0.143,0.048-0.166c0.033-0.023,0.117-0.028,0.254-0.015
					c0.361,0.036,0.731,0.044,1.111,0.024c0.271-0.013,0.542-0.028,0.814-0.044c0.091,0,0.148,0.008,0.173,0.024
					c0.024,0.016,0.037,0.068,0.037,0.156c0,0.084-0.07,0.135-0.21,0.151c-0.357,0.039-0.536,0.208-0.536,0.507v4.802
					c0,0.16,0.057,0.276,0.171,0.351c0.091,0.059,0.26,0.116,0.507,0.171C269.546,98.81,269.616,98.858,269.616,98.926z"/>
				<path class="st1" d="M274.358,92.749c0,0.082-0.088,0.148-0.264,0.2c-0.393,0.117-0.59,0.27-0.59,0.458v4.744
					c0,0.306,0.181,0.491,0.542,0.556c0.179,0.033,0.268,0.096,0.268,0.19c0,0.082-0.016,0.132-0.046,0.151
					c-0.031,0.02-0.115,0.026-0.251,0.02c-0.858-0.036-1.521-0.036-1.989,0c-0.121,0.01-0.19-0.013-0.21-0.068
					c-0.007-0.022-0.01-0.057-0.01-0.103c0-0.065,0.073-0.113,0.22-0.146c0.272-0.062,0.431-0.105,0.473-0.132
					c0.104-0.065,0.156-0.198,0.156-0.399v-4.783c0-0.27-0.183-0.436-0.547-0.497c-0.152-0.026-0.229-0.073-0.229-0.142
					c0-0.094,0.012-0.152,0.036-0.173c0.024-0.021,0.082-0.027,0.174-0.017c0.634,0.068,1.288,0.062,1.965-0.02
					c0.126-0.016,0.201-0.021,0.224-0.015C274.332,92.59,274.358,92.648,274.358,92.749z"/>
				<path class="st1" d="M284.074,92.739c0,0.082-0.088,0.148-0.264,0.2c-0.39,0.11-0.585,0.336-0.585,0.678v3.505
					c0,0.738,0.01,1.333,0.029,1.784c0.007,0.172-0.034,0.27-0.122,0.293c-0.146,0.036-0.27-0.041-0.37-0.229
					c-0.163-0.309-0.8-1.069-1.911-2.282c-0.93-1.011-1.83-1.955-2.701-2.833c-0.029-0.029-0.059-0.038-0.088-0.024
					c-0.032,0.016-0.049,0.054-0.049,0.112v3.998c0,0.429,0.216,0.685,0.648,0.766c0.179,0.036,0.269,0.099,0.269,0.19
					c0,0.124-0.102,0.181-0.303,0.171c-0.773-0.032-1.375-0.032-1.804,0c-0.14,0.01-0.21-0.047-0.21-0.171
					c0-0.068,0.07-0.117,0.21-0.146c0.25-0.059,0.417-0.138,0.502-0.239c0.085-0.101,0.127-0.271,0.127-0.512v-4.315
					c0-0.188-0.039-0.333-0.117-0.434c-0.075-0.091-0.22-0.186-0.434-0.283c-0.159-0.075-0.236-0.151-0.229-0.229
					c0.01-0.087,0.083-0.122,0.22-0.102c0.422,0.058,0.788,0.071,1.097,0.039c0.159-0.017,0.303,0.043,0.429,0.18l4.086,4.354
					c0.056,0.062,0.093,0.092,0.112,0.092c0.026,0,0.039-0.043,0.039-0.131v-3.525c0-0.413-0.217-0.657-0.648-0.731
					c-0.153-0.026-0.229-0.072-0.229-0.137c0-0.136,0.07-0.196,0.21-0.18c0.533,0.059,1.128,0.052,1.784-0.02
					c0.114-0.013,0.187-0.015,0.22-0.005C284.046,92.59,284.074,92.645,284.074,92.739z"/>
				<path class="st1" d="M293.151,96.152c0,0.104-0.076,0.167-0.229,0.19c-0.215,0.033-0.34,0.056-0.376,0.068
					c-0.117,0.049-0.175,0.143-0.175,0.283v1.526c0,0.191-0.251,0.396-0.751,0.614c-0.563,0.244-1.195,0.366-1.896,0.366
					c-1.021,0-1.871-0.304-2.551-0.912c-0.688-0.617-1.033-1.409-1.033-2.374c0-0.985,0.356-1.804,1.067-2.458
					c0.689-0.63,1.519-0.946,2.487-0.946c0.744,0,1.376,0.089,1.896,0.268c0.383,0.13,0.583,0.26,0.6,0.39
					c0.032,0.247,0.049,0.613,0.049,1.097c0,0.107-0.067,0.164-0.2,0.17c-0.156,0.007-0.252-0.037-0.288-0.131
					c-0.179-0.484-0.43-0.833-0.753-1.046s-0.768-0.319-1.333-0.319c-0.78,0-1.39,0.239-1.829,0.717
					c-0.451,0.497-0.677,1.209-0.677,2.135c0,0.894,0.26,1.614,0.779,2.16c0.504,0.533,1.152,0.8,1.945,0.8
					c0.406,0,0.785-0.073,1.137-0.219c0.334-0.14,0.502-0.281,0.502-0.424v-1.014c0-0.241-0.049-0.415-0.146-0.521
					c-0.085-0.098-0.252-0.184-0.502-0.259c-0.186-0.055-0.273-0.122-0.264-0.2c0.013-0.084,0.035-0.137,0.066-0.156
					c0.03-0.02,0.109-0.021,0.236-0.005c0.692,0.084,1.365,0.091,2.019,0.019c0.035-0.003,0.064-0.005,0.088-0.005
					C293.107,95.967,293.151,96.029,293.151,96.152z"/>
				<path class="st1" d="M308.785,92.847c0,0.11-0.104,0.197-0.312,0.258c-0.225,0.068-0.413,0.292-0.565,0.673
					c-0.731,1.801-1.411,3.523-2.038,5.168c-0.052,0.137-0.173,0.231-0.361,0.283c-0.009,0.007-0.021,0.01-0.033,0.01
					c-0.092,0-0.156-0.097-0.195-0.292c-0.149-0.708-0.692-2.119-1.629-4.232c-0.406,1.021-0.945,2.432-1.618,4.232
					c-0.049,0.137-0.164,0.231-0.347,0.283c-0.013,0.003-0.025,0.007-0.039,0.01c-0.091,0-0.154-0.097-0.189-0.292
					c-0.124-0.653-0.837-2.433-2.141-5.338c-0.134-0.299-0.362-0.486-0.688-0.561c-0.159-0.036-0.239-0.083-0.239-0.141
					c0-0.137,0.07-0.198,0.21-0.186c0.504,0.046,1.133,0.012,1.887-0.102c0.127-0.02,0.207-0.021,0.239-0.005
					c0.029,0.016,0.049,0.065,0.059,0.146c0.016,0.065-0.063,0.142-0.239,0.229c-0.208,0.104-0.312,0.223-0.312,0.356
					c0,0.058,0.015,0.126,0.044,0.205c0.324,0.861,0.843,2.231,1.555,4.11c0.022,0.062,0.054,0.093,0.093,0.093
					c0.036,0,0.065-0.031,0.088-0.093l1.351-3.593c-0.052-0.107-0.125-0.26-0.22-0.458c-0.117-0.244-0.323-0.434-0.619-0.571
					c-0.149-0.068-0.22-0.135-0.21-0.2c0.017-0.146,0.09-0.209,0.22-0.19c0.575,0.094,1.221,0.104,1.936,0.029
					c0.13-0.013,0.211-0.011,0.241,0.007c0.031,0.018,0.047,0.069,0.047,0.153c0,0.082-0.083,0.148-0.249,0.2
					c-0.318,0.101-0.478,0.207-0.478,0.317c0,0.042,0.016,0.107,0.049,0.195l1.569,4.11c0.023,0.065,0.056,0.098,0.098,0.098
					c0.036,0,0.066-0.032,0.093-0.098l1.458-3.891c0.025-0.078,0.039-0.148,0.039-0.209c0-0.224-0.193-0.401-0.58-0.532
					c-0.146-0.048-0.217-0.122-0.21-0.219c0.007-0.071,0.024-0.115,0.054-0.131c0.035-0.017,0.125-0.017,0.268,0
					c0.604,0.071,1.174,0.078,1.707,0.019C308.716,92.683,308.785,92.733,308.785,92.847z"/>
				<path class="st1" d="M317.502,98.96c-0.02,0.088-0.041,0.14-0.063,0.156c-0.02,0.013-0.065,0.01-0.137-0.01
					c-0.465-0.084-1.145-0.094-2.038-0.029c-0.169,0.013-0.262-0.02-0.277-0.098c-0.017-0.091,0.037-0.161,0.16-0.209
					c0.352-0.143,0.527-0.276,0.527-0.4c0-0.049-0.02-0.119-0.059-0.209c-0.241-0.575-0.44-1.039-0.6-1.39
					c-0.231,0.013-0.638,0.02-1.22,0.02c-0.48,0-0.891-0.013-1.229-0.039c-0.113,0.28-0.272,0.669-0.478,1.17
					c-0.046,0.114-0.068,0.216-0.068,0.308c0,0.182,0.1,0.315,0.298,0.399c0.306,0.13,0.455,0.229,0.448,0.297
					c-0.007,0.111-0.109,0.154-0.307,0.132c-0.611-0.065-1.177-0.045-1.697,0.059c-0.137,0.029-0.213-0.02-0.229-0.146
					c-0.013-0.084,0.093-0.175,0.317-0.273c0.24-0.101,0.443-0.333,0.609-0.697c0.634-1.375,1.043-2.278,1.229-2.71
					c0.448-1.037,0.766-1.884,0.951-2.541c0.025-0.101,0.154-0.195,0.385-0.283c0.056-0.02,0.125,0.075,0.21,0.283
					c0.702,1.69,1.488,3.498,2.359,5.422c0.14,0.306,0.376,0.509,0.707,0.609C317.451,98.822,317.518,98.883,317.502,98.96z
					 M314.854,96.391c-0.215-0.487-0.55-1.243-1.005-2.267c-0.025-0.055-0.055-0.083-0.087-0.083c-0.033,0-0.061,0.028-0.083,0.083
					l-0.932,2.248c0.348,0.026,0.738,0.039,1.17,0.039C314.185,96.411,314.497,96.404,314.854,96.391z"/>
				<path class="st1" d="M323.844,97.361c0,0.549-0.201,0.99-0.604,1.321c-0.419,0.345-0.993,0.517-1.721,0.517
					c-0.959,0-1.521-0.177-1.688-0.532c-0.101-0.214-0.201-0.487-0.302-0.819c-0.042-0.153-0.012-0.252,0.093-0.297
					c0.13-0.059,0.232-0.033,0.307,0.078c0.276,0.41,0.555,0.701,0.834,0.873c0.27,0.166,0.585,0.249,0.946,0.249
					c0.903,0,1.355-0.361,1.355-1.083c0-0.283-0.1-0.523-0.298-0.722c-0.191-0.185-0.589-0.44-1.189-0.765
					c-0.761-0.41-1.262-0.731-1.502-0.965c-0.296-0.29-0.443-0.647-0.443-1.073c0-0.452,0.189-0.837,0.567-1.155
					c0.379-0.319,0.862-0.478,1.451-0.478c0.416,0,0.82,0.052,1.214,0.156c0.302,0.081,0.473,0.185,0.512,0.312
					c0.081,0.263,0.135,0.588,0.161,0.975c0.006,0.14-0.041,0.218-0.142,0.234c-0.127,0.02-0.216-0.024-0.269-0.132
					c-0.201-0.406-0.431-0.692-0.688-0.858c-0.237-0.153-0.547-0.229-0.931-0.229c-0.342,0-0.611,0.08-0.81,0.239
					s-0.297,0.385-0.297,0.678c0,0.273,0.097,0.509,0.292,0.707c0.186,0.185,0.526,0.403,1.024,0.653
					c0.767,0.383,1.295,0.708,1.584,0.975C323.664,96.549,323.844,96.929,323.844,97.361z"/>
				<path class="st1" d="M339.882,92.847c0,0.11-0.104,0.197-0.312,0.258c-0.225,0.068-0.413,0.292-0.565,0.673
					c-0.731,1.801-1.411,3.523-2.038,5.168c-0.052,0.137-0.173,0.231-0.361,0.283c-0.009,0.007-0.021,0.01-0.033,0.01
					c-0.092,0-0.156-0.097-0.195-0.292c-0.149-0.708-0.692-2.119-1.629-4.232c-0.406,1.021-0.945,2.432-1.618,4.232
					c-0.049,0.137-0.164,0.231-0.347,0.283c-0.013,0.003-0.025,0.007-0.039,0.01c-0.091,0-0.154-0.097-0.189-0.292
					c-0.124-0.653-0.837-2.433-2.141-5.338c-0.134-0.299-0.362-0.486-0.688-0.561c-0.159-0.036-0.239-0.083-0.239-0.141
					c0-0.137,0.07-0.198,0.21-0.186c0.504,0.046,1.133,0.012,1.887-0.102c0.127-0.02,0.207-0.021,0.239-0.005
					c0.029,0.016,0.049,0.065,0.059,0.146c0.016,0.065-0.063,0.142-0.239,0.229c-0.208,0.104-0.312,0.223-0.312,0.356
					c0,0.058,0.015,0.126,0.044,0.205c0.324,0.861,0.843,2.231,1.555,4.11c0.022,0.062,0.054,0.093,0.093,0.093
					c0.036,0,0.065-0.031,0.088-0.093l1.351-3.593c-0.052-0.107-0.125-0.26-0.22-0.458c-0.117-0.244-0.323-0.434-0.619-0.571
					c-0.149-0.068-0.22-0.135-0.21-0.2c0.017-0.146,0.09-0.209,0.22-0.19c0.575,0.094,1.221,0.104,1.936,0.029
					c0.13-0.013,0.211-0.011,0.241,0.007c0.031,0.018,0.047,0.069,0.047,0.153c0,0.082-0.083,0.148-0.249,0.2
					c-0.318,0.101-0.478,0.207-0.478,0.317c0,0.042,0.016,0.107,0.049,0.195l1.569,4.11c0.023,0.065,0.056,0.098,0.098,0.098
					c0.036,0,0.066-0.032,0.093-0.098l1.458-3.891c0.025-0.078,0.039-0.148,0.039-0.209c0-0.224-0.193-0.401-0.58-0.532
					c-0.146-0.048-0.217-0.122-0.21-0.219c0.007-0.071,0.024-0.115,0.054-0.131c0.035-0.017,0.125-0.017,0.268,0
					c0.604,0.071,1.174,0.078,1.707,0.019C339.813,92.683,339.882,92.733,339.882,92.847z"/>
				<path class="st1" d="M347.691,99.068c0.003,0.075-0.06,0.112-0.19,0.112c-1.166,0-2.269-1-3.305-2.999
					c-0.4,0.02-0.613,0.029-0.639,0.029v2.047c0,0.153,0.037,0.254,0.111,0.305c0.075,0.05,0.241,0.095,0.498,0.134
					c0.179,0.029,0.268,0.093,0.268,0.19c0,0.081-0.015,0.131-0.044,0.151s-0.11,0.026-0.243,0.02
					c-0.589-0.026-1.23-0.013-1.926,0.039c-0.141,0.01-0.21-0.047-0.21-0.171c0-0.084,0.069-0.133,0.21-0.146
					c0.318-0.033,0.478-0.207,0.478-0.522v-4.67c0-0.309-0.181-0.499-0.541-0.57c-0.179-0.036-0.269-0.093-0.269-0.171
					c0-0.12,0.061-0.18,0.181-0.18c0.035,0,0.074,0.003,0.117,0.01c0.133,0.019,0.336,0.029,0.609,0.029
					c0.091,0,0.319-0.005,0.688-0.014c0.367-0.01,0.708-0.015,1.023-0.015c0.65,0,1.164,0.122,1.541,0.365
					c0.422,0.27,0.634,0.668,0.634,1.195c0,0.9-0.521,1.495-1.561,1.784c0.332,0.754,0.722,1.401,1.17,1.94
					c0.459,0.553,0.871,0.858,1.238,0.917C347.632,98.894,347.685,98.958,347.691,99.068z M345.731,94.353
					c0-0.481-0.123-0.824-0.37-1.028c-0.247-0.205-0.643-0.307-1.185-0.307c-0.244,0-0.408,0.033-0.493,0.1
					c-0.084,0.067-0.126,0.21-0.126,0.432v2.296c0.786-0.026,1.352-0.164,1.696-0.415C345.572,95.2,345.731,94.841,345.731,94.353z"
					/>
				<path class="st1" d="M356.477,95.845c0,0.939-0.348,1.736-1.043,2.389c-0.683,0.644-1.504,0.965-2.462,0.965
					c-1.008,0-1.845-0.303-2.512-0.907c-0.682-0.624-1.023-1.43-1.023-2.418c0-0.956,0.347-1.758,1.038-2.409
					c0.683-0.637,1.515-0.956,2.497-0.956c1.001,0,1.833,0.311,2.496,0.931C356.141,94.072,356.477,94.874,356.477,95.845z
					 M355.487,96.011c0-0.946-0.259-1.693-0.775-2.243c-0.497-0.526-1.154-0.79-1.97-0.79c-0.676,0-1.231,0.25-1.665,0.748
					c-0.434,0.499-0.65,1.148-0.65,1.948c0,0.959,0.251,1.713,0.755,2.262c0.491,0.533,1.157,0.8,1.999,0.8
					c0.68,0,1.233-0.25,1.663-0.751C355.272,97.485,355.487,96.827,355.487,96.011z"/>
				<path class="st1" d="M366.125,92.739c0,0.082-0.088,0.148-0.264,0.2c-0.39,0.11-0.585,0.336-0.585,0.678v3.505
					c0,0.738,0.01,1.333,0.029,1.784c0.007,0.172-0.034,0.27-0.122,0.293c-0.146,0.036-0.27-0.041-0.37-0.229
					c-0.163-0.309-0.8-1.069-1.911-2.282c-0.93-1.011-1.83-1.955-2.701-2.833c-0.029-0.029-0.059-0.038-0.088-0.024
					c-0.032,0.016-0.049,0.054-0.049,0.112v3.998c0,0.429,0.216,0.685,0.648,0.766c0.179,0.036,0.269,0.099,0.269,0.19
					c0,0.124-0.102,0.181-0.303,0.171c-0.773-0.032-1.375-0.032-1.804,0c-0.14,0.01-0.21-0.047-0.21-0.171
					c0-0.068,0.07-0.117,0.21-0.146c0.25-0.059,0.417-0.138,0.502-0.239c0.085-0.101,0.127-0.271,0.127-0.512v-4.315
					c0-0.188-0.039-0.333-0.117-0.434c-0.075-0.091-0.22-0.186-0.434-0.283c-0.159-0.075-0.236-0.151-0.229-0.229
					c0.01-0.087,0.083-0.122,0.22-0.102c0.422,0.058,0.788,0.071,1.097,0.039c0.159-0.017,0.303,0.043,0.429,0.18l4.086,4.354
					c0.056,0.062,0.093,0.092,0.112,0.092c0.026,0,0.039-0.043,0.039-0.131v-3.525c0-0.413-0.217-0.657-0.648-0.731
					c-0.153-0.026-0.229-0.072-0.229-0.137c0-0.136,0.07-0.196,0.21-0.18c0.533,0.059,1.128,0.052,1.784-0.02
					c0.114-0.013,0.187-0.015,0.22-0.005C366.097,92.59,366.125,92.645,366.125,92.739z"/>
				<path class="st1" d="M375.201,96.152c0,0.104-0.076,0.167-0.229,0.19c-0.215,0.033-0.34,0.056-0.376,0.068
					c-0.117,0.049-0.175,0.143-0.175,0.283v1.526c0,0.191-0.251,0.396-0.751,0.614c-0.563,0.244-1.195,0.366-1.896,0.366
					c-1.021,0-1.871-0.304-2.551-0.912c-0.688-0.617-1.033-1.409-1.033-2.374c0-0.985,0.356-1.804,1.067-2.458
					c0.689-0.63,1.519-0.946,2.487-0.946c0.744,0,1.376,0.089,1.896,0.268c0.383,0.13,0.583,0.26,0.6,0.39
					c0.032,0.247,0.049,0.613,0.049,1.097c0,0.107-0.067,0.164-0.2,0.17c-0.156,0.007-0.252-0.037-0.288-0.131
					c-0.179-0.484-0.43-0.833-0.753-1.046s-0.768-0.319-1.333-0.319c-0.78,0-1.39,0.239-1.829,0.717
					c-0.451,0.497-0.677,1.209-0.677,2.135c0,0.894,0.26,1.614,0.779,2.16c0.504,0.533,1.152,0.8,1.945,0.8
					c0.406,0,0.785-0.073,1.137-0.219c0.334-0.14,0.502-0.281,0.502-0.424v-1.014c0-0.241-0.049-0.415-0.146-0.521
					c-0.085-0.098-0.252-0.184-0.502-0.259c-0.186-0.055-0.273-0.122-0.264-0.2c0.013-0.084,0.035-0.137,0.066-0.156
					c0.03-0.02,0.109-0.021,0.236-0.005c0.692,0.084,1.365,0.091,2.019,0.019c0.035-0.003,0.064-0.005,0.088-0.005
					C375.157,95.967,375.201,96.029,375.201,96.152z"/>
			</g>
			<g>
				<path class="st1" d="M196.035,105.326c0,0.115-0.108,0.204-0.324,0.269c-0.233,0.071-0.429,0.304-0.587,0.699
					c-0.76,1.87-1.465,3.659-2.117,5.367c-0.054,0.142-0.179,0.24-0.375,0.294c-0.01,0.007-0.022,0.01-0.035,0.01
					c-0.095,0-0.162-0.102-0.203-0.304c-0.155-0.736-0.719-2.201-1.691-4.395c-0.422,1.06-0.982,2.525-1.681,4.395
					c-0.05,0.142-0.17,0.24-0.359,0.294c-0.014,0.003-0.027,0.007-0.041,0.01c-0.095,0-0.16-0.102-0.197-0.304
					c-0.128-0.678-0.87-2.526-2.223-5.544c-0.139-0.311-0.376-0.505-0.714-0.583c-0.166-0.037-0.248-0.086-0.248-0.146
					c0-0.142,0.072-0.206,0.218-0.193c0.523,0.047,1.176,0.012,1.959-0.106c0.132-0.021,0.214-0.022,0.248-0.005
					c0.03,0.017,0.051,0.068,0.061,0.152c0.017,0.068-0.066,0.147-0.249,0.238c-0.216,0.108-0.324,0.231-0.324,0.37
					c0,0.061,0.015,0.131,0.045,0.212c0.337,0.895,0.876,2.318,1.615,4.269c0.023,0.064,0.056,0.096,0.096,0.096
					c0.037,0,0.067-0.032,0.091-0.096l1.402-3.732c-0.054-0.111-0.13-0.27-0.228-0.476c-0.122-0.253-0.336-0.451-0.643-0.592
					c-0.155-0.071-0.228-0.14-0.218-0.208c0.017-0.152,0.093-0.218,0.228-0.197c0.598,0.098,1.268,0.108,2.011,0.03
					c0.135-0.013,0.218-0.011,0.25,0.008s0.048,0.072,0.048,0.159c0,0.084-0.086,0.154-0.258,0.208
					c-0.331,0.104-0.497,0.214-0.497,0.329c0,0.044,0.017,0.111,0.051,0.202l1.63,4.269c0.023,0.067,0.058,0.101,0.102,0.101
					c0.037,0,0.069-0.034,0.096-0.101l1.514-4.041c0.027-0.081,0.041-0.153,0.041-0.218c0-0.233-0.201-0.417-0.603-0.552
					c-0.152-0.051-0.225-0.126-0.218-0.228c0.007-0.074,0.025-0.12,0.056-0.137c0.037-0.017,0.13-0.017,0.279,0
					c0.628,0.074,1.219,0.081,1.772,0.021C195.963,105.155,196.035,105.208,196.035,105.326z"/>
				<path class="st1" d="M203.296,110.511c-0.095,0.402-0.157,0.807-0.188,1.215c-0.003,0.064-0.106,0.091-0.309,0.081
					c-0.527-0.027-1.199-0.041-2.016-0.041c-0.898,0-1.671,0.017-2.319,0.051c-0.145,0.007-0.217-0.052-0.217-0.177
					c0-0.088,0.072-0.138,0.217-0.152c0.203-0.023,0.333-0.063,0.39-0.117c0.071-0.067,0.106-0.209,0.106-0.425v-4.664
					c0-0.314-0.029-0.512-0.086-0.595c-0.057-0.083-0.216-0.165-0.476-0.246c-0.139-0.044-0.189-0.127-0.152-0.249
					c0.017-0.064,0.043-0.099,0.081-0.106c0.034-0.01,0.124-0.003,0.269,0.02c0.216,0.034,0.78,0.051,1.691,0.051
					c0.908,0,1.689-0.021,2.344-0.061c0.22-0.013,0.329,0.002,0.329,0.046c0,0.017-0.003,0.034-0.01,0.05
					c-0.071,0.331-0.102,0.711-0.091,1.14c0.003,0.104-0.045,0.157-0.147,0.157c-0.094,0-0.16-0.045-0.197-0.137
					c-0.095-0.236-0.177-0.396-0.248-0.481c-0.108-0.128-0.264-0.209-0.466-0.243c-0.162-0.03-0.733-0.045-1.712-0.045
					c-0.111,0-0.182,0.019-0.212,0.056c-0.017,0.021-0.025,0.071-0.025,0.152v2.117c0,0.084,0.049,0.126,0.147,0.126
					c0.311-0.007,0.756-0.028,1.337-0.066c0.101-0.01,0.175-0.059,0.223-0.146c0.037-0.068,0.076-0.208,0.116-0.42
					c0.031-0.145,0.11-0.197,0.238-0.157c0.115,0.021,0.164,0.073,0.146,0.157c-0.094,0.459-0.125,1.057-0.091,1.792
					c0.003,0.081-0.052,0.13-0.167,0.147c-0.102,0.014-0.161-0.042-0.177-0.167c-0.034-0.26-0.077-0.432-0.129-0.514
					s-0.151-0.132-0.296-0.149c-0.277-0.034-0.696-0.051-1.256-0.051c-0.061,0-0.091,0.024-0.091,0.071v2.208
					c0,0.314,0.182,0.506,0.547,0.577c0.091,0.017,0.407,0.025,0.947,0.025c0.841,0,1.366-0.293,1.575-0.881
					c0.051-0.139,0.133-0.184,0.249-0.137C203.277,110.351,203.319,110.413,203.296,110.511z"/>
				<path class="st1" d="M206.864,105.888c0,0.453-0.101,0.829-0.304,1.129c-0.159,0.24-0.427,0.488-0.805,0.744
					c-0.064,0.044-0.111,0.066-0.142,0.066c-0.051,0-0.098-0.056-0.142-0.167c-0.01-0.037-0.015-0.066-0.015-0.086
					c0-0.061,0.096-0.157,0.289-0.289c0.331-0.226,0.497-0.454,0.497-0.684c0-0.131-0.093-0.26-0.279-0.385
					c-0.277-0.182-0.415-0.393-0.415-0.633c0-0.166,0.055-0.303,0.165-0.413c0.109-0.11,0.259-0.165,0.448-0.165
					c0.223,0,0.396,0.081,0.519,0.243C206.803,105.412,206.864,105.625,206.864,105.888z"/>
				<path class="st1" d="M215.183,111.787c0.003,0.078-0.063,0.116-0.197,0.116c-1.212,0-2.356-1.038-3.433-3.114
					c-0.416,0.021-0.637,0.031-0.664,0.031v2.126c0,0.159,0.039,0.264,0.117,0.316c0.077,0.053,0.25,0.099,0.516,0.14
					c0.186,0.03,0.279,0.096,0.279,0.197c0,0.084-0.015,0.137-0.046,0.157c-0.03,0.02-0.115,0.027-0.253,0.02
					c-0.611-0.027-1.278-0.014-2,0.041c-0.145,0.01-0.217-0.049-0.217-0.177c0-0.088,0.072-0.138,0.217-0.152
					c0.331-0.034,0.497-0.214,0.497-0.542v-4.851c0-0.32-0.188-0.518-0.562-0.592c-0.186-0.037-0.279-0.096-0.279-0.177
					c0-0.125,0.063-0.188,0.188-0.188c0.037,0,0.078,0.003,0.122,0.01c0.138,0.021,0.349,0.03,0.633,0.03
					c0.095,0,0.333-0.005,0.714-0.015c0.382-0.01,0.736-0.015,1.063-0.015c0.675,0,1.208,0.126,1.6,0.38
					c0.439,0.28,0.658,0.694,0.658,1.241c0,0.935-0.54,1.553-1.62,1.853c0.344,0.783,0.75,1.455,1.215,2.016
					c0.476,0.574,0.905,0.891,1.286,0.952C215.121,111.606,215.176,111.672,215.183,111.787z M213.147,106.891
					c0-0.5-0.128-0.856-0.385-1.069c-0.256-0.212-0.667-0.319-1.23-0.319c-0.253,0-0.424,0.035-0.511,0.104
					c-0.088,0.069-0.132,0.218-0.132,0.448v2.385c0.817-0.027,1.404-0.17,1.762-0.431
					C212.982,107.77,213.147,107.397,213.147,106.891z"/>
				<path class="st1" d="M222.17,110.511c-0.095,0.402-0.157,0.807-0.188,1.215c-0.003,0.064-0.106,0.091-0.309,0.081
					c-0.527-0.027-1.199-0.041-2.016-0.041c-0.898,0-1.671,0.017-2.319,0.051c-0.145,0.007-0.217-0.052-0.217-0.177
					c0-0.088,0.072-0.138,0.217-0.152c0.203-0.023,0.333-0.063,0.39-0.117c0.071-0.067,0.106-0.209,0.106-0.425v-4.664
					c0-0.314-0.029-0.512-0.086-0.595c-0.057-0.083-0.216-0.165-0.476-0.246c-0.139-0.044-0.189-0.127-0.152-0.249
					c0.017-0.064,0.043-0.099,0.081-0.106c0.034-0.01,0.124-0.003,0.269,0.02c0.216,0.034,0.78,0.051,1.691,0.051
					c0.908,0,1.689-0.021,2.344-0.061c0.22-0.013,0.329,0.002,0.329,0.046c0,0.017-0.003,0.034-0.01,0.05
					c-0.071,0.331-0.102,0.711-0.091,1.14c0.003,0.104-0.045,0.157-0.147,0.157c-0.094,0-0.16-0.045-0.197-0.137
					c-0.095-0.236-0.177-0.396-0.248-0.481c-0.108-0.128-0.264-0.209-0.466-0.243c-0.162-0.03-0.733-0.045-1.712-0.045
					c-0.111,0-0.182,0.019-0.212,0.056c-0.017,0.021-0.025,0.071-0.025,0.152v2.117c0,0.084,0.049,0.126,0.147,0.126
					c0.311-0.007,0.756-0.028,1.337-0.066c0.101-0.01,0.175-0.059,0.223-0.146c0.037-0.068,0.076-0.208,0.116-0.42
					c0.031-0.145,0.11-0.197,0.238-0.157c0.115,0.021,0.164,0.073,0.146,0.157c-0.094,0.459-0.125,1.057-0.091,1.792
					c0.003,0.081-0.052,0.13-0.167,0.147c-0.102,0.014-0.161-0.042-0.177-0.167c-0.034-0.26-0.077-0.432-0.129-0.514
					s-0.151-0.132-0.296-0.149c-0.277-0.034-0.696-0.051-1.256-0.051c-0.061,0-0.091,0.024-0.091,0.071v2.208
					c0,0.314,0.182,0.506,0.547,0.577c0.091,0.017,0.407,0.025,0.947,0.025c0.841,0,1.366-0.293,1.575-0.881
					c0.051-0.139,0.133-0.184,0.249-0.137C222.151,110.351,222.193,110.413,222.17,110.511z"/>
				<path class="st1" d="M238.62,105.326c0,0.115-0.108,0.204-0.324,0.269c-0.233,0.071-0.429,0.304-0.587,0.699
					c-0.76,1.87-1.465,3.659-2.117,5.367c-0.054,0.142-0.179,0.24-0.375,0.294c-0.01,0.007-0.022,0.01-0.035,0.01
					c-0.095,0-0.162-0.102-0.203-0.304c-0.155-0.736-0.719-2.201-1.691-4.395c-0.422,1.06-0.982,2.525-1.681,4.395
					c-0.05,0.142-0.17,0.24-0.359,0.294c-0.014,0.003-0.027,0.007-0.041,0.01c-0.095,0-0.16-0.102-0.197-0.304
					c-0.128-0.678-0.87-2.526-2.223-5.544c-0.139-0.311-0.376-0.505-0.714-0.583c-0.166-0.037-0.248-0.086-0.248-0.146
					c0-0.142,0.072-0.206,0.218-0.193c0.523,0.047,1.176,0.012,1.959-0.106c0.132-0.021,0.214-0.022,0.248-0.005
					c0.03,0.017,0.051,0.068,0.061,0.152c0.017,0.068-0.066,0.147-0.249,0.238c-0.216,0.108-0.324,0.231-0.324,0.37
					c0,0.061,0.015,0.131,0.045,0.212c0.337,0.895,0.876,2.318,1.615,4.269c0.023,0.064,0.056,0.096,0.096,0.096
					c0.037,0,0.067-0.032,0.091-0.096l1.402-3.732c-0.054-0.111-0.13-0.27-0.228-0.476c-0.122-0.253-0.336-0.451-0.643-0.592
					c-0.155-0.071-0.228-0.14-0.218-0.208c0.017-0.152,0.093-0.218,0.228-0.197c0.598,0.098,1.268,0.108,2.011,0.03
					c0.135-0.013,0.218-0.011,0.25,0.008s0.048,0.072,0.048,0.159c0,0.084-0.086,0.154-0.258,0.208
					c-0.331,0.104-0.497,0.214-0.497,0.329c0,0.044,0.017,0.111,0.051,0.202l1.63,4.269c0.023,0.067,0.058,0.101,0.102,0.101
					c0.037,0,0.069-0.034,0.096-0.101l1.514-4.041c0.027-0.081,0.041-0.153,0.041-0.218c0-0.233-0.201-0.417-0.603-0.552
					c-0.152-0.051-0.225-0.126-0.218-0.228c0.007-0.074,0.025-0.12,0.056-0.137c0.037-0.017,0.13-0.017,0.279,0
					c0.628,0.074,1.219,0.081,1.772,0.021C238.547,105.155,238.62,105.208,238.62,105.326z"/>
				<path class="st1" d="M248.017,108.44c0,0.976-0.361,1.803-1.083,2.481c-0.709,0.668-1.562,1.003-2.557,1.003
					c-1.046,0-1.916-0.314-2.608-0.942c-0.709-0.648-1.063-1.485-1.063-2.512c0-0.992,0.36-1.826,1.079-2.501
					c0.709-0.662,1.573-0.992,2.593-0.992c1.04,0,1.904,0.322,2.593,0.967C247.668,106.599,248.017,107.431,248.017,108.44z
					 M246.989,108.612c0-0.982-0.269-1.758-0.805-2.329c-0.517-0.547-1.198-0.82-2.046-0.82c-0.702,0-1.278,0.259-1.729,0.777
					s-0.676,1.192-0.676,2.023c0,0.996,0.262,1.779,0.785,2.35c0.51,0.554,1.202,0.831,2.076,0.831c0.706,0,1.281-0.26,1.727-0.78
					C246.767,110.143,246.989,109.459,246.989,108.612z"/>
				<path class="st1" d="M256.346,111.787c0.004,0.078-0.063,0.116-0.197,0.116c-1.213,0-2.357-1.038-3.434-3.114
					c-0.414,0.021-0.637,0.031-0.664,0.031v2.126c0,0.159,0.039,0.264,0.117,0.316c0.078,0.053,0.25,0.099,0.518,0.14
					c0.186,0.03,0.277,0.096,0.277,0.197c0,0.084-0.016,0.137-0.045,0.157c-0.031,0.02-0.115,0.027-0.254,0.02
					c-0.611-0.027-1.277-0.014-2,0.041c-0.145,0.01-0.217-0.049-0.217-0.177c0-0.088,0.072-0.138,0.217-0.152
					c0.331-0.034,0.496-0.214,0.496-0.542v-4.851c0-0.32-0.187-0.518-0.562-0.592c-0.186-0.037-0.279-0.096-0.279-0.177
					c0-0.125,0.063-0.188,0.188-0.188c0.037,0,0.078,0.003,0.122,0.01c0.138,0.021,0.349,0.03,0.633,0.03
					c0.095,0,0.332-0.005,0.715-0.015c0.381-0.01,0.734-0.015,1.063-0.015c0.676,0,1.209,0.126,1.6,0.38
					c0.439,0.28,0.658,0.694,0.658,1.241c0,0.935-0.539,1.553-1.619,1.853c0.344,0.783,0.748,1.455,1.215,2.016
					c0.477,0.574,0.904,0.891,1.285,0.952C256.283,111.606,256.34,111.672,256.346,111.787z M254.311,106.891
					c0-0.5-0.129-0.856-0.385-1.069c-0.258-0.212-0.668-0.319-1.23-0.319c-0.254,0-0.424,0.035-0.512,0.104
					c-0.088,0.069-0.133,0.218-0.133,0.448v2.385c0.818-0.027,1.404-0.17,1.764-0.431
					C254.145,107.77,254.311,107.397,254.311,106.891z"/>
				<path class="st1" d="M264.659,111.6c0,0.081-0.011,0.132-0.033,0.152c-0.021,0.021-0.076,0.029-0.164,0.025
					c-0.875-0.037-1.57-0.02-2.087,0.051c-0.124,0.017-0.197-0.01-0.218-0.081c-0.02-0.081,0.05-0.157,0.208-0.228
					c0.095-0.041,0.142-0.12,0.142-0.238s-0.054-0.233-0.162-0.344c-0.473-0.486-1.284-1.278-2.436-2.375v2.385
					c0,0.192,0.201,0.344,0.603,0.456c0.179,0.05,0.269,0.116,0.269,0.197c0,0.084-0.015,0.137-0.046,0.157
					c-0.03,0.02-0.107,0.027-0.232,0.02c-0.598-0.027-1.258-0.014-1.98,0.041c-0.138,0.01-0.207-0.049-0.207-0.177
					c0-0.088,0.069-0.138,0.207-0.152c0.317-0.037,0.477-0.218,0.477-0.542v-4.861c0-0.314-0.178-0.512-0.532-0.593
					c-0.124-0.03-0.2-0.053-0.228-0.068s-0.04-0.051-0.04-0.109c0-0.081,0.015-0.132,0.045-0.154s0.117-0.029,0.259-0.023
					c0.847,0.047,1.521,0.047,2.021,0c0.145-0.013,0.218,0.046,0.218,0.177c0,0.064-0.073,0.113-0.218,0.147
					c-0.261,0.058-0.416,0.104-0.466,0.142c-0.099,0.068-0.147,0.203-0.147,0.405v2.213c0.952-0.797,1.72-1.458,2.305-1.985
					c0.172-0.152,0.258-0.295,0.258-0.431c0-0.135-0.093-0.236-0.278-0.304c-0.108-0.037-0.166-0.059-0.173-0.066
					c-0.05-0.03-0.068-0.081-0.056-0.152c0.011-0.078,0.031-0.123,0.062-0.137c0.033-0.017,0.112-0.013,0.237,0.01
					c0.655,0.067,1.256,0.074,1.803,0.02c0.085-0.006,0.139-0.001,0.162,0.015c0.023,0.017,0.042,0.064,0.056,0.142
					c0.014,0.067,0.005,0.114-0.025,0.139s-0.104,0.055-0.223,0.088c-0.317,0.098-0.717,0.345-1.2,0.74
					c-0.357,0.29-1.108,0.915-2.253,1.874c1.235,1.178,2.204,2.081,2.906,2.709c0.308,0.277,0.621,0.459,0.942,0.547
					C264.583,111.477,264.659,111.532,264.659,111.6z"/>
				<path class="st1" d="M269.348,105.225c0,0.084-0.092,0.153-0.273,0.208c-0.409,0.122-0.613,0.28-0.613,0.476v4.927
					c0,0.317,0.188,0.51,0.563,0.577c0.186,0.034,0.278,0.1,0.278,0.198c0,0.084-0.017,0.137-0.048,0.157
					c-0.032,0.021-0.119,0.027-0.261,0.021c-0.892-0.037-1.58-0.037-2.066,0c-0.125,0.01-0.197-0.014-0.218-0.071
					c-0.007-0.024-0.01-0.059-0.01-0.106c0-0.067,0.076-0.118,0.228-0.152c0.283-0.064,0.447-0.11,0.491-0.137
					c0.108-0.068,0.162-0.206,0.162-0.416v-4.967c0-0.28-0.189-0.452-0.567-0.517c-0.158-0.027-0.237-0.076-0.237-0.147
					c0-0.098,0.012-0.158,0.037-0.18s0.086-0.028,0.18-0.018c0.659,0.071,1.339,0.064,2.041-0.021
					c0.132-0.017,0.209-0.021,0.233-0.015C269.32,105.059,269.348,105.12,269.348,105.225z"/>
				<path class="st1" d="M279.438,105.214c0,0.084-0.091,0.154-0.273,0.208c-0.404,0.115-0.607,0.35-0.607,0.704v3.641
					c0,0.766,0.011,1.384,0.03,1.854c0.007,0.179-0.035,0.28-0.126,0.304c-0.152,0.037-0.28-0.042-0.385-0.238
					c-0.169-0.32-0.831-1.11-1.985-2.37c-0.966-1.05-1.9-2.031-2.806-2.942c-0.03-0.03-0.061-0.039-0.091-0.025
					c-0.034,0.017-0.051,0.056-0.051,0.116v4.152c0,0.446,0.225,0.711,0.674,0.795c0.186,0.037,0.278,0.103,0.278,0.198
					c0,0.128-0.104,0.187-0.313,0.177c-0.804-0.034-1.429-0.034-1.874,0c-0.146,0.01-0.218-0.049-0.218-0.177
					c0-0.071,0.072-0.122,0.218-0.152c0.26-0.061,0.434-0.144,0.521-0.248c0.088-0.105,0.132-0.282,0.132-0.532v-4.481
					c0-0.196-0.041-0.346-0.122-0.451c-0.077-0.095-0.228-0.192-0.45-0.294c-0.165-0.078-0.245-0.157-0.238-0.238
					c0.011-0.091,0.086-0.126,0.229-0.106c0.438,0.061,0.818,0.074,1.139,0.041c0.166-0.017,0.314,0.045,0.446,0.188l4.243,4.522
					c0.058,0.064,0.096,0.096,0.116,0.096c0.027,0,0.041-0.046,0.041-0.137v-3.661c0-0.429-0.225-0.682-0.674-0.76
					c-0.159-0.027-0.238-0.074-0.238-0.142c0-0.142,0.072-0.204,0.218-0.188c0.554,0.061,1.172,0.054,1.854-0.02
					c0.118-0.014,0.194-0.015,0.228-0.005C279.409,105.059,279.438,105.116,279.438,105.214z"/>
				<path class="st1" d="M288.865,108.759c0,0.108-0.079,0.174-0.237,0.198c-0.223,0.034-0.353,0.057-0.39,0.071
					c-0.122,0.051-0.183,0.148-0.183,0.293v1.585c0,0.199-0.26,0.412-0.78,0.638c-0.584,0.253-1.24,0.38-1.97,0.38
					c-1.06,0-1.942-0.316-2.648-0.947c-0.715-0.641-1.073-1.463-1.073-2.466c0-1.023,0.37-1.874,1.109-2.552
					c0.716-0.655,1.576-0.982,2.582-0.982c0.773,0,1.43,0.093,1.97,0.278c0.398,0.135,0.606,0.27,0.623,0.405
					c0.034,0.256,0.051,0.636,0.051,1.139c0,0.111-0.069,0.17-0.208,0.177c-0.162,0.007-0.262-0.039-0.299-0.137
					c-0.186-0.503-0.446-0.865-0.782-1.086c-0.336-0.221-0.797-0.332-1.385-0.332c-0.811,0-1.443,0.248-1.898,0.745
					c-0.47,0.516-0.704,1.255-0.704,2.218c0,0.928,0.27,1.676,0.81,2.243c0.523,0.554,1.197,0.831,2.021,0.831
					c0.422,0,0.815-0.076,1.181-0.228c0.348-0.145,0.521-0.292,0.521-0.44v-1.053c0-0.25-0.051-0.431-0.152-0.542
					c-0.088-0.101-0.262-0.19-0.521-0.269c-0.192-0.057-0.283-0.126-0.273-0.208c0.014-0.087,0.036-0.142,0.068-0.162
					c0.032-0.02,0.114-0.021,0.245-0.005c0.72,0.088,1.418,0.095,2.097,0.021c0.037-0.003,0.067-0.005,0.091-0.005
					C288.82,108.566,288.865,108.631,288.865,108.759z"/>
				<path class="st1" d="M301.848,108.44c0,0.976-0.361,1.803-1.084,2.481c-0.709,0.668-1.562,1.003-2.558,1.003
					c-1.046,0-1.915-0.314-2.607-0.942c-0.709-0.648-1.063-1.485-1.063-2.512c0-0.992,0.359-1.826,1.079-2.501
					c0.709-0.662,1.572-0.992,2.592-0.992c1.04,0,1.904,0.322,2.593,0.967C301.498,106.599,301.848,107.431,301.848,108.44z
					 M300.819,108.612c0-0.982-0.269-1.758-0.805-2.329c-0.517-0.547-1.199-0.82-2.046-0.82c-0.702,0-1.279,0.259-1.729,0.777
					c-0.451,0.518-0.676,1.192-0.676,2.023c0,0.996,0.262,1.779,0.784,2.35c0.51,0.554,1.202,0.831,2.076,0.831
					c0.706,0,1.281-0.26,1.728-0.78C300.597,110.143,300.819,109.459,300.819,108.612z"/>
				<path class="st1" d="M311.866,105.214c0,0.084-0.091,0.154-0.273,0.208c-0.404,0.115-0.607,0.35-0.607,0.704v3.641
					c0,0.766,0.011,1.384,0.03,1.854c0.007,0.179-0.035,0.28-0.126,0.304c-0.152,0.037-0.28-0.042-0.385-0.238
					c-0.169-0.32-0.831-1.11-1.985-2.37c-0.966-1.05-1.9-2.031-2.806-2.942c-0.03-0.03-0.061-0.039-0.091-0.025
					c-0.034,0.017-0.051,0.056-0.051,0.116v4.152c0,0.446,0.225,0.711,0.674,0.795c0.186,0.037,0.278,0.103,0.278,0.198
					c0,0.128-0.104,0.187-0.313,0.177c-0.804-0.034-1.429-0.034-1.874,0c-0.146,0.01-0.218-0.049-0.218-0.177
					c0-0.071,0.072-0.122,0.218-0.152c0.26-0.061,0.434-0.144,0.521-0.248c0.088-0.105,0.132-0.282,0.132-0.532v-4.481
					c0-0.196-0.041-0.346-0.122-0.451c-0.077-0.095-0.228-0.192-0.45-0.294c-0.165-0.078-0.245-0.157-0.238-0.238
					c0.011-0.091,0.086-0.126,0.229-0.106c0.438,0.061,0.818,0.074,1.139,0.041c0.166-0.017,0.314,0.045,0.446,0.188l4.243,4.522
					c0.058,0.064,0.096,0.096,0.116,0.096c0.027,0,0.041-0.046,0.041-0.137v-3.661c0-0.429-0.225-0.682-0.674-0.76
					c-0.159-0.027-0.238-0.074-0.238-0.142c0-0.142,0.072-0.204,0.218-0.188c0.554,0.061,1.172,0.054,1.854-0.02
					c0.118-0.014,0.194-0.015,0.228-0.005C311.838,105.059,311.866,105.116,311.866,105.214z"/>
				<path class="st1" d="M320.342,105.225c0,0.084-0.092,0.153-0.273,0.208c-0.409,0.122-0.613,0.28-0.613,0.476v4.927
					c0,0.317,0.188,0.51,0.563,0.577c0.186,0.034,0.278,0.1,0.278,0.198c0,0.084-0.017,0.137-0.048,0.157
					c-0.032,0.021-0.119,0.027-0.261,0.021c-0.892-0.037-1.58-0.037-2.066,0c-0.125,0.01-0.197-0.014-0.218-0.071
					c-0.007-0.024-0.01-0.059-0.01-0.106c0-0.067,0.076-0.118,0.228-0.152c0.283-0.064,0.447-0.11,0.491-0.137
					c0.108-0.068,0.162-0.206,0.162-0.416v-4.967c0-0.28-0.189-0.452-0.567-0.517c-0.158-0.027-0.237-0.076-0.237-0.147
					c0-0.098,0.012-0.158,0.037-0.18s0.086-0.028,0.18-0.018c0.659,0.071,1.339,0.064,2.041-0.021
					c0.132-0.017,0.209-0.021,0.233-0.015C320.314,105.059,320.342,105.12,320.342,105.225z"/>
				<path class="st1" d="M329.156,106.729c-0.004,0.061-0.012,0.102-0.023,0.124s-0.046,0.038-0.104,0.048
					c-0.125,0.027-0.207-0.02-0.248-0.142c-0.146-0.449-0.317-0.748-0.517-0.896c-0.276-0.206-0.761-0.309-1.453-0.309
					c-0.28,0-0.434,0.03-0.461,0.091c-0.01,0.021-0.015,0.049-0.015,0.086v5.048c0,0.216,0.05,0.367,0.151,0.453
					s0.302,0.165,0.603,0.235c0.129,0.027,0.201,0.046,0.218,0.056c0.048,0.031,0.064,0.095,0.051,0.193
					c-0.01,0.078-0.047,0.12-0.111,0.126c-0.007,0.003-0.076-0.002-0.208-0.015c-0.891-0.078-1.627-0.081-2.207-0.01
					c-0.139,0.017-0.229,0.017-0.269,0c-0.034-0.017-0.056-0.058-0.066-0.122c-0.026-0.108,0.032-0.181,0.178-0.218
					c0.29-0.074,0.486-0.164,0.587-0.268c0.115-0.118,0.173-0.309,0.173-0.572v-4.907c0-0.098-0.062-0.155-0.183-0.172
					c-0.014-0.003-0.113-0.005-0.299-0.005c-0.642,0-1.114,0.111-1.418,0.334c-0.229,0.166-0.434,0.469-0.612,0.912
					c-0.058,0.138-0.137,0.184-0.238,0.137c-0.115-0.027-0.157-0.089-0.127-0.188c0.118-0.364,0.178-0.879,0.178-1.544
					c0-0.078,0.103-0.109,0.309-0.096c0.729,0.047,1.536,0.071,2.421,0.071c1.674,0,2.76-0.034,3.256-0.101
					c0.188-0.027,0.292,0.003,0.309,0.091C329.124,105.618,329.166,106.138,329.156,106.729z"/>
			</g>
		</g>
		<g>
			<path class="st2" d="M195.098,41.546c4.202,0,7.64,1.419,10.313,4.256c2.674,2.838,4.011,6.589,4.011,11.255
				s-1.337,8.417-4.011,11.255s-6.112,4.256-10.313,4.256c-4.215,0-7.667-1.422-10.354-4.267c-2.688-2.845-4.031-6.592-4.031-11.245
				c0-4.666,1.344-8.417,4.031-11.255C187.431,42.965,190.882,41.546,195.098,41.546z M195.057,69.172
				c3.001,0,5.46-1.064,7.377-3.192c1.917-2.128,2.875-5.102,2.875-8.922s-0.955-6.794-2.865-8.922
				c-1.91-2.128-4.345-3.192-7.305-3.192c-3.015,0-5.488,1.064-7.418,3.192c-1.931,2.128-2.896,5.102-2.896,8.922
				c0,3.806,0.962,6.777,2.885,8.912C189.634,68.104,192.083,69.172,195.057,69.172z"/>
			<path class="st2" d="M222.989,49.854c3.097,0,5.569,0.989,7.418,2.967c1.848,1.978,2.773,4.775,2.773,8.39
				c0,3.602-0.925,6.395-2.773,8.38c-1.849,1.985-4.321,2.978-7.418,2.978c-3.083,0-5.549-0.993-7.397-2.978
				s-2.773-4.778-2.773-8.38c0-3.615,0.924-6.412,2.773-8.39S219.906,49.854,222.989,49.854z M222.989,69.54
				c1.842,0,3.335-0.699,4.481-2.097s1.719-3.476,1.719-6.231c0-2.769-0.573-4.853-1.719-6.251c-1.146-1.398-2.64-2.097-4.481-2.097
				s-3.335,0.699-4.481,2.097c-1.146,1.399-1.719,3.482-1.719,6.251c0,2.756,0.573,4.833,1.719,6.231S221.147,69.54,222.989,69.54z"
				/>
			<path class="st2" d="M241.365,52.944c1.719-2.06,3.786-3.09,6.2-3.09c2.837,0,5.034,1.006,6.588,3.019
				c1.557,2.012,2.334,4.73,2.334,8.154c0,3.561-0.869,6.375-2.609,8.441c-1.74,2.066-3.932,3.1-6.579,3.1
				c-2.347,0-4.325-0.73-5.935-2.19v10.027h-3.868V50.346h3.868V52.944z M241.365,66.9c1.65,1.76,3.547,2.64,5.689,2.64
				c1.664,0,2.987-0.712,3.97-2.138c0.981-1.425,1.474-3.55,1.474-6.375c0-2.673-0.465-4.703-1.392-6.088
				c-0.928-1.384-2.224-2.077-3.888-2.077c-2.142,0-4.093,1.241-5.853,3.724V66.9z"/>
			<path class="st2" d="M268.561,72.569c-5.934,0-9.038-2.333-9.311-6.999h3.867c0.027,2.647,1.828,3.97,5.402,3.97
				c1.597,0,2.814-0.331,3.653-0.992s1.258-1.49,1.258-2.486c0-0.982-0.409-1.675-1.228-2.077s-2.507-0.924-5.064-1.565
				c-2.558-0.641-4.427-1.357-5.606-2.148c-1.181-0.791-1.771-2.183-1.771-4.175c0-1.801,0.733-3.291,2.2-4.471
				c1.466-1.18,3.427-1.77,5.883-1.77c5.688,0,8.595,2.026,8.717,6.078h-3.847c-0.137-2.046-1.671-3.069-4.604-3.069
				c-1.296,0-2.37,0.246-3.223,0.736c-0.853,0.491-1.279,1.208-1.279,2.149c0,0.846,0.328,1.457,0.982,1.832
				c0.655,0.375,2.295,0.88,4.922,1.514c2.626,0.634,4.576,1.375,5.853,2.22c1.275,0.846,1.913,2.306,1.913,4.379
				c0,1.979-0.788,3.619-2.363,4.921C273.339,71.917,271.221,72.569,268.561,72.569z"/>
			<path class="st2" d="M286.834,72.057h-4.194v-4.195h4.194V72.057z"/>
			<path class="st2" d="M298.478,72.057h-4.194v-4.195h4.194V72.057z"/>
			<path class="st2" d="M310.121,72.057h-4.194v-4.195h4.194V72.057z"/>
		</g>
	</g>
	<g>
		<g>
			<g>
				<path class="st1" d="M214.234,389.327v6.347c0,1.126,0.077,1.844,0.231,2.154c0.077,0.155,0.337,0.32,0.781,0.494
					c0.443,0.176,1.167,0.321,2.17,0.438c1.003,0.116,1.91,0.174,2.72,0.174v0.579h-19.618v-0.579c1.427,0,2.729-0.058,3.906-0.174
					c1.176-0.116,1.987-0.262,2.431-0.438c0.443-0.174,0.732-0.388,0.868-0.64c0.134-0.252,0.202-0.922,0.202-2.009v-6.347h-11.805
					l17.129-27.141h0.984v25.115h5.902v2.025H214.234z M207.926,387.302v-15.566l-9.722,15.566H207.926z"/>
				<path class="st1" d="M234.604,400.033c-3.203,0-6-1.716-8.391-5.15c-2.585-3.703-3.877-8.371-3.877-14.004
					s1.273-10.281,3.819-13.947c2.392-3.472,5.208-5.208,8.449-5.208s6.057,1.717,8.449,5.15c2.585,3.704,3.878,8.372,3.878,14.005
					s-1.244,10.233-3.733,13.802C240.709,398.249,237.845,400.033,234.604,400.033z M234.604,399.513c1.542,0,2.7-1.56,3.472-4.681
					c0.771-3.119,1.157-7.78,1.157-13.982c0-5.971-0.058-9.688-0.173-11.151c-0.386-4.969-1.872-7.453-4.456-7.453
					c-1.504,0-2.643,1.55-3.415,4.65c-0.772,3.102-1.157,7.753-1.157,13.954c0,6.01,0.058,9.747,0.174,11.21
					C230.591,397.029,232.058,399.513,234.604,399.513z"/>
				<path class="st1" d="M266.779,389.327v6.347c0,1.126,0.077,1.844,0.231,2.154c0.077,0.155,0.338,0.32,0.781,0.494
					c0.443,0.176,1.167,0.321,2.171,0.438c1.002,0.116,1.909,0.174,2.72,0.174v0.579h-19.618v-0.579
					c1.427,0,2.729-0.058,3.906-0.174c1.177-0.116,1.986-0.262,2.431-0.438c0.443-0.174,0.732-0.388,0.868-0.64
					c0.135-0.252,0.202-0.922,0.202-2.009v-6.347h-11.806l17.13-27.141h0.983v25.115h5.903v2.025H266.779z M260.472,387.302v-15.566
					l-9.722,15.566H260.472z"/>
			</g>
			<g>
				<path class="st1" d="M198.608,413.621v2.874c0,0.247,0.017,0.405,0.051,0.473c0.017,0.034,0.077,0.07,0.178,0.108
					c0.102,0.039,0.301,0.071,0.598,0.097s0.704,0.038,1.222,0.038v0.127h-5.499v-0.127c0.433,0,0.791-0.013,1.076-0.038
					c0.284-0.025,0.477-0.058,0.579-0.097c0.102-0.038,0.161-0.074,0.178-0.108c0.034-0.067,0.051-0.226,0.051-0.472v-6.563
					c0-0.229-0.017-0.379-0.051-0.446c-0.017-0.034-0.068-0.068-0.153-0.103c-0.263-0.094-0.823-0.141-1.68-0.141v-0.114h4.938
					c1.009,0,1.807,0.233,2.393,0.7c0.551,0.441,0.827,1.018,0.827,1.73c0,0.483-0.212,0.925-0.636,1.324
					c-0.526,0.492-1.239,0.737-2.138,0.737H198.608z M198.608,413.507h1.291c0.708,0,1.202-0.183,1.482-0.549
					c0.239-0.314,0.358-0.816,0.358-1.506c0-0.724-0.158-1.272-0.473-1.647c-0.315-0.374-0.801-0.562-1.457-0.562h-0.613
					c-0.179,0-0.311,0.013-0.396,0.038c-0.085,0.026-0.139,0.079-0.16,0.16c-0.021,0.081-0.032,0.244-0.032,0.491V413.507z"/>
				<path class="st1" d="M206.702,413.642V412.9c0-0.341-0.054-0.571-0.162-0.69c-0.108-0.119-0.342-0.18-0.7-0.18
					c-0.292,0-0.547,0.057-0.768,0.169c-0.22,0.113-0.364,0.265-0.432,0.455c0.034-0.009,0.076-0.013,0.127-0.013
					c0.161,0,0.293,0.063,0.395,0.19c0.102,0.128,0.153,0.272,0.153,0.434c0,0.187-0.064,0.339-0.193,0.458
					c-0.128,0.118-0.278,0.178-0.45,0.178c-0.111,0-0.21-0.029-0.295-0.089c-0.249-0.161-0.373-0.365-0.373-0.611
					c0-0.118,0.025-0.254,0.076-0.407c0.119-0.331,0.416-0.572,0.891-0.726c0.339-0.109,0.683-0.165,1.031-0.165
					c0.628,0,1.103,0.118,1.425,0.355c0.289,0.212,0.433,0.479,0.433,0.8v2.806c0,0.509,0.013,0.821,0.039,0.94
					c0.059,0.288,0.212,0.432,0.458,0.432c0.221,0,0.369-0.114,0.445-0.342c0.077-0.228,0.115-0.557,0.115-0.987
					c0-0.118-0.002-0.235-0.006-0.354c-0.004-0.118-0.006-0.241-0.006-0.367v-0.114h0.152v0.561c0,0.178,0.004,0.348,0.013,0.509
					c0,0.492-0.06,0.823-0.179,0.992c-0.154,0.213-0.465,0.318-0.934,0.318c-0.367,0-0.64-0.063-0.819-0.188
					c-0.214-0.151-0.354-0.408-0.423-0.77c-0.178,0.412-0.445,0.689-0.802,0.832c-0.212,0.084-0.496,0.126-0.853,0.126
					s-0.666-0.085-0.929-0.255c-0.365-0.229-0.547-0.577-0.547-1.045c0-0.458,0.178-0.845,0.533-1.159
					c0.354-0.306,0.786-0.48,1.292-0.522c0.507-0.043,0.85-0.11,1.027-0.204S206.702,413.965,206.702,413.642z M206.664,415.944
					v-1.701c-0.102,0.137-0.252,0.22-0.452,0.249c-0.2,0.03-0.393,0.058-0.579,0.083c-0.246,0.06-0.441,0.196-0.585,0.409
					c-0.17,0.256-0.254,0.614-0.254,1.074c0,0.495,0.048,0.83,0.146,1.005s0.252,0.262,0.465,0.262c0.322,0,0.613-0.134,0.872-0.402
					S206.664,416.328,206.664,415.944z"/>
				<path class="st1" d="M210.508,415.174c-0.272-0.135-0.484-0.313-0.637-0.534c-0.152-0.221-0.229-0.492-0.229-0.814
					c0-0.543,0.246-1.006,0.738-1.388c0.45-0.348,0.946-0.521,1.489-0.521c0.161,0,0.331,0.021,0.509,0.063
					c0.178,0.043,0.344,0.098,0.497,0.166v-0.306c0-0.398,0.07-0.66,0.21-0.783c0.14-0.122,0.354-0.185,0.643-0.185
					c0.127,0,0.237,0.044,0.331,0.13c0.093,0.086,0.14,0.197,0.14,0.335c0,0.302-0.14,0.452-0.42,0.452
					c-0.288,0-0.433-0.138-0.433-0.413c0-0.052,0.008-0.099,0.025-0.142s0.039-0.087,0.064-0.13c-0.17,0.025-0.282,0.1-0.337,0.223
					c-0.055,0.122-0.083,0.289-0.083,0.501c0.008,0.178,0.013,0.309,0.013,0.394c0.331,0.161,0.592,0.373,0.783,0.636
					c0.191,0.264,0.286,0.569,0.286,0.917c0,0.518-0.246,0.941-0.738,1.272c-0.441,0.297-0.938,0.445-1.489,0.445
					c-0.391,0-0.76-0.067-1.107-0.203c-0.293,0-0.533,0.047-0.717,0.14c-0.243,0.127-0.365,0.335-0.365,0.624
					c0,0.127,0.106,0.225,0.317,0.292c0.203,0.077,0.601,0.115,1.193,0.115h0.736c0.753,0,1.324,0.102,1.714,0.306
					c0.491,0.254,0.736,0.679,0.736,1.272c0,0.628-0.223,1.111-0.668,1.451c-0.445,0.339-1.029,0.509-1.75,0.509
					c-0.857,0-1.54-0.143-2.049-0.427c-0.509-0.284-0.764-0.608-0.764-0.974c0-0.237,0.14-0.437,0.42-0.598
					c0.195-0.11,0.5-0.226,0.917-0.344c-0.374-0.136-0.649-0.28-0.828-0.433c-0.246-0.212-0.369-0.488-0.369-0.827
					c0-0.356,0.106-0.649,0.318-0.879C209.816,415.289,210.117,415.174,210.508,415.174z M212.034,419.884
					c0.573,0,1.018-0.12,1.334-0.358c0.316-0.239,0.474-0.529,0.474-0.871c0-0.409-0.129-0.687-0.387-0.832
					c-0.258-0.145-0.733-0.217-1.427-0.217c-0.794,0-1.34,0.093-1.636,0.279c-0.246,0.153-0.369,0.416-0.369,0.789
					c0,0.356,0.101,0.624,0.304,0.802C210.639,419.747,211.208,419.884,212.034,419.884z M212.951,413.711
					c0-0.539-0.071-0.94-0.214-1.206c-0.167-0.316-0.457-0.475-0.868-0.475c-0.377,0-0.652,0.15-0.824,0.449
					s-0.258,0.71-0.258,1.231c0,0.599,0.073,1.025,0.22,1.282s0.434,0.385,0.862,0.385c0.386,0,0.662-0.135,0.83-0.404
					C212.867,414.705,212.951,414.283,212.951,413.711z"/>
				<path class="st1" d="M216.209,414.716c0,0.913,0.108,1.573,0.325,1.982s0.545,0.614,0.986,0.614
					c0.467,0,0.878-0.158,1.235-0.474c0.433-0.385,0.649-0.905,0.649-1.563h0.102c0,0.636-0.204,1.158-0.611,1.565
					s-0.95,0.61-1.629,0.61c-0.569,0-1.086-0.216-1.553-0.648c-0.552-0.51-0.827-1.176-0.827-1.999c0-0.891,0.271-1.616,0.814-2.176
					c0.475-0.483,1.01-0.726,1.604-0.726c0.551,0,1.01,0.161,1.375,0.483c0.535,0.476,0.802,1.252,0.802,2.329H216.209z
					 M218.399,414.563c0-0.823-0.074-1.45-0.22-1.884c-0.147-0.433-0.384-0.649-0.711-0.649c-0.461,0-0.787,0.206-0.975,0.617
					c-0.189,0.412-0.283,1.05-0.283,1.916H218.399z"/>
				<path class="st1" d="M225.347,414.218v2.507c0,0.171,0.013,0.281,0.038,0.332c0.017,0.026,0.058,0.052,0.121,0.077
					s0.178,0.047,0.344,0.064c0.166,0.017,0.312,0.025,0.439,0.025v0.114h-3.258v-0.114c0.187,0,0.371-0.009,0.554-0.025
					c0.183-0.018,0.346-0.052,0.49-0.103c0.051-0.043,0.076-0.166,0.076-0.371v-3.876c0-0.077-0.002-0.154-0.006-0.23
					c-0.004-0.077-0.023-0.137-0.057-0.179l-0.077-0.129c-0.085-0.06-0.407-0.089-0.967-0.089v-0.114l2.304-0.204v1.623
					c0.051-0.363,0.161-0.685,0.331-0.964c0.237-0.389,0.488-0.598,0.751-0.628c0.263-0.029,0.433-0.044,0.509-0.044
					c0.535,0,0.959,0.162,1.273,0.484c0.263,0.272,0.395,0.596,0.395,0.97v3.382c0,0.17,0.013,0.28,0.038,0.331
					c0.017,0.025,0.06,0.051,0.127,0.076c0.068,0.026,0.191,0.047,0.369,0.064c0.178,0.017,0.348,0.025,0.509,0.025v0.114h-3.258
					v-0.114c0.135,0,0.292-0.009,0.471-0.025c0.178-0.018,0.335-0.052,0.471-0.103c0.051-0.043,0.077-0.166,0.077-0.371v-3.236
					c0-0.409-0.034-0.72-0.102-0.934c-0.11-0.35-0.314-0.524-0.611-0.524c-0.39,0-0.708,0.243-0.955,0.729
					C225.555,413.126,225.424,413.612,225.347,414.218z"/>
				<path class="st1" d="M235.122,414.665c0,0.823-0.284,1.506-0.853,2.049c-0.518,0.492-1.099,0.738-1.744,0.738
					c-0.662,0-1.239-0.229-1.731-0.687c-0.577-0.535-0.865-1.235-0.865-2.101c0-0.823,0.284-1.502,0.853-2.036
					c0.518-0.483,1.099-0.726,1.744-0.726c0.653,0,1.23,0.229,1.731,0.688C234.833,413.117,235.122,413.809,235.122,414.665z
					 M233.798,414.665c0-0.941-0.081-1.604-0.242-1.985c-0.187-0.441-0.53-0.662-1.031-0.662c-0.458,0-0.785,0.213-0.98,0.637
					c-0.195,0.425-0.293,1.095-0.293,2.011c0,0.934,0.087,1.612,0.261,2.036c0.174,0.425,0.511,0.637,1.012,0.637
					c0.458,0,0.785-0.217,0.98-0.649S233.798,415.581,233.798,414.665z"/>
				<path class="st1" d="M239.207,414.627v0.586c0,0.195,0.004,0.382,0.013,0.56c0,0.594-0.068,1.001-0.204,1.222
					c-0.187,0.306-0.547,0.458-1.082,0.458c-0.509,0-0.882-0.123-1.12-0.369c-0.238-0.246-0.356-0.598-0.356-1.056v-3.615h-1.018
					v-0.114c0.696-0.17,1.22-0.575,1.573-1.214c0.284-0.512,0.425-1.087,0.425-1.727h0.216v2.686h1.464v0.369h-1.464v3.453
					c0,0.457,0.017,0.753,0.05,0.889c0.083,0.321,0.271,0.482,0.563,0.482c0.342,0,0.567-0.186,0.675-0.558
					c0.075-0.253,0.112-0.734,0.112-1.443v-0.608H239.207z"/>
				<path class="st1" d="M244.896,412.26v4.465c0,0.179,0.014,0.29,0.039,0.332c0.017,0.026,0.059,0.052,0.127,0.077
					c0.178,0.06,0.53,0.09,1.057,0.09v0.114h-3.615v-0.114c0.509,0,0.853-0.03,1.031-0.09l0.089-0.038
					c0.051-0.043,0.077-0.166,0.077-0.371v-4.465h-1.196v-0.217h1.196v-0.751c0-0.568,0.198-1.088,0.594-1.559
					c0.396-0.471,0.854-0.706,1.374-0.706c0.332,0,0.604,0.053,0.818,0.159c0.212,0.105,0.351,0.237,0.415,0.395
					c0.063,0.156,0.096,0.303,0.096,0.438c0,0.238-0.116,0.429-0.347,0.573c-0.095,0.06-0.202,0.089-0.322,0.089
					c-0.162,0-0.306-0.057-0.431-0.17c-0.124-0.113-0.186-0.263-0.186-0.447c0-0.336,0.165-0.533,0.496-0.592
					c-0.06-0.119-0.119-0.204-0.179-0.255c-0.059-0.051-0.152-0.076-0.279-0.076c-0.335,0-0.561,0.095-0.678,0.285
					s-0.176,0.543-0.176,1.058v1.559h1.185v0.217H244.896z"/>
				<path class="st1" d="M252.379,414.665c0,0.823-0.284,1.506-0.853,2.049c-0.518,0.492-1.099,0.738-1.744,0.738
					c-0.661,0-1.238-0.229-1.73-0.687c-0.577-0.535-0.865-1.235-0.865-2.101c0-0.823,0.284-1.502,0.853-2.036
					c0.518-0.483,1.099-0.726,1.743-0.726c0.653,0,1.23,0.229,1.731,0.688C252.091,413.117,252.379,413.809,252.379,414.665z
					 M251.056,414.665c0-0.941-0.081-1.604-0.242-1.985c-0.187-0.441-0.53-0.662-1.031-0.662c-0.458,0-0.784,0.213-0.979,0.637
					c-0.195,0.425-0.293,1.095-0.293,2.011c0,0.934,0.087,1.612,0.261,2.036c0.174,0.425,0.512,0.637,1.012,0.637
					c0.459,0,0.785-0.217,0.98-0.649S251.056,415.581,251.056,414.665z"/>
				<path class="st1" d="M256.872,412.695c0-0.196-0.023-0.326-0.07-0.391c-0.046-0.063-0.123-0.104-0.229-0.121
					c-0.106-0.018-0.452-0.025-1.037-0.025v-0.115l2.532-0.14v4.325c0,0.11,0.002,0.222,0.007,0.332
					c0.004,0.11,0.022,0.191,0.057,0.242l0.076,0.128c0.085,0.06,0.408,0.089,0.968,0.089v0.114l-2.304,0.204v-1.611
					c-0.051,0.347-0.178,0.668-0.382,0.964c-0.263,0.381-0.585,0.593-0.967,0.635c-0.052,0.009-0.103,0.013-0.153,0.013h-0.152
					c-0.501,0-0.891-0.157-1.171-0.472c-0.238-0.264-0.356-0.583-0.356-0.957v-3.33c0-0.153-0.02-0.258-0.058-0.313
					c-0.038-0.056-0.096-0.088-0.172-0.096c-0.076-0.009-0.275-0.013-0.598-0.013h-0.293v-0.115l2.316-0.14v4.197
					c0,0.434,0.053,0.728,0.159,0.88c0.105,0.153,0.261,0.23,0.465,0.23c0.382,0,0.704-0.23,0.967-0.691
					c0.263-0.46,0.395-0.959,0.395-1.496V412.695z"/>
				<path class="st1" d="M261.772,414.218v2.507c0,0.171,0.013,0.281,0.038,0.332c0.017,0.026,0.057,0.052,0.121,0.077
					c0.063,0.025,0.178,0.047,0.343,0.064c0.166,0.017,0.313,0.025,0.439,0.025v0.114h-3.258v-0.114
					c0.187,0,0.371-0.009,0.554-0.025c0.182-0.018,0.345-0.052,0.489-0.103c0.051-0.043,0.077-0.166,0.077-0.371v-3.876
					c0-0.077-0.003-0.154-0.007-0.23c-0.004-0.077-0.023-0.137-0.058-0.179l-0.076-0.129c-0.085-0.06-0.407-0.089-0.967-0.089
					v-0.114l2.304-0.204v1.623c0.051-0.363,0.161-0.685,0.33-0.964c0.238-0.389,0.488-0.598,0.751-0.628
					c0.264-0.029,0.434-0.044,0.51-0.044c0.534,0,0.958,0.162,1.272,0.484c0.263,0.272,0.395,0.596,0.395,0.97v3.382
					c0,0.17,0.013,0.28,0.038,0.331c0.017,0.025,0.06,0.051,0.127,0.076c0.068,0.026,0.191,0.047,0.369,0.064
					c0.179,0.017,0.349,0.025,0.51,0.025v0.114h-3.259v-0.114c0.136,0,0.293-0.009,0.472-0.025c0.178-0.018,0.335-0.052,0.471-0.103
					c0.051-0.043,0.076-0.166,0.076-0.371v-3.236c0-0.409-0.034-0.72-0.102-0.934c-0.11-0.35-0.314-0.524-0.611-0.524
					c-0.391,0-0.708,0.243-0.954,0.729C261.979,413.126,261.849,413.612,261.772,414.218z"/>
				<path class="st1" d="M269.917,415.573c0,0.415-0.102,0.804-0.306,1.168c-0.263,0.475-0.628,0.711-1.095,0.711
					c-0.61,0-1.115-0.233-1.515-0.7c-0.433-0.509-0.648-1.209-0.648-2.1c0-0.61,0.199-1.196,0.598-1.756
					c0.467-0.662,1.057-0.993,1.77-0.993c0.382,0,0.683,0.211,0.903,0.634c0.153,0.296,0.25,0.622,0.293,0.977v-3.607
					c0-0.17-0.025-0.289-0.076-0.357c-0.051-0.067-0.123-0.11-0.217-0.127c-0.212-0.043-0.688-0.064-1.425-0.064v-0.114l2.914-0.216
					v7.571c0,0.17,0.013,0.281,0.038,0.332c0.017,0.025,0.056,0.051,0.114,0.076c0.179,0.06,0.526,0.089,1.044,0.089v0.115
					l-2.393,0.241V415.573z M269.854,414.64c0-0.853-0.098-1.501-0.293-1.944s-0.463-0.665-0.802-0.665
					c-0.407,0-0.689,0.19-0.847,0.569c-0.157,0.38-0.235,1.068-0.235,2.065c0,0.903,0.047,1.535,0.141,1.893
					c0.135,0.521,0.415,0.78,0.84,0.78c0.288,0,0.547-0.218,0.776-0.652C269.713,416.166,269.854,415.483,269.854,414.64z"/>
			</g>
		</g>
	</g>
	<g>
		<path class="st3" d="M292.605,319.968c0,0-44.104-2.462-34.534-38.814"/>
		<path class="st4" d="M299.072,330.024c-2.712-1.099-4.752-3.722-3.972-7.427c1.001-4.747,5.521-6.003,9.054-4.729
			c-1.147-2.43-3.369-4.317-6.2-4.913c-4.803-1.013-9.517,2.061-10.529,6.865c-1.012,4.803,2.063,9.517,6.865,10.526
			C295.944,330.695,297.587,330.551,299.072,330.024z"/>
		<path class="st5" d="M195.971,157.241c-0.49,2.886,0.669,5.999,4.231,7.281c4.565,1.645,8.009-1.54,8.781-5.214
			c1.465,2.252,1.902,5.135,0.923,7.856c-1.664,4.617-6.757,7.013-11.375,5.349c-4.617-1.664-7.012-6.755-5.349-11.373
			C193.756,159.549,194.742,158.229,195.971,157.241z"/>
		<path class="st3" d="M202.307,168.721c0,0-21.067,55.686,7.934,70.544"/>
		<path class="st5" d="M290.005,157.241c0.49,2.886-0.669,5.999-4.231,7.281c-4.564,1.645-8.009-1.54-8.781-5.214
			c-1.465,2.252-1.902,5.135-0.923,7.856c1.664,4.617,6.757,7.013,11.375,5.349c4.617-1.664,7.012-6.755,5.349-11.373
			C292.22,159.549,291.233,158.229,290.005,157.241z"/>
		<g>
			<line class="st6" x1="0" y1="157.5" x2="196" y2="157.5"/>
			<polygon class="st1" points="207.495,148.439 207.495,150.346 201.431,150.346 196.535,155.15 190.994,155.568 191.044,159.586 
				196.598,160.203 201.671,164.927 207.727,164.927 207.727,166.616 210.416,166.58 210.416,148.399 			"/>
		</g>
		<path class="st7" d="M281,154.03c0,0.536-0.435,0.97-0.97,0.97H266.97c-0.535,0-0.97-0.435-0.97-0.97v-0.06
			c0-0.536,0.435-0.97,0.97-0.97h13.061c0.535,0,0.97,0.435,0.97,0.97V154.03z"/>
		<path class="st7" d="M281,161.03c0,0.536-0.435,0.97-0.97,0.97H266.97c-0.535,0-0.97-0.435-0.97-0.97v-0.06
			c0-0.536,0.435-0.97,0.97-0.97h13.061c0.535,0,0.97,0.435,0.97,0.97V161.03z"/>
		<g>
			<line class="st6" x1="500" y1="157.5" x2="289" y2="157.5"/>
			<polygon class="st1" points="276.947,148.439 276.947,150.346 283.242,150.346 288.325,155.15 294.076,155.568 294.023,159.586 
				288.26,160.203 282.994,164.927 276.707,164.927 276.707,166.616 273.916,166.58 273.916,148.399 			"/>
		</g>
		<path class="st3" d="M205.25,324.274c0,0,42.972-10.238,27.111-44.317"/>
		<path class="st4" d="M193.586,323.311c2.306-1.804,5.596-2.265,8.418,0.26c3.617,3.234,2.453,7.777-0.412,10.206
			c2.678,0.217,5.421-0.77,7.35-2.925c3.271-3.659,2.958-9.279-0.702-12.551c-3.659-3.27-9.277-2.956-12.548,0.703
			C194.564,320.266,193.872,321.761,193.586,323.311z"/>
		<g>
			<polygon class="st4" points="241.698,186 248.138,233 236.011,233 240.936,186 			"/>
			<circle class="st7" cx="240.936" cy="196.5" r="11.874"/>
			<ellipse class="st8" cx="240.935" cy="196.5" rx="8.617" ry="8.828"/>
			<path class="st8" d="M240.936,187.671c-0.456,0-0.9,0.046-1.337,0.117c8.057,2.559,7.279,16.275-2.321,16.696
				c1.113,0.536,2.348,0.843,3.658,0.843c4.759,0,8.616-3.953,8.616-8.828C249.552,191.624,245.694,187.671,240.936,187.671z"/>
			<circle class="st7" cx="241.037" cy="196.237" r="2.322"/>
		</g>
		<path class="st3" d="M172.331,275.31c0,0,26.433-35.391,51.434-7.322"/>
		<path class="st3" d="M321.224,278.045c0,0-19.003-39.877-49.011-17.236"/>
		<path class="st3" d="M283.669,168.721c0,0,21.067,55.686-7.934,70.544"/>
		<g>
			<path class="st3" d="M202.717,341.987"/>
			<path class="st3" d="M232.049,278.62"/>
			<path class="st5" d="M200.035,346.431"/>
		</g>
		<g>
			<circle class="st4" cx="272.308" cy="239.264" r="8.865"/>
		</g>
		<path class="st4" d="M160.376,275.14c2.416-1.652,5.729-1.903,8.384,0.797c3.404,3.458,1.953,7.918-1.062,10.158
			c2.659,0.388,5.46-0.422,7.522-2.45c3.497-3.442,3.542-9.071,0.099-12.569c-3.442-3.498-9.069-3.543-12.567-0.099
			C161.545,272.163,160.759,273.611,160.376,275.14z"/>
		<g>
			<circle class="st4" cx="272.308" cy="261.521" r="8.865"/>
		</g>
		<g>
			<circle class="st4" cx="216.137" cy="239.264" r="8.866"/>
		</g>
		<g>
			<circle class="st4" cx="216.137" cy="261.521" r="8.866"/>
		</g>
		<g>
			<circle class="st4" cx="255.351" cy="277.419" r="8.865"/>
		</g>
		<g>
			<circle class="st4" cx="233.094" cy="277.419" r="8.866"/>
		</g>
		<polygon class="st1" points="272,278 215.927,278 214.234,224.644 272,221.259 		"/>
		<path class="st4" d="M292.291,160.005h-2.368c-0.437,1.919-1.726,3.644-4.149,4.517c-4.564,1.645-8.009-1.54-8.781-5.214
			c-1.465,2.252-1.902,5.135-0.923,7.856c1.664,4.617,6.757,7.013,11.375,5.349c4.617-1.664,7.012-6.755,5.349-11.373
			C292.65,160.745,292.482,160.367,292.291,160.005z"/>
		<path class="st4" d="M325.236,287.069c-2.246-1.878-3.386-4.998-1.506-8.286c2.405-4.214,7.092-4.025,10.065-1.732
			c-0.349-2.663-1.886-5.14-4.398-6.574c-4.261-2.435-9.691-0.951-12.126,3.311c-2.433,4.263-0.949,9.691,3.313,12.124
			C322.053,286.751,323.66,287.114,325.236,287.069z"/>
		<polygon class="st9" points="237.016,231 251.682,231 244.349,250 252.81,250 240.919,270.233 242.447,256.209 236.047,256.202 		
			"/>
		<path class="st4" d="M193.685,160.005h2.368c0.437,1.919,1.726,3.644,4.149,4.517c4.565,1.645,8.009-1.54,8.781-5.214
			c1.465,2.252,1.902,5.135,0.923,7.856c-1.664,4.617-6.757,7.013-11.375,5.349c-4.617-1.664-7.012-6.755-5.349-11.373
			C193.325,160.745,193.493,160.367,193.685,160.005z"/>
		<path class="st1" d="M325.825,289.508l2.336-28.131c3.076-0.803,4.457-2.791,4.657-5.198c0.188-2.283-0.852-4.375-1.758-5.555
			l-0.479,5.775l-6.977-0.579l0.502-6.049c-2.077,0.846-3.52,2.885-3.727,5.376c-0.218,2.642,0.858,5.004,3.772,6.174l-2.29,27.58
			c-3.066,0.674-4.518,2.825-4.737,5.469c-0.206,2.488,0.88,4.738,2.789,5.915l0.465-5.599l6.976,0.579l-0.442,5.325
			c1.088-1.014,2.46-2.904,2.65-5.189C329.761,292.996,328.727,290.807,325.825,289.508z"/>
		<g>
			<path class="st1" d="M151.67,253.996l11.09,22.62l2.416-1.184l-11.09-22.622c0.452-0.486,0.591-1.214,0.281-1.846l-2.58-5.263
				l-4.329,2.123l2.58,5.262C150.349,253.719,151.009,254.056,151.67,253.996z"/>
			
				<rect x="157.001" y="274.851" transform="matrix(0.8979 -0.4402 0.4402 0.8979 -104.7817 100.5694)" class="st1" width="14.799" height="2.611"/>
			
				<rect x="164.973" y="275.328" transform="matrix(0.8979 -0.4402 0.4402 0.8979 -109.0405 104.0668)" class="st1" width="9.663" height="23.504"/>
		</g>
		<path class="st4" d="M175.318,271.075c-3.436-3.492-8.232-3.663-11.731-0.237c0.716,0.818,0.976,1.817,1.121,2.904
			c0.412-0.01,0.776,0.055,1.127,0.151c0.066-0.107,0.154-0.206,0.276-0.288c-0.008-0.012-0.017-0.022-0.026-0.034
			c0.694-0.377,1.274-0.983,1.9-1.462c0.498-0.381,1.003-0.708,1.562-0.466c0.155-0.408,0.736-0.679,1.073-0.271
			c0.037,0.045,0.061,0.094,0.093,0.138c0.002-0.002,0.005-0.004,0.008-0.006c0.066,0.103,0.139,0.203,0.217,0.298
			c0.003,0.003,0.004,0.007,0.007,0.011c0.622-0.027,1.212,0.628,0.917,1.162c0.011,0.025,0.021,0.051,0.032,0.076
			c0.047,0.114,0.055,0.219,0.04,0.314c0.066,0.554-0.146,1.013-0.697,1.473c-0.542,0.453-0.868,0.436-1.434,0.879
			c0.212,0.44,0.354,1.109,0.806,2.145c1.321,3-0.486,6.431-2.913,8.233c2.659,0.388,5.46-0.422,7.522-2.45
			C178.717,280.202,178.762,274.573,175.318,271.075z"/>
		<path class="st4" d="M322.818,281.831c-0.064-0.368-0.085-0.741-0.083-1.109c-0.049-0.336-0.088-0.673-0.112-1.005
			c-0.013-0.101-0.015-0.206-0.023-0.308c-1.258-2.786-0.928-6.55-0.729-9.533c-1.876,0.702-3.528,2.037-4.599,3.912
			c-2.433,4.263-0.949,9.691,3.313,12.124c1.469,0.839,3.076,1.202,4.652,1.157C323.705,285.789,322.713,283.926,322.818,281.831z"
			/>
	</g>
	<g>
	</g>
	<g>
	</g>
	<g>
	</g>
	<g>
	</g>
	<g>
	</g>
	<g>
	</g>
	<g>
	</g>
	<g>
	</g>
	<g>
	</g>
	<g>
	</g>
	<g>
	</g>
	<g>
	</g>
	<g>
	</g>
	<g>
	</g>
	<g>
	</g>
	<g>
	</g>
</g>
</svg>
