<svg version="1" xmlns="http://www.w3.org/2000/svg" width="933.333" height="933.333" viewBox="0 0 700.000000 700.000000"><path d="M319.5 119.6c-13.4 1.8-22.6 3.8-37 8.2-10.8 3.3-13.5 3.7-26.8 4.2l-14.9.5-2.9 3.3c-2.3 2.5-2.9 4.2-2.9 7.6 0 4.4 0 4.4-7.6 9.2-21.1 13.1-47.4 36.7-61.1 54.9-27.6 36.7-43.3 76.1-47.5 119.7l-1.2 12.6-8.4.4c-6.9.2-8.6.6-9.8 2.2-2.1 2.9-2.1 160.3 0 163.2 1.4 1.8 3.2 1.9 40.7 2.2l39.2.3 10.2 9.8c31.2 30 69.3 50.2 112.7 59.6 4.3.9 8.3 1.5 8.9 1.3 1.2-.4-9.2-12.9-16-19.2l-3.1-3v-56.5l3-1.6c4.4-2.3 7.5-1.8 11.3 1.5 5.7 4.9 7.8 11.5 9.4 28.3 1.1 12 1.8 15.7 3.8 19.5l2.4 4.7.1-51c0-28.1.3-54.6.6-59 .7-7.9.6-8.1-1.9-9.2-8.8-4.1-15.1-14.5-15.1-25.3-.1-24.7 29.7-36.7 47.7-19.2 7.5 7.3 9.9 21 5.3 30.8-2.2 4.7-8.8 12.4-10.8 12.4-.4 0-.8 12.1-.8 27v27h8v-11.2c0-10 .2-11.5 2.5-15.3 1.5-2.6 3.9-4.9 6.2-6 3.6-1.8 3.8-1.7 8.1.5 2.4 1.3 5.5 3.8 6.8 5.5 2.2 2.9 2.4 4.1 2.4 14.8V486h7v-5.7c0-7.1 3.3-13.3 8.5-15.7 4.9-2.3 8.8-1.3 14.1 3.6l4.4 4.1V487h3.8c3.1 0 4-.6 5.9-3.5 5.1-7.9 11.5-8.4 17.7-1.5l3.6 4v37.5c0 27.9.3 37.5 1.2 37.5 1.8 0 19.3-9.6 28.8-15.7 18.8-12.3 37.7-28.9 51.7-45.5l6.5-7.7 5.7 4.8c10.9 9.4 20.3 13.1 33 13.1 26 0 46.1-20.1 46.3-46.2 0-13.5-4.2-23.7-13.7-33.3-7.7-7.7-22.8-15.5-30-15.5h-2.2l2.2-8.8 2.2-8.7 4.9.3c29.8 1.9 53.9-23.9 49.7-53.3-1.1-8-5.7-18.7-9.3-22-1.8-1.6-1.7-1.3.5 2.7 3.8 6.9 5.7 14.5 5.7 22.8 0 13.3-4.7 24.3-14.3 33.5-29.7 28.4-78.9 7.4-78.9-33.7 0-4 .4-8.8.9-10.6l1-3.2H403v64h34v-3.3c0-1.7.6-5.3 1.4-7.8 4.8-15.7 16.8-27.9 32-32.4 6.1-1.9 18.7-2.1 24.7-.5 24.3 6.6 39.6 32.4 33.4 56.3-4.8 18.6-19.5 32-38.2 34.9-17.9 2.8-37.9-6.4-46.8-21.6-3.3-5.7-6.5-15.1-6.5-19.3V401h-34v31h15.8l15.7.1 14.7 10.7 14.7 10.7v12.2l.1 12.3h31c17.1 0 31 .2 31 .4s.3 1.1.6 2c.6 1.4-2.8 1.6-33 1.6H460l-.1-13.3v-13.2l-13.3-9.8-13.4-9.7H399v-34.9l-14.2-.3c-10.2-.2-14.3-.6-14.6-1.6-.3-.9 3-1.2 14.2-1.2H399v-68h139.9l3.5-5.8c6.5-10.8 16.8-18.5 28.9-21.6 5.1-1.3 5.2-1.5 4.9-4.7-.4-5.3-6-23.5-10.9-35.4-11.9-29.3-27.8-53.2-51.2-76.6-14.8-14.8-29.6-26.4-46.3-36.1-9.2-5.4-10.7-6.7-11.2-9.4-.4-1.7-1.8-4.2-3.2-5.5-2.3-2.1-3.7-2.5-13.2-3-8.1-.4-13.3-1.3-21.2-3.8-24.4-7.5-43.1-10.1-70.3-10-10.6.1-23.7.7-29.2 1.5zM306 155c0 .6-9 1-25 1s-25-.4-25-1 9-1 25-1 25 .4 25 1zm0 7c0 .6-9 1-25 1s-25-.4-25-1 9-1 25-1 25 .4 25 1zm66 15c0 .7-19 1-55 1s-55-.3-55-1 19-1 55-1 55 .3 55 1zm-59 8c0 .6-9 1-25 1s-25-.4-25-1 9-1 25-1 25 .4 25 1zm54 0c0 .6-9.2 1-25.5 1s-25.5-.4-25.5-1 9.2-1 25.5-1 25.5.4 25.5 1zm-54 7c0 .6-9 1-25 1s-25-.4-25-1 9-1 25-1 25 .4 25 1zm27 0c0 .6-4.7 1-12 1s-12-.4-12-1 4.7-1 12-1 12 .4 12 1zm32 7c0 .7-19 1-55 1s-55-.3-55-1 19-1 55-1 55 .3 55 1zm28 0c0 .6-4.5 1-11.5 1s-11.5-.4-11.5-1 4.5-1 11.5-1 11.5.4 11.5 1zm-87 7c0 .6-9 1-25 1s-25-.4-25-1 9-1 25-1 25 .4 25 1zm27 0c0 .6-4.7 1-12 1s-12-.4-12-1 4.7-1 12-1 12 .4 12 1zm32 8c0 .7-18.8 1-54.5 1s-54.5-.3-54.5-1 18.8-1 54.5-1 54.5.3 54.5 1zm28 0c0 .6-4.5 1-11.5 1s-11.5-.4-11.5-1 4.5-1 11.5-1 11.5.4 11.5 1zm-94 12c0 .6-9 1-25 1s-25-.4-25-1 9-1 25-1 25 .4 25 1zm0 8.5c0 1.3-3.4 1.5-25 1.5s-25-.2-25-1.5 3.4-1.5 25-1.5 25 .2 25 1.5zm0 8.5c0 .6-9 1-25 1s-25-.4-25-1 9-1 25-1 25 .4 25 1zm59 7c0 .7-18.8 1-54.5 1s-54.5-.3-54.5-1 18.8-1 54.5-1 54.5.3 54.5 1zm136.5 26.9c.3.6.2 2.9-.1 5.3-.5 3.1-1.8 5.4-4.4 8l-3.8 3.8H308v45l16.8.2 16.7.3.3 15.7c.2 15.3.2 15.8-1.8 15.8-1.9 0-2-.6-2-14v-14h-34v-49h-51.7c-39.2 0-52.4-.3-54.3-1.3-3.1-1.5-7-9-7-13.4V276h154.9c95.6 0 155.2.4 155.6.9zM185 417v57h-78V360h78v57zm58-35.5V403h26c25.3 0 26 .1 26 2 0 2-.7 2-28 2h-28v-43l-22.2-.2c-20.3-.3-22.3-.5-22.6-2.1-.3-1.6 1.4-1.7 24.2-1.7H243v21.5zm326.9 60.2c.1 2.9-.3 5.3-.9 5.3-.6 0-1-3.7-.9-9.3.1-7.6.3-8.5 1-5.2.4 2.2.8 6.4.8 9.2zm-11.4 8.1c-.7.7-2.2-.7-7.6-7l-5.3-6.3 6.7 6.4c3.7 3.6 6.5 6.7 6.2 6.9zm26.5-6.3c-3.5 3.6-6.9 6.5-7.4 6.5-.6 0 1.9-2.9 5.4-6.5 3.5-3.6 6.9-6.5 7.4-6.5.6 0-1.9 2.9-5.4 6.5zm-8.1 8.3c7.9 4.3 9.2 13.7 3.3 24.7l-3.7 7-7.3.2-7.2.2-2.5-3.8c-7.9-12.6-7.3-24 1.6-28.4 4.5-2.2 11.6-2.1 15.8.1zm-27.5 5.3c2.5 1.1-9.6.1-14.5-1.2-2.3-.6-.8-.7 4.5-.3 4.4.3 8.9 1 10 1.5zm53.1-.1c-6.8 1.3-16 2.2-15.3 1.5.9-.9 9.5-2.3 14.8-2.3h4.5l-4 .8zm-4 12.2c3.6.6 6.5 1.5 6.5 2s-.8.7-1.7.4c-1-.3-4.7-1-8.3-1.7-3.6-.6-7.2-1.6-8-2.1-1.6-1-.5-.9 11.5 1.4zm-47.5-.4c0 .9-18 4.6-18.7 3.8-.6-.6 1.3-1.1 11.2-3 3.9-.8 7.1-1.5 7.3-1.5.1-.1.2.3.2.7z"/><path d="M219.7 279.6c-1.7 1.7 1.1 2.4 9.4 2.4 7.2 0 8.9-.3 8.9-1.5s-1.6-1.5-8.8-1.5c-4.9 0-9.2.3-9.5.6zM153.5 393c1 1.1 2 2 2.3 2 .3 0-.3-.9-1.3-2s-2-2-2.3-2c-.3 0 .3.9 1.3 2zM152 396.7c-1.9.7-8.5 8.2-7.7 8.9.3.3 2.1.1 3.9-.5 1.8-.6 3.6-1 3.9-.8 1 .4 4-2.5 5.5-5.5 1.4-2.8 1.4-2.8-1.3-2.7-1.6.1-3.5.4-4.3.6zM165.8 400.1l.4 4.1-2.6-1.7c-2.5-1.7-2.6-1.7-2.6.4 0 1.6.6 2.1 2.6 2.1h2.5l-1.8 3c-2.2 3.8-9.1 7.3-13 6.5-2.3-.4-2.4-.4-.8.4 4.5 2.2 11.1-.1 14.6-5 2.1-3 2.9-11.3 1.2-13-.5-.5-.7 1-.5 3.2zM123.5 408c-.3.5-1.5 1-2.6 1-1.2 0-1.9.7-1.9 1.9 0 1-.7 2.2-1.6 2.5-1.3.5-1.4.9-.4 2.1.6.8.9 1.9.5 2.4-.6 1.1 3.2 5.4 5 5.7.5.1 1.8.5 2.8.9 1 .4 1.7.3 1.7-.4 0-.6.9-1.1 2-1.1s2-.7 2-1.5c0-.9.6-1.8 1.4-2.1 1.5-.6 1.5-6.2-.1-7.3-.5-.3-1.2-1.4-1.6-2.3-.3-1-1.2-1.5-2.1-1.2-.8.3-1.7.1-2.1-.5-.8-1.4-2.2-1.4-3-.1zm4.9 6.5c.9 2.5-.5 4.5-3 4.5-2.6 0-4-2-3-4.5.3-.8 1.6-1.5 3-1.5 1.3 0 2.6.7 3 1.5z"/><path d="M149.6 408.5c-.4 1 .1 1.5 1.6 1.5 1.7 0 1.8-.2.8-1.5-.7-.8-1.4-1.5-1.5-1.5-.2 0-.5.7-.9 1.5zM136.9 410.7c1.5 3.1 1.4 7.9-.3 11.2-1.8 3.4-5.4 5.8-10.3 7l-3.8.9 3.3.1c7.3.2 13.2-5.7 13.2-13.1 0-2.5-.7-5.3-1.6-6.4-1.5-1.8-1.5-1.8-.5.3zM144.4 421.4c-9.9 4.3-10.7 16.9-1.5 23.2 6.9 4.7 15.5 2.4 19.1-5.1 2.5-5.1 2.5-5.9-.1-11.1-1.5-3.1-3.2-4.8-6.3-6.3-4.9-2.4-6.9-2.5-11.2-.7zm7.2 9.4c1.7 1.1 2.2 3.5 1.3 6-1.3 3.4-6 2.7-7.3-1-1.5-4.2 2.4-7.5 6-5zM577.8 310c1.2.5 3.2 2.5 4.3 4.5 2.2 3.7 3.9 4.5 3.9 1.9 0-2.4-5.6-7.4-8.2-7.3h-2.3l2.3.9zM618 317.4c0 .2.8 1 1.8 1.7 1.5 1.3 1.6 1.2.3-.4s-2.1-2.1-2.1-1.3zM588.4 319.6c.9.8 1.6 2.2 1.6 3 0 .8.7 1.4 1.5 1.4s1.5-.6 1.5-1.4c0-1.9-2.7-4.6-4.6-4.6-1.3 0-1.3.2 0 1.6zM584.2 328.5c-6.8 1.5-16.1 6.3-14.4 7.4 1.7 1-7 11.1-9 10.5-1.3-.4-1.8.1-1.9 1.5-.3 4.3-1.9 7.3-3.5 6.7-.9-.4-2.3 1.2-4 4.5-1.4 2.8-2.4 5.3-2.2 5.4 1 1 11.8-.9 11.8-2 0-1.9 2.7-2.6 5.5-1.5 3.3 1.2 5.7.3 5-2-.5-1.5.6-2.2 5.5-3.8l6.1-2.1-.7 2.1c-.6 2-.6 2 2.6.2 5-3 9.9-9 13.7-17 4.6-9.7 4.3-10.8-2.7-11.1-3-.1-8.4.4-11.8 1.2zm-26.4 30.2c1 1.8.9 2-.8 1.6-2-.5-2.6-2.3-1.3-3.6.7-.8.7-.9 2.1 2zM615.9 349.9c1.7 1.6 3.1 3.3 3.1 3.8s1.4 1.4 3 2c1.7.6 3 1.8 3 2.7 0 .9.5 1.6 1.1 1.6 1.9 0 .4-3.4-2-4.7-1.4-.6-3.1-2.3-3.8-3.6-.7-1.4-2.6-3-4.4-3.6l-3.1-1.1 3.1 2.9zM572.6 367.8c.6.4 1.6 1.7 2.3 2.9.6 1.3 1.8 2.3 2.6 2.3s1.8.8 2.4 1.7c.5 1 1.3 1.4 1.8 1 .4-.5-.1-1.5-1.2-2.2-2.2-1.6-3.4-2.7-5.3-5-.7-.8-1.8-1.5-2.5-1.5-.8 0-.9.3-.1.8zM480 370c0 1.3-.9 2.2-2.7 2.6-1.6.4-4.1 1.3-5.7 2.1-2.5 1.3-3 1.3-4.4-.1-1.5-1.4-1.9-1.3-4.4 1.1-2.5 2.4-2.6 2.8-1.3 4.3 1.4 1.5 1.3 2.1-.7 5.8-1.6 2.9-3 4.2-4.5 4.2-2.6 0-3 .5-3.4 4.5-.3 2.5 0 3.1 1.8 3.3 1.7.2 2.3 1.2 2.8 4.4.7 3.9.2 5-2.8 6-.4.2-.2 1.8.4 3.7 1 2.8 1.5 3.2 3.7 2.8 3.4-.6 7.4 3.7 6.7 7.3-.4 2 .1 2.8 2.6 4.3 2.9 1.6 3.2 1.6 4.3.1 1-1.3 1.8-1.4 5.3-.5 2.5.7 4.3 1.8 4.5 2.9.7 2.7 7.8 1.8 7.8-.9 0-2.6 6.8-5.5 9.3-3.9 1.4.8 2.3.6 4.2-.7 2.7-2 3.1-3.3 1.4-5-.9-.9-.6-2.1 1.1-4.7 1.8-3 2.6-3.5 4.6-3 1.3.3 2.4.5 2.4.3s.4-1.9.9-3.7c.9-3 .7-3.4-1.3-4.2-1.8-.7-2.5-1.8-2.8-4.9-.2-2.4.1-4.1.7-4.1 2.9-.1 3.7-1.7 2.5-5.4-1.3-4-1.4-4-3.9-2.6-1.4.7-2.2.3-3.9-2-2.4-3.2-2.7-5.1-1.1-6.7.7-.7.2-1.7-2.1-3.3-2.8-2-3.3-2.1-4.7-.8-1.2 1.3-2 1.3-5.1.3-2-.7-3.9-2.2-4.4-3.4-1.1-3-7.8-3.1-7.8-.1zm8.6 17.6c6.6 3.2 9.3 10.4 6.4 17.3-2.5 6.1-11.5 9-17.9 5.7-9.1-4.7-8.3-19 1.3-23.2 4.1-1.8 6.1-1.7 10.2.2zM325.5 390.9c-6.9 3.2-11.5 10.2-11.5 17.3.1 4.2 3 10.6 6.4 13.7l2.6 2.4v-3.9c0-4.7 4.7-12.8 8-13.9 4.6-1.4 9 .4 12.3 5.1 1.8 2.5 3.4 5.7 3.7 7.2.5 2.6.6 2.5 2.8-1.9 5-10.4 1.2-21.1-9.3-26-5.1-2.4-9.9-2.4-15 0z"/></svg>